{"glyphs":{"0":{"ha":806,"x_min":71,"x_max":735,"o":"m 401 -14 q 301 -10 340 -14 q 217 7 263 -6 q 140 47 169 21 q 92 121 111 72 q 71 235 71 168 l 71 667 q 90 779 71 731 q 140 856 110 828 q 213 894 167 879 q 304 913 258 908 q 401 915 357 915 q 501 912 464 915 q 585 894 539 908 q 664 854 635 879 q 714 782 693 829 q 735 667 735 735 l 735 235 q 715 122 735 171 q 664 47 694 74 q 588 8 636 24 q 497 -10 540 -7 q 401 -14 458 -14 m 404 117 q 488 124 463 117 q 521 153 513 132 q 529 221 529 174 l 529 681 q 521 749 529 728 q 488 777 513 769 q 404 785 463 785 q 319 777 344 785 q 285 749 293 769 q 276 681 276 728 l 276 221 q 285 153 276 174 q 319 124 293 132 q 404 117 344 117 z "},"1":{"ha":806,"x_min":118,"x_max":567,"o":"m 364 0 l 364 689 l 118 553 l 118 724 l 403 901 l 567 901 l 567 0 l 364 0 z "},"2":{"ha":806,"x_min":81,"x_max":714,"o":"m 81 206 q 122 336 81 281 q 231 421 164 392 q 354 468 283 444 q 464 518 425 492 q 503 581 503 544 l 503 696 q 468 753 503 739 q 351 768 431 768 q 99 733 256 768 l 99 886 q 389 915 238 915 q 633 865 553 915 q 713 699 713 815 l 713 574 q 670 451 713 503 q 561 372 628 399 q 433 325 499 346 q 322 269 363 300 q 281 197 281 239 l 281 151 l 714 151 l 714 0 l 81 0 l 81 206 z "},"3":{"ha":806,"x_min":65,"x_max":697,"o":"m 368 -14 q 65 7 251 -14 l 65 168 l 110 160 q 139 153 136 154 l 186 144 q 257 136 203 142 q 342 132 299 132 q 453 151 422 132 q 485 225 485 171 l 485 329 q 344 394 485 394 l 181 394 l 181 533 l 344 533 q 453 613 453 533 l 453 700 q 442 745 453 729 q 402 768 431 761 q 318 775 374 775 q 74 758 239 775 l 74 903 q 340 915 263 915 q 585 876 510 915 q 661 739 661 838 l 661 590 q 637 522 661 550 q 575 483 613 493 q 697 349 697 440 l 697 201 q 618 36 697 86 q 368 -14 539 -14 z "},"4":{"ha":806,"x_min":36,"x_max":733,"o":"m 453 0 l 453 182 l 36 182 l 36 342 l 407 901 l 636 901 l 636 328 l 733 328 l 733 182 l 636 182 l 636 0 l 453 0 m 210 328 l 453 328 l 453 710 l 210 328 z "},"5":{"ha":806,"x_min":85,"x_max":699,"o":"m 372 -14 q 85 1 276 -14 l 85 169 q 344 138 257 138 q 456 155 421 138 q 490 210 490 172 l 490 344 q 465 398 490 382 q 383 414 440 414 l 106 414 l 106 901 l 675 901 l 675 746 l 308 746 l 308 563 l 450 563 q 607 532 531 563 q 674 476 649 514 q 699 389 699 439 l 699 200 q 678 103 699 146 q 625 39 657 61 q 551 6 597 18 q 461 -11 504 -7 q 372 -14 411 -14 z "},"6":{"ha":806,"x_min":76,"x_max":729,"o":"m 401 -14 q 300 -10 339 -14 q 218 8 261 -6 q 143 49 171 24 q 96 121 115 74 q 76 235 76 171 l 76 654 q 99 773 76 721 q 158 853 122 825 q 240 892 189 876 q 340 913 292 908 q 436 915 393 915 q 686 901 496 915 l 686 753 q 418 775 499 775 q 324 768 351 775 q 287 741 296 761 q 278 669 278 721 l 278 563 l 426 563 q 535 560 501 563 q 610 547 568 558 q 676 516 654 536 q 714 456 697 496 q 729 357 729 414 l 729 235 q 710 123 729 171 q 660 49 690 75 q 587 8 632 24 q 497 -10 542 -7 q 401 -14 458 -14 m 404 121 q 490 128 465 121 q 521 155 514 135 q 528 225 528 175 l 528 356 q 519 403 528 389 q 485 424 511 418 q 403 429 460 429 l 278 429 l 278 224 q 285 156 278 176 q 319 128 293 135 q 404 121 344 121 z "},"7":{"ha":806,"x_min":56,"x_max":717,"o":"m 146 0 l 493 743 l 56 743 l 56 901 l 717 901 l 717 763 l 371 0 l 146 0 z "},"8":{"ha":806,"x_min":58,"x_max":747,"o":"m 403 -14 q 141 31 224 -14 q 58 185 58 75 l 58 340 q 103 424 58 385 q 208 476 147 463 l 208 482 q 125 521 161 488 q 89 597 89 554 l 89 726 q 160 869 89 824 q 403 915 232 915 q 645 869 574 915 q 717 726 717 824 l 717 597 q 681 521 717 554 q 597 482 644 488 l 597 476 q 703 424 658 463 q 747 340 747 385 l 747 185 q 663 29 747 72 q 403 -14 578 -14 m 403 531 q 488 548 464 531 q 513 604 513 565 l 513 708 q 488 766 513 749 q 403 783 464 783 q 317 766 342 783 q 293 708 293 749 l 293 604 q 317 549 293 568 q 403 531 339 531 m 403 118 q 490 125 463 118 q 526 149 517 132 q 535 201 535 165 l 535 324 q 511 383 535 364 q 404 401 488 401 q 298 384 325 401 q 271 324 271 367 l 271 201 q 280 149 271 165 q 316 125 289 132 q 403 118 343 118 z "},"9":{"ha":806,"x_min":76,"x_max":731,"o":"m 376 -14 q 119 0 257 -14 l 119 144 q 374 125 297 125 q 476 135 444 125 q 519 171 508 144 q 529 254 529 197 l 529 339 l 379 339 q 271 341 304 339 q 196 354 238 343 q 131 386 153 365 q 92 447 108 407 q 76 544 76 489 l 76 667 q 96 778 76 731 q 146 854 115 826 q 219 893 174 878 q 308 913 264 908 q 404 915 361 915 q 508 912 469 915 q 589 894 546 908 q 663 853 635 879 q 711 781 692 828 q 731 667 731 731 l 731 247 q 647 47 731 107 q 376 -14 563 -14 m 529 474 l 529 685 q 522 750 529 732 q 490 774 514 768 q 401 779 465 779 q 319 773 343 779 q 286 748 294 767 q 278 685 278 729 l 278 547 q 286 499 278 514 q 320 479 294 485 q 403 474 346 474 l 529 474 z "},"\u0000":{"ha":0,"x_min":0,"x_max":0,"o":""},"\r":{"ha":319,"x_min":0,"x_max":0,"o":""}," ":{"ha":319,"x_min":0,"x_max":0,"o":""},"A":{"ha":928,"x_min":3,"x_max":925,"o":"m 3 0 l 336 901 l 600 901 l 925 0 l 706 0 l 625 238 l 296 238 l 217 0 l 3 0 m 344 382 l 578 382 l 464 721 l 458 721 l 344 382 z "},"Á":{"ha":928,"x_min":3,"x_max":925,"o":"m 3 0 l 336 901 l 600 901 l 925 0 l 706 0 l 625 238 l 296 238 l 217 0 l 3 0 m 344 382 l 578 382 l 464 721 l 458 721 l 344 382 m 394 990 l 519 1167 l 740 1167 l 567 990 l 394 990 z "},"Ă":{"ha":928,"x_min":3,"x_max":925,"o":"m 3 0 l 336 901 l 600 901 l 925 0 l 706 0 l 625 238 l 296 238 l 217 0 l 3 0 m 344 382 l 578 382 l 464 721 l 458 721 l 344 382 m 464 990 q 328 1038 379 990 q 272 1167 276 1086 l 385 1167 q 410 1108 393 1125 q 464 1090 428 1090 q 542 1167 533 1090 l 656 1167 q 599 1038 650 1086 q 464 990 547 990 z "},"Ắ":{"ha":928,"x_min":3,"x_max":925,"o":"m 3 0 l 336 901 l 600 901 l 925 0 l 706 0 l 625 238 l 296 238 l 217 0 l 3 0 m 344 382 l 578 382 l 464 721 l 458 721 l 344 382 m 464 997 q 328 1045 379 997 q 272 1174 276 1093 l 385 1174 q 410 1115 393 1132 q 464 1097 428 1097 q 542 1174 533 1097 l 656 1174 q 599 1045 650 1093 q 464 997 547 997 m 378 1218 l 421 1351 l 614 1351 l 522 1218 l 378 1218 z "},"Ặ":{"ha":928,"x_min":3,"x_max":925,"o":"m 3 0 l 336 901 l 600 901 l 925 0 l 706 0 l 625 238 l 296 238 l 217 0 l 3 0 m 344 382 l 578 382 l 464 721 l 458 721 l 344 382 m 374 -247 l 374 -89 l 553 -89 l 553 -247 l 374 -247 m 464 990 q 328 1038 379 990 q 272 1167 276 1086 l 385 1167 q 410 1108 393 1125 q 464 1090 428 1090 q 542 1167 533 1090 l 656 1167 q 599 1038 650 1086 q 464 990 547 990 z "},"Ằ":{"ha":928,"x_min":3,"x_max":925,"o":"m 3 0 l 336 901 l 600 901 l 925 0 l 706 0 l 625 238 l 296 238 l 217 0 l 3 0 m 344 382 l 578 382 l 464 721 l 458 721 l 344 382 m 464 997 q 328 1045 379 997 q 272 1174 276 1093 l 385 1174 q 410 1115 393 1132 q 464 1097 428 1097 q 542 1174 533 1097 l 656 1174 q 599 1045 650 1093 q 464 997 547 997 m 393 1217 l 306 1350 l 504 1350 l 543 1217 l 393 1217 z "},"Ẳ":{"ha":928,"x_min":3,"x_max":925,"o":"m 3 0 l 336 901 l 600 901 l 925 0 l 706 0 l 625 238 l 296 238 l 217 0 l 3 0 m 344 382 l 578 382 l 464 721 l 458 721 l 344 382 m 464 997 q 328 1045 379 997 q 272 1174 276 1093 l 385 1174 q 410 1115 393 1132 q 464 1097 428 1097 q 542 1174 533 1097 l 656 1174 q 599 1045 650 1093 q 464 997 547 997 m 417 1218 q 424 1249 417 1239 q 444 1269 431 1258 q 468 1294 463 1282 q 474 1325 474 1307 q 419 1371 474 1371 q 385 1368 400 1371 q 357 1361 371 1365 l 357 1451 q 418 1461 382 1461 q 539 1431 508 1461 q 569 1338 569 1401 q 565 1286 569 1303 q 547 1258 561 1269 q 530 1245 542 1254 q 513 1227 518 1236 q 507 1206 507 1218 l 417 1206 l 417 1218 z "},"Ẵ":{"ha":928,"x_min":3,"x_max":925,"o":"m 3 0 l 336 901 l 600 901 l 925 0 l 706 0 l 625 238 l 296 238 l 217 0 l 3 0 m 344 382 l 578 382 l 464 721 l 458 721 l 344 382 m 464 997 q 328 1045 379 997 q 272 1174 276 1093 l 385 1174 q 410 1115 393 1132 q 464 1097 428 1097 q 542 1174 533 1097 l 656 1174 q 599 1045 650 1093 q 464 997 547 997 m 275 1256 q 320 1330 285 1294 q 401 1365 356 1365 q 488 1344 433 1365 q 563 1324 540 1324 q 619 1369 600 1324 l 676 1336 q 631 1259 665 1296 q 550 1222 596 1222 q 460 1246 518 1222 q 389 1268 406 1268 q 331 1222 349 1268 l 275 1256 z "},"Â":{"ha":928,"x_min":3,"x_max":925,"o":"m 3 0 l 336 901 l 600 901 l 925 0 l 706 0 l 625 238 l 296 238 l 217 0 l 3 0 m 344 382 l 578 382 l 464 721 l 458 721 l 344 382 m 254 990 l 332 1167 l 592 1167 l 672 990 l 536 990 l 463 1111 l 390 990 l 254 990 z "},"Ấ":{"ha":928,"x_min":3,"x_max":925,"o":"m 3 0 l 336 901 l 600 901 l 925 0 l 706 0 l 625 238 l 296 238 l 217 0 l 3 0 m 344 382 l 578 382 l 464 721 l 458 721 l 344 382 m 254 997 l 332 1174 l 592 1174 l 672 997 l 536 997 l 463 1118 l 390 997 l 254 997 m 650 1110 l 693 1243 l 886 1243 l 794 1110 l 650 1110 z "},"Ậ":{"ha":928,"x_min":3,"x_max":925,"o":"m 3 0 l 336 901 l 600 901 l 925 0 l 706 0 l 625 238 l 296 238 l 217 0 l 3 0 m 344 382 l 578 382 l 464 721 l 458 721 l 344 382 m 374 -247 l 374 -89 l 553 -89 l 553 -247 l 374 -247 m 254 990 l 332 1167 l 592 1167 l 672 990 l 536 990 l 463 1111 l 390 990 l 254 990 z "},"Ầ":{"ha":928,"x_min":3,"x_max":925,"o":"m 3 0 l 336 901 l 600 901 l 925 0 l 706 0 l 625 238 l 296 238 l 217 0 l 3 0 m 344 382 l 578 382 l 464 721 l 458 721 l 344 382 m 254 997 l 332 1174 l 592 1174 l 672 997 l 536 997 l 463 1118 l 390 997 l 254 997 m 692 1124 l 604 1257 l 803 1257 l 842 1124 l 692 1124 z "},"Ẩ":{"ha":928,"x_min":3,"x_max":925,"o":"m 3 0 l 336 901 l 600 901 l 925 0 l 706 0 l 625 238 l 296 238 l 217 0 l 3 0 m 344 382 l 578 382 l 464 721 l 458 721 l 344 382 m 254 997 l 332 1174 l 592 1174 l 672 997 l 536 997 l 463 1118 l 390 997 l 254 997 m 665 1136 q 672 1167 665 1157 q 693 1188 679 1176 q 717 1213 711 1200 q 722 1243 722 1225 q 668 1289 722 1289 q 634 1286 649 1289 q 606 1279 619 1283 l 606 1369 q 667 1379 631 1379 q 788 1349 757 1379 q 818 1256 818 1319 q 814 1204 818 1221 q 796 1176 810 1188 q 778 1163 790 1172 q 761 1145 767 1154 q 756 1124 756 1136 l 665 1124 l 665 1136 z "},"Ẫ":{"ha":928,"x_min":3,"x_max":925,"o":"m 3 0 l 336 901 l 600 901 l 925 0 l 706 0 l 625 238 l 296 238 l 217 0 l 3 0 m 344 382 l 578 382 l 464 721 l 458 721 l 344 382 m 254 997 l 332 1174 l 592 1174 l 672 997 l 536 997 l 463 1118 l 390 997 l 254 997 m 263 1251 q 308 1326 272 1290 q 389 1361 343 1361 q 475 1340 421 1361 q 550 1319 528 1319 q 607 1365 588 1319 l 664 1332 q 618 1255 653 1292 q 538 1218 583 1218 q 447 1242 506 1218 q 376 1264 393 1264 q 318 1218 336 1264 l 263 1251 z "},"Ä":{"ha":928,"x_min":3,"x_max":925,"o":"m 243 993 l 243 1157 l 418 1157 l 418 993 l 243 993 m 507 993 l 507 1157 l 682 1157 l 682 993 l 507 993 m 3 0 l 336 901 l 600 901 l 925 0 l 706 0 l 625 238 l 296 238 l 217 0 l 3 0 m 344 382 l 578 382 l 464 721 l 458 721 l 344 382 z "},"Ạ":{"ha":928,"x_min":3,"x_max":925,"o":"m 3 0 l 336 901 l 600 901 l 925 0 l 706 0 l 625 238 l 296 238 l 217 0 l 3 0 m 344 382 l 578 382 l 464 721 l 458 721 l 344 382 m 374 -247 l 374 -89 l 553 -89 l 553 -247 l 374 -247 z "},"À":{"ha":928,"x_min":3,"x_max":925,"o":"m 3 0 l 336 901 l 600 901 l 925 0 l 706 0 l 625 238 l 296 238 l 217 0 l 3 0 m 344 382 l 578 382 l 464 721 l 458 721 l 344 382 m 407 990 l 233 1167 l 454 1167 l 579 990 l 407 990 z "},"Ả":{"ha":928,"x_min":3,"x_max":925,"o":"m 3 0 l 336 901 l 600 901 l 925 0 l 706 0 l 625 238 l 296 238 l 217 0 l 3 0 m 344 382 l 578 382 l 464 721 l 458 721 l 344 382 m 417 1036 q 424 1067 417 1057 q 444 1088 431 1076 q 468 1113 463 1100 q 474 1143 474 1125 q 419 1189 474 1189 q 385 1186 400 1189 q 357 1179 371 1183 l 357 1269 q 418 1279 382 1279 q 539 1249 508 1279 q 569 1156 569 1219 q 565 1104 569 1121 q 547 1076 561 1088 q 530 1063 542 1072 q 513 1045 518 1054 q 507 1024 507 1036 l 417 1024 l 417 1036 z "},"Ā":{"ha":928,"x_min":3,"x_max":925,"o":"m 271 1007 l 271 1131 l 657 1131 l 657 1007 l 271 1007 m 3 0 l 336 901 l 600 901 l 925 0 l 706 0 l 625 238 l 296 238 l 217 0 l 3 0 m 344 382 l 578 382 l 464 721 l 458 721 l 344 382 z "},"Ą":{"ha":928,"x_min":3,"x_max":925,"o":"m 808 -258 q 708 -229 744 -258 q 671 -147 671 -200 q 706 0 671 -65 l 625 238 l 296 238 l 217 0 l 3 0 l 336 901 l 600 901 l 925 0 q 826 -119 826 -36 q 864 -160 826 -160 q 906 -151 881 -160 l 906 -244 q 808 -258 878 -258 m 344 382 l 578 382 l 464 721 l 458 721 l 344 382 z "},"Å":{"ha":906,"x_min":4,"x_max":926,"o":"m 297 793 q 244 901 244 825 l 244 946 q 315 1071 244 1044 q 381 1087 350 1083 q 465 1090 411 1090 q 550 1087 519 1090 q 615 1071 581 1083 q 686 946 686 1044 l 686 901 q 639 797 686 828 l 926 0 l 707 0 l 626 238 l 297 238 l 217 0 l 4 0 l 297 793 m 465 838 q 543 848 524 838 q 563 892 563 858 l 563 943 q 556 983 563 971 q 529 1000 549 996 q 465 1004 510 1004 q 401 1000 421 1004 q 375 983 382 996 q 368 943 368 971 l 368 892 q 388 848 368 858 q 465 838 407 838 m 344 382 l 579 382 l 465 721 l 458 721 l 344 382 z "},"Ã":{"ha":928,"x_min":3,"x_max":925,"o":"m 3 0 l 336 901 l 600 901 l 925 0 l 706 0 l 625 238 l 296 238 l 217 0 l 3 0 m 344 382 l 578 382 l 464 721 l 458 721 l 344 382 m 540 994 q 443 1024 504 994 l 385 1051 q 335 1010 336 1051 l 233 1010 q 275 1123 235 1089 q 394 1157 315 1157 q 486 1131 435 1157 q 547 1104 538 1104 q 593 1153 593 1104 l 693 1153 q 540 994 690 994 z "},"Æ":{"ha":1375,"x_min":0,"x_max":1326,"o":"m 0 0 l 458 901 l 1313 901 l 1313 747 l 865 747 l 865 540 l 1267 540 l 1267 386 l 865 386 l 865 154 l 1326 154 l 1326 0 l 653 0 l 653 238 l 340 238 l 231 0 l 0 0 m 406 382 l 653 382 l 653 747 l 574 747 l 406 382 z "},"B":{"ha":882,"x_min":97,"x_max":831,"o":"m 97 901 l 463 901 q 662 883 592 901 q 761 823 732 864 q 790 708 790 782 l 790 597 q 760 526 790 560 q 690 481 731 493 l 690 474 q 787 428 743 468 q 831 340 831 389 l 831 201 q 743 46 831 92 q 472 0 656 0 l 97 0 l 97 901 m 463 535 q 539 543 514 535 q 573 570 564 551 q 582 625 582 589 l 582 669 q 574 717 582 701 q 540 740 565 733 q 458 747 514 747 l 314 747 l 314 535 l 463 535 m 468 154 q 581 172 547 154 q 614 231 614 190 l 614 303 q 588 374 614 353 q 497 394 563 394 l 314 394 l 314 154 l 468 154 z "},"C":{"ha":829,"x_min":78,"x_max":788,"o":"m 496 -14 q 387 -8 435 -14 q 282 13 339 -3 q 176 56 218 29 q 107 132 135 83 q 78 247 78 181 l 78 643 q 496 915 78 915 q 782 885 603 915 l 782 722 q 499 761 621 761 q 419 758 447 761 q 360 744 390 756 q 294 646 294 722 l 294 263 q 518 140 294 140 q 788 181 614 140 l 788 17 q 496 -14 639 -14 z "},"Ć":{"ha":829,"x_min":78,"x_max":788,"o":"m 325 997 l 450 1174 l 671 1174 l 497 997 l 325 997 m 496 -14 q 387 -8 435 -14 q 282 13 339 -3 q 176 56 218 29 q 107 132 135 83 q 78 247 78 181 l 78 643 q 496 915 78 915 q 782 885 603 915 l 782 722 q 499 761 621 761 q 419 758 447 761 q 360 744 390 756 q 294 646 294 722 l 294 263 q 518 140 294 140 q 788 181 614 140 l 788 17 q 496 -14 639 -14 z "},"Č":{"ha":829,"x_min":78,"x_max":788,"o":"m 342 997 l 261 1174 l 397 1174 l 471 1053 l 543 1174 l 679 1174 l 601 997 l 342 997 m 496 -14 q 387 -8 435 -14 q 282 13 339 -3 q 176 56 218 29 q 107 132 135 83 q 78 247 78 181 l 78 643 q 496 915 78 915 q 782 885 603 915 l 782 722 q 499 761 621 761 q 419 758 447 761 q 360 744 390 756 q 294 646 294 722 l 294 263 q 518 140 294 140 q 788 181 614 140 l 788 17 q 496 -14 639 -14 z "},"Ç":{"ha":829,"x_min":78,"x_max":788,"o":"m 464 -306 q 338 -274 386 -306 l 368 -210 q 454 -235 410 -235 q 519 -186 519 -235 q 415 -133 519 -133 l 360 -133 l 376 -106 q 413 -54 382 -99 l 440 -12 q 78 247 78 7 l 78 643 q 496 915 78 915 q 782 885 603 915 l 782 722 q 499 761 621 761 q 419 758 447 761 q 360 744 390 756 q 294 646 294 722 l 294 263 q 518 140 294 140 q 788 181 614 140 l 788 17 q 536 -14 638 -12 l 496 -69 q 594 -101 557 -74 q 631 -179 631 -128 q 582 -272 631 -239 q 464 -306 533 -306 z "},"Ĉ":{"ha":829,"x_min":78,"x_max":788,"o":"m 261 997 l 339 1174 l 599 1174 l 679 997 l 543 997 l 469 1118 l 397 997 l 261 997 m 496 -14 q 387 -8 435 -14 q 282 13 339 -3 q 176 56 218 29 q 107 132 135 83 q 78 247 78 181 l 78 643 q 496 915 78 915 q 782 885 603 915 l 782 722 q 499 761 621 761 q 419 758 447 761 q 360 744 390 756 q 294 646 294 722 l 294 263 q 518 140 294 140 q 788 181 614 140 l 788 17 q 496 -14 639 -14 z "},"Ċ":{"ha":829,"x_min":78,"x_max":788,"o":"m 368 1014 l 368 1174 l 571 1174 l 571 1014 l 368 1014 m 496 -14 q 387 -8 435 -14 q 282 13 339 -3 q 176 56 218 29 q 107 132 135 83 q 78 247 78 181 l 78 643 q 496 915 78 915 q 782 885 603 915 l 782 722 q 499 761 621 761 q 419 758 447 761 q 360 744 390 756 q 294 646 294 722 l 294 263 q 518 140 294 140 q 788 181 614 140 l 788 17 q 496 -14 639 -14 z "},"D":{"ha":986,"x_min":97,"x_max":908,"o":"m 97 901 l 481 901 q 731 877 639 901 q 865 793 822 853 q 908 628 908 733 l 908 261 q 868 102 908 158 q 736 23 828 46 q 482 0 644 0 l 97 0 l 97 901 m 472 154 q 606 162 561 154 q 672 192 651 169 q 692 261 692 214 l 692 632 q 641 722 692 696 q 479 747 590 747 l 314 747 l 314 154 l 472 154 z "},"Ð":{"ha":940,"x_min":14,"x_max":908,"o":"m 481 901 q 731 877 639 901 q 865 793 822 853 q 908 628 908 733 l 908 261 q 868 102 908 158 q 736 23 828 46 q 482 0 644 0 l 97 0 l 97 394 l 14 394 l 14 535 l 97 535 l 97 901 l 481 901 m 692 632 q 641 722 692 696 q 479 747 590 747 l 314 747 l 314 535 l 483 535 l 483 394 l 314 394 l 314 154 l 472 154 q 606 162 561 154 q 672 192 651 169 q 692 261 692 214 l 692 632 z "},"Ď":{"ha":986,"x_min":97,"x_max":908,"o":"m 364 997 l 283 1174 l 419 1174 l 493 1053 l 565 1174 l 701 1174 l 624 997 l 364 997 m 97 901 l 481 901 q 731 877 639 901 q 865 793 822 853 q 908 628 908 733 l 908 261 q 868 102 908 158 q 736 23 828 46 q 482 0 644 0 l 97 0 l 97 901 m 472 154 q 606 162 561 154 q 672 192 651 169 q 692 261 692 214 l 692 632 q 641 722 692 696 q 479 747 590 747 l 314 747 l 314 154 l 472 154 z "},"Đ":{"ha":940,"x_min":14,"x_max":908,"o":"m 481 901 q 731 877 639 901 q 865 793 822 853 q 908 628 908 733 l 908 261 q 868 102 908 158 q 736 23 828 46 q 482 0 644 0 l 97 0 l 97 394 l 14 394 l 14 535 l 97 535 l 97 901 l 481 901 m 692 632 q 641 722 692 696 q 479 747 590 747 l 314 747 l 314 535 l 483 535 l 483 394 l 314 394 l 314 154 l 472 154 q 606 162 561 154 q 672 192 651 169 q 692 261 692 214 l 692 632 z "},"E":{"ha":847,"x_min":97,"x_max":799,"o":"m 97 0 l 97 901 l 785 901 l 785 747 l 314 747 l 314 540 l 739 540 l 739 386 l 314 386 l 314 154 l 799 154 l 799 0 l 97 0 z "},"É":{"ha":847,"x_min":97,"x_max":799,"o":"m 97 0 l 97 901 l 785 901 l 785 747 l 314 747 l 314 540 l 739 540 l 739 386 l 314 386 l 314 154 l 799 154 l 799 0 l 97 0 m 354 990 l 479 1167 l 700 1167 l 526 990 l 354 990 z "},"Ĕ":{"ha":847,"x_min":97,"x_max":799,"o":"m 463 997 q 326 1045 378 997 q 271 1174 275 1093 l 383 1174 q 409 1115 392 1132 q 463 1097 426 1097 q 540 1174 532 1097 l 654 1174 q 597 1045 649 1093 q 463 997 546 997 m 97 0 l 97 901 l 785 901 l 785 747 l 314 747 l 314 540 l 739 540 l 739 386 l 314 386 l 314 154 l 799 154 l 799 0 l 97 0 z "},"Ě":{"ha":847,"x_min":97,"x_max":799,"o":"m 319 997 l 239 1174 l 375 1174 l 449 1053 l 521 1174 l 657 1174 l 579 997 l 319 997 m 97 0 l 97 901 l 785 901 l 785 747 l 314 747 l 314 540 l 739 540 l 739 386 l 314 386 l 314 154 l 799 154 l 799 0 l 97 0 z "},"Ê":{"ha":847,"x_min":97,"x_max":799,"o":"m 97 0 l 97 901 l 785 901 l 785 747 l 314 747 l 314 540 l 739 540 l 739 386 l 314 386 l 314 154 l 799 154 l 799 0 l 97 0 m 214 990 l 292 1167 l 551 1167 l 632 990 l 496 990 l 422 1111 l 350 990 l 214 990 z "},"Ế":{"ha":847,"x_min":97,"x_max":846,"o":"m 97 0 l 97 901 l 785 901 l 785 747 l 314 747 l 314 540 l 739 540 l 739 386 l 314 386 l 314 154 l 799 154 l 799 0 l 97 0 m 214 997 l 292 1174 l 551 1174 l 632 997 l 496 997 l 422 1118 l 350 997 l 214 997 m 610 1110 l 653 1243 l 846 1243 l 754 1110 l 610 1110 z "},"Ệ":{"ha":847,"x_min":97,"x_max":799,"o":"m 97 0 l 97 901 l 785 901 l 785 747 l 314 747 l 314 540 l 739 540 l 739 386 l 314 386 l 314 154 l 799 154 l 799 0 l 97 0 m 333 -247 l 333 -89 l 513 -89 l 513 -247 l 333 -247 m 214 990 l 292 1167 l 551 1167 l 632 990 l 496 990 l 422 1111 l 350 990 l 214 990 z "},"Ề":{"ha":847,"x_min":97,"x_max":801,"o":"m 97 0 l 97 901 l 785 901 l 785 747 l 314 747 l 314 540 l 739 540 l 739 386 l 314 386 l 314 154 l 799 154 l 799 0 l 97 0 m 214 997 l 292 1174 l 551 1174 l 632 997 l 496 997 l 422 1118 l 350 997 l 214 997 m 651 1124 l 564 1257 l 763 1257 l 801 1124 l 651 1124 z "},"Ể":{"ha":847,"x_min":97,"x_max":799,"o":"m 97 0 l 97 901 l 785 901 l 785 747 l 314 747 l 314 540 l 739 540 l 739 386 l 314 386 l 314 154 l 799 154 l 799 0 l 97 0 m 214 997 l 292 1174 l 551 1174 l 632 997 l 496 997 l 422 1118 l 350 997 l 214 997 m 625 1136 q 632 1167 625 1157 q 653 1188 639 1176 q 676 1213 671 1200 q 682 1243 682 1225 q 628 1289 682 1289 q 594 1286 608 1289 q 565 1279 579 1283 l 565 1369 q 626 1379 590 1379 q 747 1349 717 1379 q 778 1256 778 1319 q 774 1204 778 1221 q 756 1176 769 1188 q 738 1163 750 1172 q 721 1145 726 1154 q 715 1124 715 1136 l 625 1124 l 625 1136 z "},"Ễ":{"ha":847,"x_min":97,"x_max":799,"o":"m 97 0 l 97 901 l 785 901 l 785 747 l 314 747 l 314 540 l 739 540 l 739 386 l 314 386 l 314 154 l 799 154 l 799 0 l 97 0 m 214 997 l 292 1174 l 551 1174 l 632 997 l 496 997 l 422 1118 l 350 997 l 214 997 m 222 1251 q 267 1326 232 1290 q 349 1361 303 1361 q 435 1340 381 1361 q 510 1319 488 1319 q 567 1365 547 1319 l 624 1332 q 578 1255 613 1292 q 497 1218 543 1218 q 407 1242 465 1218 q 336 1264 353 1264 q 278 1218 296 1264 l 222 1251 z "},"Ë":{"ha":847,"x_min":97,"x_max":799,"o":"m 204 1014 l 204 1178 l 379 1178 l 379 1014 l 204 1014 m 468 1014 l 468 1178 l 643 1178 l 643 1014 l 468 1014 m 97 0 l 97 901 l 785 901 l 785 747 l 314 747 l 314 540 l 739 540 l 739 386 l 314 386 l 314 154 l 799 154 l 799 0 l 97 0 z "},"Ė":{"ha":847,"x_min":97,"x_max":799,"o":"m 350 1014 l 350 1174 l 553 1174 l 553 1014 l 350 1014 m 97 0 l 97 901 l 785 901 l 785 747 l 314 747 l 314 540 l 739 540 l 739 386 l 314 386 l 314 154 l 799 154 l 799 0 l 97 0 z "},"Ẹ":{"ha":847,"x_min":97,"x_max":799,"o":"m 97 0 l 97 901 l 785 901 l 785 747 l 314 747 l 314 540 l 739 540 l 739 386 l 314 386 l 314 154 l 799 154 l 799 0 l 97 0 m 333 -247 l 333 -89 l 513 -89 l 513 -247 l 333 -247 z "},"È":{"ha":847,"x_min":97,"x_max":799,"o":"m 97 0 l 97 901 l 785 901 l 785 747 l 314 747 l 314 540 l 739 540 l 739 386 l 314 386 l 314 154 l 799 154 l 799 0 l 97 0 m 367 990 l 193 1167 l 414 1167 l 539 990 l 367 990 z "},"Ẻ":{"ha":847,"x_min":97,"x_max":799,"o":"m 97 0 l 97 901 l 785 901 l 785 747 l 314 747 l 314 540 l 739 540 l 739 386 l 314 386 l 314 154 l 799 154 l 799 0 l 97 0 m 376 1036 q 383 1067 376 1057 q 404 1088 390 1076 q 428 1113 422 1100 q 433 1143 433 1125 q 379 1189 433 1189 q 345 1186 360 1189 q 317 1179 331 1183 l 317 1269 q 378 1279 342 1279 q 499 1249 468 1279 q 529 1156 529 1219 q 525 1104 529 1121 q 507 1076 521 1088 q 490 1063 501 1072 q 472 1045 478 1054 q 467 1024 467 1036 l 376 1024 l 376 1036 z "},"Ē":{"ha":847,"x_min":97,"x_max":799,"o":"m 231 1007 l 231 1131 l 617 1131 l 617 1007 l 231 1007 m 97 0 l 97 901 l 785 901 l 785 747 l 314 747 l 314 540 l 739 540 l 739 386 l 314 386 l 314 154 l 799 154 l 799 0 l 97 0 z "},"Ę":{"ha":847,"x_min":97,"x_max":799,"o":"m 746 0 q 704 -115 704 -65 q 716 -149 704 -137 q 757 -160 728 -160 q 799 -151 774 -160 l 799 -244 q 701 -258 771 -258 q 598 -232 632 -258 q 564 -147 564 -206 q 614 0 564 -78 l 97 0 l 97 901 l 785 901 l 785 747 l 314 747 l 314 540 l 739 540 l 739 386 l 314 386 l 314 154 l 799 154 l 799 0 l 746 0 z "},"Ẽ":{"ha":847,"x_min":97,"x_max":799,"o":"m 97 0 l 97 901 l 785 901 l 785 747 l 314 747 l 314 540 l 739 540 l 739 386 l 314 386 l 314 154 l 799 154 l 799 0 l 97 0 m 500 994 q 403 1024 464 994 l 344 1051 q 294 1010 296 1051 l 193 1010 q 235 1123 194 1089 q 354 1157 275 1157 q 446 1131 394 1157 q 507 1104 497 1104 q 553 1153 553 1104 l 653 1153 q 500 994 650 994 z "},"F":{"ha":847,"x_min":97,"x_max":799,"o":"m 97 0 l 97 901 l 799 901 l 799 747 l 314 747 l 314 526 l 753 526 l 753 372 l 314 372 l 314 0 l 97 0 z "},"G":{"ha":979,"x_min":78,"x_max":901,"o":"m 526 -14 q 389 -7 449 -14 q 271 17 329 0 q 168 62 208 33 q 103 136 128 90 q 78 247 78 185 l 78 622 q 106 745 78 690 q 181 832 133 800 q 287 882 225 861 q 408 910 349 903 q 529 915 458 915 q 896 886 721 915 l 896 722 q 529 761 735 761 q 294 625 294 761 l 294 263 q 358 168 294 196 q 549 140 421 140 q 694 161 617 140 l 694 371 l 547 371 l 547 513 l 901 513 l 901 44 q 724 3 832 19 q 526 -14 617 -14 z "},"Ğ":{"ha":890,"x_min":69,"x_max":821,"o":"m 482 976 q 360 1025 407 976 q 308 1153 313 1074 l 403 1153 q 428 1091 411 1110 q 482 1072 446 1072 q 560 1153 551 1072 l 654 1153 q 603 1024 649 1072 q 482 976 557 976 m 501 -14 q 390 -8 440 -14 q 282 13 340 -3 q 173 56 217 29 q 100 132 129 83 q 69 247 69 179 l 69 643 q 99 763 69 710 q 178 846 129 817 q 282 890 219 872 q 399 913 344 908 q 501 917 446 917 q 815 886 636 917 l 815 732 q 504 771 654 771 q 435 769 460 771 q 381 761 411 768 q 326 742 346 753 q 292 710 306 732 q 276 656 276 686 l 276 251 q 299 191 276 217 q 363 153 322 165 q 524 129 435 129 q 628 136 554 129 l 628 371 l 453 371 l 453 513 l 821 513 l 821 17 q 501 -14 672 -14 z "},"Ĝ":{"ha":890,"x_min":69,"x_max":821,"o":"m 267 976 l 344 1153 l 604 1153 l 685 976 l 549 976 l 475 1097 l 403 976 l 267 976 m 501 -14 q 390 -8 440 -14 q 282 13 340 -3 q 173 56 217 29 q 100 132 129 83 q 69 247 69 179 l 69 643 q 99 763 69 710 q 178 846 129 817 q 282 890 219 872 q 399 913 344 908 q 501 917 446 917 q 815 886 636 917 l 815 732 q 504 771 654 771 q 435 769 460 771 q 381 761 411 768 q 326 742 346 753 q 292 710 306 732 q 276 656 276 686 l 276 251 q 299 191 276 217 q 363 153 322 165 q 524 129 435 129 q 628 136 554 129 l 628 371 l 453 371 l 453 513 l 821 513 l 821 17 q 501 -14 672 -14 z "},"Ģ":{"ha":979,"x_min":78,"x_max":901,"o":"m 526 -14 q 389 -7 449 -14 q 271 17 329 0 q 168 62 208 33 q 103 136 128 90 q 78 247 78 185 l 78 622 q 106 745 78 690 q 181 832 133 800 q 287 882 225 861 q 408 910 349 903 q 529 915 458 915 q 896 886 721 915 l 896 722 q 529 761 735 761 q 294 625 294 761 l 294 263 q 358 168 294 196 q 549 140 421 140 q 694 161 617 140 l 694 371 l 547 371 l 547 513 l 901 513 l 901 44 q 724 3 832 19 q 526 -14 617 -14 m 365 -289 l 429 -64 l 614 -64 l 499 -289 l 365 -289 z "},"Ġ":{"ha":890,"x_min":69,"x_max":821,"o":"m 397 993 l 397 1153 l 600 1153 l 600 993 l 397 993 m 501 -14 q 390 -8 440 -14 q 282 13 340 -3 q 173 56 217 29 q 100 132 129 83 q 69 247 69 179 l 69 643 q 99 763 69 710 q 178 846 129 817 q 282 890 219 872 q 399 913 344 908 q 501 917 446 917 q 815 886 636 917 l 815 732 q 504 771 654 771 q 435 769 460 771 q 381 761 411 768 q 326 742 346 753 q 292 710 306 732 q 276 656 276 686 l 276 251 q 299 191 276 217 q 363 153 322 165 q 524 129 435 129 q 628 136 554 129 l 628 371 l 453 371 l 453 513 l 821 513 l 821 17 q 501 -14 672 -14 z "},"H":{"ha":1011,"x_min":97,"x_max":914,"o":"m 97 0 l 97 901 l 314 901 l 314 540 l 697 540 l 697 901 l 914 901 l 914 0 l 697 0 l 697 386 l 314 386 l 314 0 l 97 0 z "},"Ħ":{"ha":1011,"x_min":97,"x_max":914,"o":"m 97 0 l 97 901 l 314 901 l 314 674 l 697 674 l 697 901 l 914 901 l 914 0 l 697 0 l 697 289 l 314 289 l 314 0 l 97 0 m 314 431 l 697 431 l 697 532 l 314 532 l 314 431 z "},"Ĥ":{"ha":1011,"x_min":97,"x_max":914,"o":"m 296 997 l 374 1174 l 633 1174 l 714 997 l 578 997 l 504 1118 l 432 997 l 296 997 m 97 0 l 97 901 l 314 901 l 314 540 l 697 540 l 697 901 l 914 901 l 914 0 l 697 0 l 697 386 l 314 386 l 314 0 l 97 0 z "},"I":{"ha":411,"x_min":97,"x_max":314,"o":"m 97 0 l 97 901 l 314 901 l 314 0 l 97 0 z "},"Ĳ":{"ha":1029,"x_min":97,"x_max":935,"o":"m 97 0 l 97 901 l 314 901 l 314 0 l 97 0 m 625 -14 q 438 0 531 -14 l 438 158 q 608 140 536 140 q 718 239 718 140 l 718 901 l 935 901 l 935 246 q 858 45 935 104 q 625 -14 782 -14 z "},"Í":{"ha":411,"x_min":97,"x_max":482,"o":"m 97 0 l 97 901 l 314 901 l 314 0 l 97 0 m 136 990 l 261 1167 l 482 1167 l 308 990 l 136 990 z "},"Ĭ":{"ha":411,"x_min":14,"x_max":397,"o":"m 206 997 q 69 1045 121 997 q 14 1174 18 1093 l 126 1174 q 152 1115 135 1132 q 206 1097 169 1097 q 283 1174 275 1097 l 397 1174 q 340 1045 392 1093 q 206 997 289 997 m 97 0 l 97 901 l 314 901 l 314 0 l 97 0 z "},"Î":{"ha":411,"x_min":-3,"x_max":415,"o":"m -3 997 l 75 1174 l 335 1174 l 415 997 l 279 997 l 206 1118 l 133 997 l -3 997 m 97 0 l 97 901 l 314 901 l 314 0 l 97 0 z "},"Ï":{"ha":411,"x_min":-14,"x_max":425,"o":"m -14 1014 l -14 1178 l 161 1178 l 161 1014 l -14 1014 m 250 1014 l 250 1178 l 425 1178 l 425 1014 l 250 1014 m 97 0 l 97 901 l 314 901 l 314 0 l 97 0 z "},"İ":{"ha":411,"x_min":97,"x_max":314,"o":"m 104 1014 l 104 1174 l 307 1174 l 307 1014 l 104 1014 m 97 0 l 97 901 l 314 901 l 314 0 l 97 0 z "},"Ị":{"ha":411,"x_min":97,"x_max":314,"o":"m 97 0 l 97 901 l 314 901 l 314 0 l 97 0 m 115 -247 l 115 -89 l 294 -89 l 294 -247 l 115 -247 z "},"Ì":{"ha":411,"x_min":-25,"x_max":321,"o":"m 97 0 l 97 901 l 314 901 l 314 0 l 97 0 m 149 990 l -25 1167 l 196 1167 l 321 990 l 149 990 z "},"Ỉ":{"ha":411,"x_min":97,"x_max":314,"o":"m 97 0 l 97 901 l 314 901 l 314 0 l 97 0 m 158 1036 q 165 1067 158 1057 q 186 1088 172 1076 q 210 1113 204 1100 q 215 1143 215 1125 q 161 1189 215 1189 q 127 1186 142 1189 q 99 1179 113 1183 l 99 1269 q 160 1279 124 1279 q 281 1249 250 1279 q 311 1156 311 1219 q 307 1104 311 1121 q 289 1076 303 1088 q 272 1063 283 1072 q 254 1045 260 1054 q 249 1024 249 1036 l 158 1024 l 158 1036 z "},"Ī":{"ha":411,"x_min":13,"x_max":399,"o":"m 13 1007 l 13 1131 l 399 1131 l 399 1007 l 13 1007 m 97 0 l 97 901 l 314 901 l 314 0 l 97 0 z "},"Į":{"ha":411,"x_min":54,"x_max":314,"o":"m 192 -258 q 88 -232 122 -258 q 54 -147 54 -206 q 97 0 54 -65 l 97 901 l 314 901 l 314 0 q 230 -50 265 -17 q 194 -115 194 -83 q 206 -149 194 -137 q 247 -160 218 -160 q 289 -151 264 -160 l 289 -244 q 192 -258 261 -258 z "},"Ĩ":{"ha":411,"x_min":-25,"x_max":435,"o":"m 97 0 l 97 901 l 314 901 l 314 0 l 97 0 m 282 994 q 185 1024 246 994 l 126 1051 q 76 1010 78 1051 l -25 1010 q 17 1123 -24 1089 q 136 1157 57 1157 q 228 1131 176 1157 q 289 1104 279 1104 q 335 1153 335 1104 l 435 1153 q 282 994 432 994 z "},"J":{"ha":618,"x_min":26,"x_max":524,"o":"m 214 -14 q 26 0 119 -14 l 26 158 q 197 140 125 140 q 307 239 307 140 l 307 901 l 524 901 l 524 246 q 447 45 524 104 q 214 -14 371 -14 z "},"Ĵ":{"ha":618,"x_min":26,"x_max":624,"o":"m 206 997 l 283 1174 l 543 1174 l 624 997 l 488 997 l 414 1118 l 342 997 l 206 997 m 214 -14 q 26 0 119 -14 l 26 158 q 197 140 125 140 q 307 239 307 140 l 307 901 l 524 901 l 524 246 q 447 45 524 104 q 214 -14 371 -14 z "},"K":{"ha":947,"x_min":97,"x_max":949,"o":"m 97 0 l 97 901 l 314 901 l 314 0 l 97 0 m 685 0 l 319 478 l 657 901 l 911 901 l 569 482 l 949 0 l 685 0 z "},"Ķ":{"ha":947,"x_min":97,"x_max":949,"o":"m 97 0 l 97 901 l 314 901 l 314 0 l 97 0 m 685 0 l 319 478 l 657 901 l 911 901 l 569 482 l 949 0 l 685 0 m 349 -289 l 413 -64 l 597 -64 l 482 -289 l 349 -289 z "},"L":{"ha":806,"x_min":97,"x_max":757,"o":"m 97 0 l 97 901 l 314 901 l 314 154 l 757 154 l 757 0 l 97 0 z "},"Ĺ":{"ha":806,"x_min":97,"x_max":757,"o":"m 128 997 l 253 1174 l 474 1174 l 300 997 l 128 997 m 97 0 l 97 901 l 314 901 l 314 154 l 757 154 l 757 0 l 97 0 z "},"Ľ":{"ha":806,"x_min":97,"x_max":757,"o":"m 97 0 l 97 901 l 314 901 l 314 154 l 757 154 l 757 0 l 97 0 m 357 675 l 393 901 l 579 901 l 490 675 l 357 675 z "},"Ļ":{"ha":806,"x_min":97,"x_max":757,"o":"m 97 0 l 97 901 l 314 901 l 314 154 l 757 154 l 757 0 l 97 0 m 278 -289 l 342 -64 l 526 -64 l 411 -289 l 278 -289 z "},"Ŀ":{"ha":806,"x_min":97,"x_max":757,"o":"m 97 0 l 97 901 l 314 901 l 314 154 l 757 154 l 757 0 l 97 0 m 379 368 l 379 560 l 583 560 l 583 368 l 379 368 z "},"Ł":{"ha":806,"x_min":14,"x_max":757,"o":"m 97 0 l 97 333 l 14 310 l 14 456 l 97 479 l 97 901 l 314 901 l 314 542 l 494 594 l 494 449 l 314 396 l 314 154 l 757 154 l 757 0 l 97 0 z "},"M":{"ha":1235,"x_min":97,"x_max":1138,"o":"m 97 0 l 97 901 l 406 901 l 628 257 l 847 901 l 1138 901 l 1138 0 l 942 0 l 942 667 l 938 667 l 710 0 l 536 0 l 301 667 l 296 667 l 296 0 l 97 0 z "},"N":{"ha":1043,"x_min":97,"x_max":946,"o":"m 97 0 l 97 901 l 317 901 l 753 286 l 753 901 l 946 901 l 946 0 l 726 0 l 290 625 l 290 0 l 97 0 z "},"Ń":{"ha":1043,"x_min":97,"x_max":946,"o":"m 349 997 l 474 1174 l 694 1174 l 521 997 l 349 997 m 97 0 l 97 901 l 317 901 l 753 286 l 753 901 l 946 901 l 946 0 l 726 0 l 290 625 l 290 0 l 97 0 z "},"Ň":{"ha":1043,"x_min":97,"x_max":946,"o":"m 383 976 l 303 1153 l 439 1153 l 513 1032 l 585 1153 l 721 1153 l 643 976 l 383 976 m 97 0 l 97 901 l 317 901 l 753 286 l 753 901 l 946 901 l 946 0 l 726 0 l 290 625 l 290 0 l 97 0 z "},"Ņ":{"ha":1043,"x_min":97,"x_max":946,"o":"m 97 0 l 97 901 l 317 901 l 753 286 l 753 901 l 946 901 l 946 0 l 726 0 l 290 625 l 290 0 l 97 0 m 397 -289 l 461 -64 l 646 -64 l 531 -289 l 397 -289 z "},"Ŋ":{"ha":1043,"x_min":97,"x_max":946,"o":"m 713 -250 q 586 -243 625 -250 l 586 -119 q 658 -126 614 -126 q 713 -101 697 -126 q 729 -10 729 -76 l 729 0 l 290 625 l 290 0 l 97 0 l 97 901 l 317 901 l 753 286 l 753 901 l 946 901 l 946 -44 q 935 -136 946 -97 q 904 -197 924 -175 q 857 -231 888 -218 q 792 -246 826 -243 q 713 -250 761 -250 z "},"Ñ":{"ha":1043,"x_min":97,"x_max":946,"o":"m 321 1076 q 366 1151 331 1115 q 447 1186 401 1186 q 533 1165 479 1186 q 608 1144 586 1144 q 665 1190 647 1144 l 722 1157 q 676 1080 711 1117 q 596 1043 642 1043 q 506 1067 564 1043 q 435 1089 451 1089 q 376 1043 396 1089 l 321 1076 m 97 0 l 97 901 l 317 901 l 753 286 l 753 901 l 946 901 l 946 0 l 726 0 l 290 625 l 290 0 l 97 0 z "},"O":{"ha":1011,"x_min":78,"x_max":933,"o":"m 504 -14 q 366 -4 429 -14 q 235 29 303 6 q 119 110 161 54 q 78 247 78 167 l 78 642 q 108 761 78 708 q 185 844 138 814 q 288 889 226 871 q 401 911 349 907 q 504 915 450 915 q 615 910 568 915 q 721 890 663 906 q 831 843 788 871 q 903 765 874 815 q 933 642 933 714 l 933 247 q 894 118 933 172 q 785 36 854 64 q 504 -14 660 -14 m 507 140 q 584 144 553 140 q 649 157 615 147 q 699 190 682 167 q 717 247 717 213 l 717 643 q 665 734 717 707 q 506 761 614 761 q 346 735 397 761 q 294 643 294 708 l 294 247 q 313 190 294 213 q 365 157 331 167 q 430 144 399 147 q 507 140 461 140 z "},"Ó":{"ha":1011,"x_min":78,"x_max":933,"o":"m 504 -14 q 366 -4 429 -14 q 235 29 303 6 q 119 110 161 54 q 78 247 78 167 l 78 642 q 108 761 78 708 q 185 844 138 814 q 288 889 226 871 q 401 911 349 907 q 504 915 450 915 q 615 910 568 915 q 721 890 663 906 q 831 843 788 871 q 903 765 874 815 q 933 642 933 714 l 933 247 q 894 118 933 172 q 785 36 854 64 q 504 -14 660 -14 m 507 140 q 584 144 553 140 q 649 157 615 147 q 699 190 682 167 q 717 247 717 213 l 717 643 q 665 734 717 707 q 506 761 614 761 q 346 735 397 761 q 294 643 294 708 l 294 247 q 313 190 294 213 q 365 157 331 167 q 430 144 399 147 q 507 140 461 140 m 436 990 l 561 1167 l 782 1167 l 608 990 l 436 990 z "},"Ŏ":{"ha":1011,"x_min":78,"x_max":933,"o":"m 506 997 q 369 1045 421 997 q 314 1174 318 1093 l 426 1174 q 452 1115 435 1132 q 506 1097 469 1097 q 583 1174 575 1097 l 697 1174 q 640 1045 692 1093 q 506 997 589 997 m 504 -14 q 366 -4 429 -14 q 235 29 303 6 q 119 110 161 54 q 78 247 78 167 l 78 642 q 108 761 78 708 q 185 844 138 814 q 288 889 226 871 q 401 911 349 907 q 504 915 450 915 q 615 910 568 915 q 721 890 663 906 q 831 843 788 871 q 903 765 874 815 q 933 642 933 714 l 933 247 q 894 118 933 172 q 785 36 854 64 q 504 -14 660 -14 m 507 140 q 584 144 553 140 q 649 157 615 147 q 699 190 682 167 q 717 247 717 213 l 717 643 q 665 734 717 707 q 506 761 614 761 q 346 735 397 761 q 294 643 294 708 l 294 247 q 313 190 294 213 q 365 157 331 167 q 430 144 399 147 q 507 140 461 140 z "},"Ô":{"ha":1011,"x_min":78,"x_max":933,"o":"m 504 -14 q 366 -4 429 -14 q 235 29 303 6 q 119 110 161 54 q 78 247 78 167 l 78 642 q 108 761 78 708 q 185 844 138 814 q 288 889 226 871 q 401 911 349 907 q 504 915 450 915 q 615 910 568 915 q 721 890 663 906 q 831 843 788 871 q 903 765 874 815 q 933 642 933 714 l 933 247 q 894 118 933 172 q 785 36 854 64 q 504 -14 660 -14 m 507 140 q 584 144 553 140 q 649 157 615 147 q 699 190 682 167 q 717 247 717 213 l 717 643 q 665 734 717 707 q 506 761 614 761 q 346 735 397 761 q 294 643 294 708 l 294 247 q 313 190 294 213 q 365 157 331 167 q 430 144 399 147 q 507 140 461 140 m 296 990 l 374 1167 l 633 1167 l 714 990 l 578 990 l 504 1111 l 432 990 l 296 990 z "},"Ố":{"ha":1011,"x_min":78,"x_max":933,"o":"m 504 -14 q 366 -4 429 -14 q 235 29 303 6 q 119 110 161 54 q 78 247 78 167 l 78 642 q 108 761 78 708 q 185 844 138 814 q 288 889 226 871 q 401 911 349 907 q 504 915 450 915 q 615 910 568 915 q 721 890 663 906 q 831 843 788 871 q 903 765 874 815 q 933 642 933 714 l 933 247 q 894 118 933 172 q 785 36 854 64 q 504 -14 660 -14 m 507 140 q 584 144 553 140 q 649 157 615 147 q 699 190 682 167 q 717 247 717 213 l 717 643 q 665 734 717 707 q 506 761 614 761 q 346 735 397 761 q 294 643 294 708 l 294 247 q 313 190 294 213 q 365 157 331 167 q 430 144 399 147 q 507 140 461 140 m 296 997 l 374 1174 l 633 1174 l 714 997 l 578 997 l 504 1118 l 432 997 l 296 997 m 692 1110 l 735 1243 l 928 1243 l 836 1110 l 692 1110 z "},"Ộ":{"ha":1011,"x_min":78,"x_max":933,"o":"m 504 -14 q 366 -4 429 -14 q 235 29 303 6 q 119 110 161 54 q 78 247 78 167 l 78 642 q 108 761 78 708 q 185 844 138 814 q 288 889 226 871 q 401 911 349 907 q 504 915 450 915 q 615 910 568 915 q 721 890 663 906 q 831 843 788 871 q 903 765 874 815 q 933 642 933 714 l 933 247 q 894 118 933 172 q 785 36 854 64 q 504 -14 660 -14 m 507 140 q 584 144 553 140 q 649 157 615 147 q 699 190 682 167 q 717 247 717 213 l 717 643 q 665 734 717 707 q 506 761 614 761 q 346 735 397 761 q 294 643 294 708 l 294 247 q 313 190 294 213 q 365 157 331 167 q 430 144 399 147 q 507 140 461 140 m 415 -247 l 415 -89 l 594 -89 l 594 -247 l 415 -247 m 296 990 l 374 1167 l 633 1167 l 714 990 l 578 990 l 504 1111 l 432 990 l 296 990 z "},"Ồ":{"ha":1011,"x_min":78,"x_max":933,"o":"m 504 -14 q 366 -4 429 -14 q 235 29 303 6 q 119 110 161 54 q 78 247 78 167 l 78 642 q 108 761 78 708 q 185 844 138 814 q 288 889 226 871 q 401 911 349 907 q 504 915 450 915 q 615 910 568 915 q 721 890 663 906 q 831 843 788 871 q 903 765 874 815 q 933 642 933 714 l 933 247 q 894 118 933 172 q 785 36 854 64 q 504 -14 660 -14 m 507 140 q 584 144 553 140 q 649 157 615 147 q 699 190 682 167 q 717 247 717 213 l 717 643 q 665 734 717 707 q 506 761 614 761 q 346 735 397 761 q 294 643 294 708 l 294 247 q 313 190 294 213 q 365 157 331 167 q 430 144 399 147 q 507 140 461 140 m 296 997 l 374 1174 l 633 1174 l 714 997 l 578 997 l 504 1118 l 432 997 l 296 997 m 733 1124 l 646 1257 l 844 1257 l 883 1124 l 733 1124 z "},"Ổ":{"ha":1011,"x_min":78,"x_max":933,"o":"m 504 -14 q 366 -4 429 -14 q 235 29 303 6 q 119 110 161 54 q 78 247 78 167 l 78 642 q 108 761 78 708 q 185 844 138 814 q 288 889 226 871 q 401 911 349 907 q 504 915 450 915 q 615 910 568 915 q 721 890 663 906 q 831 843 788 871 q 903 765 874 815 q 933 642 933 714 l 933 247 q 894 118 933 172 q 785 36 854 64 q 504 -14 660 -14 m 507 140 q 584 144 553 140 q 649 157 615 147 q 699 190 682 167 q 717 247 717 213 l 717 643 q 665 734 717 707 q 506 761 614 761 q 346 735 397 761 q 294 643 294 708 l 294 247 q 313 190 294 213 q 365 157 331 167 q 430 144 399 147 q 507 140 461 140 m 296 997 l 374 1174 l 633 1174 l 714 997 l 578 997 l 504 1118 l 432 997 l 296 997 m 707 1136 q 714 1167 707 1157 q 735 1188 721 1176 q 758 1213 753 1200 q 764 1243 764 1225 q 710 1289 764 1289 q 676 1286 690 1289 q 647 1279 661 1283 l 647 1369 q 708 1379 672 1379 q 829 1349 799 1379 q 860 1256 860 1319 q 856 1204 860 1221 q 838 1176 851 1188 q 820 1163 832 1172 q 803 1145 808 1154 q 797 1124 797 1136 l 707 1124 l 707 1136 z "},"Ỗ":{"ha":1011,"x_min":78,"x_max":933,"o":"m 504 -14 q 366 -4 429 -14 q 235 29 303 6 q 119 110 161 54 q 78 247 78 167 l 78 642 q 108 761 78 708 q 185 844 138 814 q 288 889 226 871 q 401 911 349 907 q 504 915 450 915 q 615 910 568 915 q 721 890 663 906 q 831 843 788 871 q 903 765 874 815 q 933 642 933 714 l 933 247 q 894 118 933 172 q 785 36 854 64 q 504 -14 660 -14 m 507 140 q 584 144 553 140 q 649 157 615 147 q 699 190 682 167 q 717 247 717 213 l 717 643 q 665 734 717 707 q 506 761 614 761 q 346 735 397 761 q 294 643 294 708 l 294 247 q 313 190 294 213 q 365 157 331 167 q 430 144 399 147 q 507 140 461 140 m 296 997 l 374 1174 l 633 1174 l 714 997 l 578 997 l 504 1118 l 432 997 l 296 997 m 304 1251 q 349 1326 314 1290 q 431 1361 385 1361 q 517 1340 463 1361 q 592 1319 569 1319 q 649 1365 629 1319 l 706 1332 q 660 1255 694 1292 q 579 1218 625 1218 q 489 1242 547 1218 q 418 1264 435 1264 q 360 1218 378 1264 l 304 1251 z "},"Ö":{"ha":1011,"x_min":78,"x_max":933,"o":"m 286 1014 l 286 1178 l 461 1178 l 461 1014 l 286 1014 m 550 1014 l 550 1178 l 725 1178 l 725 1014 l 550 1014 m 504 -14 q 366 -4 429 -14 q 235 29 303 6 q 119 110 161 54 q 78 247 78 167 l 78 642 q 108 761 78 708 q 185 844 138 814 q 288 889 226 871 q 401 911 349 907 q 504 915 450 915 q 615 910 568 915 q 721 890 663 906 q 831 843 788 871 q 903 765 874 815 q 933 642 933 714 l 933 247 q 894 118 933 172 q 785 36 854 64 q 504 -14 660 -14 m 507 140 q 584 144 553 140 q 649 157 615 147 q 699 190 682 167 q 717 247 717 213 l 717 643 q 665 734 717 707 q 506 761 614 761 q 346 735 397 761 q 294 643 294 708 l 294 247 q 313 190 294 213 q 365 157 331 167 q 430 144 399 147 q 507 140 461 140 z "},"Ọ":{"ha":1011,"x_min":78,"x_max":933,"o":"m 504 -14 q 366 -4 429 -14 q 235 29 303 6 q 119 110 161 54 q 78 247 78 167 l 78 642 q 108 761 78 708 q 185 844 138 814 q 288 889 226 871 q 401 911 349 907 q 504 915 450 915 q 615 910 568 915 q 721 890 663 906 q 831 843 788 871 q 903 765 874 815 q 933 642 933 714 l 933 247 q 894 118 933 172 q 785 36 854 64 q 504 -14 660 -14 m 507 140 q 584 144 553 140 q 649 157 615 147 q 699 190 682 167 q 717 247 717 213 l 717 643 q 665 734 717 707 q 506 761 614 761 q 346 735 397 761 q 294 643 294 708 l 294 247 q 313 190 294 213 q 365 157 331 167 q 430 144 399 147 q 507 140 461 140 m 415 -247 l 415 -89 l 594 -89 l 594 -247 l 415 -247 z "},"Ò":{"ha":1011,"x_min":78,"x_max":933,"o":"m 504 -14 q 366 -4 429 -14 q 235 29 303 6 q 119 110 161 54 q 78 247 78 167 l 78 642 q 108 761 78 708 q 185 844 138 814 q 288 889 226 871 q 401 911 349 907 q 504 915 450 915 q 615 910 568 915 q 721 890 663 906 q 831 843 788 871 q 903 765 874 815 q 933 642 933 714 l 933 247 q 894 118 933 172 q 785 36 854 64 q 504 -14 660 -14 m 507 140 q 584 144 553 140 q 649 157 615 147 q 699 190 682 167 q 717 247 717 213 l 717 643 q 665 734 717 707 q 506 761 614 761 q 346 735 397 761 q 294 643 294 708 l 294 247 q 313 190 294 213 q 365 157 331 167 q 430 144 399 147 q 507 140 461 140 m 449 990 l 275 1167 l 496 1167 l 621 990 l 449 990 z "},"Ỏ":{"ha":1011,"x_min":78,"x_max":933,"o":"m 504 -14 q 366 -4 429 -14 q 235 29 303 6 q 119 110 161 54 q 78 247 78 167 l 78 642 q 108 761 78 708 q 185 844 138 814 q 288 889 226 871 q 401 911 349 907 q 504 915 450 915 q 615 910 568 915 q 721 890 663 906 q 831 843 788 871 q 903 765 874 815 q 933 642 933 714 l 933 247 q 894 118 933 172 q 785 36 854 64 q 504 -14 660 -14 m 507 140 q 584 144 553 140 q 649 157 615 147 q 699 190 682 167 q 717 247 717 213 l 717 643 q 665 734 717 707 q 506 761 614 761 q 346 735 397 761 q 294 643 294 708 l 294 247 q 313 190 294 213 q 365 157 331 167 q 430 144 399 147 q 507 140 461 140 m 458 1036 q 465 1067 458 1057 q 486 1088 472 1076 q 510 1113 504 1100 q 515 1143 515 1125 q 461 1189 515 1189 q 427 1186 442 1189 q 399 1179 413 1183 l 399 1269 q 460 1279 424 1279 q 581 1249 550 1279 q 611 1156 611 1219 q 607 1104 611 1121 q 589 1076 603 1088 q 572 1063 583 1072 q 554 1045 560 1054 q 549 1024 549 1036 l 458 1024 l 458 1036 z "},"Ơ":{"ha":1011,"x_min":78,"x_max":933,"o":"m 903 765 q 933 642 933 714 l 933 247 q 894 118 933 172 q 785 36 854 64 q 504 -14 660 -14 q 366 -4 429 -14 q 235 29 303 6 q 119 110 161 54 q 78 247 78 167 l 78 642 q 108 761 78 708 q 185 844 138 814 q 288 889 226 871 q 401 911 349 907 q 504 915 450 915 q 671 901 606 915 q 738 913 717 903 q 766 947 758 922 q 774 1024 774 971 l 931 1022 q 917 894 931 942 q 864 817 904 846 q 903 765 889 789 m 717 643 q 665 734 717 707 q 506 761 614 761 q 346 735 397 761 q 294 643 294 708 l 294 247 q 313 190 294 213 q 365 157 331 167 q 430 144 399 147 q 507 140 461 140 q 584 144 553 140 q 649 157 615 147 q 699 190 682 167 q 717 247 717 213 l 717 643 z "},"Ớ":{"ha":1011,"x_min":78,"x_max":933,"o":"m 903 765 q 933 642 933 714 l 933 247 q 894 118 933 172 q 785 36 854 64 q 504 -14 660 -14 q 366 -4 429 -14 q 235 29 303 6 q 119 110 161 54 q 78 247 78 167 l 78 642 q 108 761 78 708 q 185 844 138 814 q 288 889 226 871 q 401 911 349 907 q 504 915 450 915 q 671 901 606 915 q 738 913 717 903 q 766 947 758 922 q 774 1024 774 971 l 931 1022 q 917 894 931 942 q 864 817 904 846 q 903 765 889 789 m 717 643 q 665 734 717 707 q 506 761 614 761 q 346 735 397 761 q 294 643 294 708 l 294 247 q 313 190 294 213 q 365 157 331 167 q 430 144 399 147 q 507 140 461 140 q 584 144 553 140 q 649 157 615 147 q 699 190 682 167 q 717 247 717 213 l 717 643 m 436 990 l 561 1167 l 782 1167 l 608 990 l 436 990 z "},"Ợ":{"ha":1011,"x_min":78,"x_max":933,"o":"m 903 765 q 933 642 933 714 l 933 247 q 894 118 933 172 q 785 36 854 64 q 504 -14 660 -14 q 366 -4 429 -14 q 235 29 303 6 q 119 110 161 54 q 78 247 78 167 l 78 642 q 108 761 78 708 q 185 844 138 814 q 288 889 226 871 q 401 911 349 907 q 504 915 450 915 q 671 901 606 915 q 738 913 717 903 q 766 947 758 922 q 774 1024 774 971 l 931 1022 q 917 894 931 942 q 864 817 904 846 q 903 765 889 789 m 717 643 q 665 734 717 707 q 506 761 614 761 q 346 735 397 761 q 294 643 294 708 l 294 247 q 313 190 294 213 q 365 157 331 167 q 430 144 399 147 q 507 140 461 140 q 584 144 553 140 q 649 157 615 147 q 699 190 682 167 q 717 247 717 213 l 717 643 m 415 -247 l 415 -89 l 594 -89 l 594 -247 l 415 -247 z "},"Ờ":{"ha":1011,"x_min":78,"x_max":933,"o":"m 903 765 q 933 642 933 714 l 933 247 q 894 118 933 172 q 785 36 854 64 q 504 -14 660 -14 q 366 -4 429 -14 q 235 29 303 6 q 119 110 161 54 q 78 247 78 167 l 78 642 q 108 761 78 708 q 185 844 138 814 q 288 889 226 871 q 401 911 349 907 q 504 915 450 915 q 671 901 606 915 q 738 913 717 903 q 766 947 758 922 q 774 1024 774 971 l 931 1022 q 917 894 931 942 q 864 817 904 846 q 903 765 889 789 m 717 643 q 665 734 717 707 q 506 761 614 761 q 346 735 397 761 q 294 643 294 708 l 294 247 q 313 190 294 213 q 365 157 331 167 q 430 144 399 147 q 507 140 461 140 q 584 144 553 140 q 649 157 615 147 q 699 190 682 167 q 717 247 717 213 l 717 643 m 449 990 l 275 1167 l 496 1167 l 621 990 l 449 990 z "},"Ở":{"ha":1011,"x_min":78,"x_max":933,"o":"m 903 765 q 933 642 933 714 l 933 247 q 894 118 933 172 q 785 36 854 64 q 504 -14 660 -14 q 366 -4 429 -14 q 235 29 303 6 q 119 110 161 54 q 78 247 78 167 l 78 642 q 108 761 78 708 q 185 844 138 814 q 288 889 226 871 q 401 911 349 907 q 504 915 450 915 q 671 901 606 915 q 738 913 717 903 q 766 947 758 922 q 774 1024 774 971 l 931 1022 q 917 894 931 942 q 864 817 904 846 q 903 765 889 789 m 717 643 q 665 734 717 707 q 506 761 614 761 q 346 735 397 761 q 294 643 294 708 l 294 247 q 313 190 294 213 q 365 157 331 167 q 430 144 399 147 q 507 140 461 140 q 584 144 553 140 q 649 157 615 147 q 699 190 682 167 q 717 247 717 213 l 717 643 m 458 1036 q 465 1067 458 1057 q 486 1088 472 1076 q 510 1113 504 1100 q 515 1143 515 1125 q 461 1189 515 1189 q 427 1186 442 1189 q 399 1179 413 1183 l 399 1269 q 460 1279 424 1279 q 581 1249 550 1279 q 611 1156 611 1219 q 607 1104 611 1121 q 589 1076 603 1088 q 572 1063 583 1072 q 554 1045 560 1054 q 549 1024 549 1036 l 458 1024 l 458 1036 z "},"Ỡ":{"ha":1011,"x_min":78,"x_max":933,"o":"m 903 765 q 933 642 933 714 l 933 247 q 894 118 933 172 q 785 36 854 64 q 504 -14 660 -14 q 366 -4 429 -14 q 235 29 303 6 q 119 110 161 54 q 78 247 78 167 l 78 642 q 108 761 78 708 q 185 844 138 814 q 288 889 226 871 q 401 911 349 907 q 504 915 450 915 q 671 901 606 915 q 738 913 717 903 q 766 947 758 922 q 774 1024 774 971 l 931 1022 q 917 894 931 942 q 864 817 904 846 q 903 765 889 789 m 717 643 q 665 734 717 707 q 506 761 614 761 q 346 735 397 761 q 294 643 294 708 l 294 247 q 313 190 294 213 q 365 157 331 167 q 430 144 399 147 q 507 140 461 140 q 584 144 553 140 q 649 157 615 147 q 699 190 682 167 q 717 247 717 213 l 717 643 m 582 994 q 485 1024 546 994 l 426 1051 q 376 1010 378 1051 l 275 1010 q 317 1123 276 1089 q 436 1157 357 1157 q 528 1131 476 1157 q 589 1104 579 1104 q 635 1153 635 1104 l 735 1153 q 582 994 732 994 z "},"Ő":{"ha":1011,"x_min":78,"x_max":933,"o":"m 288 996 l 385 1174 l 518 1174 l 421 996 l 288 996 m 492 996 l 589 1174 l 722 1174 l 625 996 l 492 996 m 504 -14 q 366 -4 429 -14 q 235 29 303 6 q 119 110 161 54 q 78 247 78 167 l 78 642 q 108 761 78 708 q 185 844 138 814 q 288 889 226 871 q 401 911 349 907 q 504 915 450 915 q 615 910 568 915 q 721 890 663 906 q 831 843 788 871 q 903 765 874 815 q 933 642 933 714 l 933 247 q 894 118 933 172 q 785 36 854 64 q 504 -14 660 -14 m 507 140 q 584 144 553 140 q 649 157 615 147 q 699 190 682 167 q 717 247 717 213 l 717 643 q 665 734 717 707 q 506 761 614 761 q 346 735 397 761 q 294 643 294 708 l 294 247 q 313 190 294 213 q 365 157 331 167 q 430 144 399 147 q 507 140 461 140 z "},"Ō":{"ha":1011,"x_min":78,"x_max":933,"o":"m 313 1007 l 313 1131 l 699 1131 l 699 1007 l 313 1007 m 504 -14 q 366 -4 429 -14 q 235 29 303 6 q 119 110 161 54 q 78 247 78 167 l 78 642 q 108 761 78 708 q 185 844 138 814 q 288 889 226 871 q 401 911 349 907 q 504 915 450 915 q 615 910 568 915 q 721 890 663 906 q 831 843 788 871 q 903 765 874 815 q 933 642 933 714 l 933 247 q 894 118 933 172 q 785 36 854 64 q 504 -14 660 -14 m 507 140 q 584 144 553 140 q 649 157 615 147 q 699 190 682 167 q 717 247 717 213 l 717 643 q 665 734 717 707 q 506 761 614 761 q 346 735 397 761 q 294 643 294 708 l 294 247 q 313 190 294 213 q 365 157 331 167 q 430 144 399 147 q 507 140 461 140 z "},"Ø":{"ha":1011,"x_min":78,"x_max":933,"o":"m 504 -14 q 366 -4 429 -14 q 235 29 303 6 q 119 110 161 54 q 78 247 78 167 l 78 642 q 108 761 78 708 q 185 844 138 814 q 288 889 226 871 q 401 911 349 907 q 504 915 450 915 q 615 910 568 915 q 721 890 663 906 q 831 843 788 871 q 903 765 874 815 q 933 642 933 714 l 933 247 q 894 118 933 172 q 785 36 854 64 q 504 -14 660 -14 m 650 740 q 506 761 603 761 q 346 735 397 761 q 294 643 294 708 l 294 263 l 650 740 m 507 140 q 584 144 553 140 q 649 157 615 147 q 699 190 682 167 q 717 247 717 213 l 717 643 l 356 160 q 507 140 406 140 z "},"Õ":{"ha":1011,"x_min":78,"x_max":933,"o":"m 504 -14 q 366 -4 429 -14 q 235 29 303 6 q 119 110 161 54 q 78 247 78 167 l 78 642 q 108 761 78 708 q 185 844 138 814 q 288 889 226 871 q 401 911 349 907 q 504 915 450 915 q 615 910 568 915 q 721 890 663 906 q 831 843 788 871 q 903 765 874 815 q 933 642 933 714 l 933 247 q 894 118 933 172 q 785 36 854 64 q 504 -14 660 -14 m 507 140 q 584 144 553 140 q 649 157 615 147 q 699 190 682 167 q 717 247 717 213 l 717 643 q 665 734 717 707 q 506 761 614 761 q 346 735 397 761 q 294 643 294 708 l 294 247 q 313 190 294 213 q 365 157 331 167 q 430 144 399 147 q 507 140 461 140 m 582 994 q 485 1024 546 994 l 426 1051 q 376 1010 378 1051 l 275 1010 q 317 1123 276 1089 q 436 1157 357 1157 q 528 1131 476 1157 q 589 1104 579 1104 q 635 1153 635 1104 l 735 1153 q 582 994 732 994 z "},"Œ":{"ha":1356,"x_min":78,"x_max":1307,"o":"m 453 0 q 78 261 78 0 l 78 628 q 481 901 78 901 l 1293 901 l 1293 747 l 846 747 l 846 540 l 1247 540 l 1247 386 l 846 386 l 846 154 l 1307 154 l 1307 0 l 453 0 m 633 154 l 633 747 l 496 747 q 423 744 450 747 q 361 732 396 742 q 285 629 285 711 l 285 261 q 365 168 285 185 q 428 157 403 160 q 497 154 453 154 l 633 154 z "},"P":{"ha":871,"x_min":97,"x_max":815,"o":"m 97 901 l 458 901 q 667 883 590 901 q 780 820 744 865 q 815 694 815 775 l 815 524 q 777 385 815 435 q 656 314 739 335 q 433 293 574 293 l 314 293 l 314 0 l 97 0 l 97 901 m 451 442 q 571 462 536 442 q 606 531 606 482 l 606 675 q 572 733 606 719 q 449 747 540 747 l 314 747 l 314 442 l 451 442 z "},"Þ":{"ha":871,"x_min":97,"x_max":815,"o":"m 97 901 l 314 901 l 314 749 l 458 749 q 596 741 539 749 q 706 714 653 733 q 815 549 815 671 l 815 376 q 433 146 815 146 l 314 146 l 314 0 l 97 0 l 97 901 m 451 289 q 606 376 606 289 l 606 542 q 574 596 606 583 q 449 607 540 607 l 314 607 l 314 289 l 451 289 z "},"Q":{"ha":1028,"x_min":78,"x_max":1017,"o":"m 504 -14 q 366 -4 429 -14 q 235 29 303 6 q 119 110 161 54 q 78 247 78 167 l 78 642 q 108 761 78 708 q 185 844 138 814 q 288 889 226 871 q 401 911 349 907 q 504 915 450 915 q 615 910 568 915 q 721 890 663 906 q 831 843 788 871 q 903 765 874 815 q 933 642 933 714 l 933 396 q 819 156 933 190 l 1017 156 l 1017 0 l 721 0 q 626 -7 706 0 q 504 -14 547 -14 m 507 140 q 584 144 553 140 q 649 157 615 147 q 699 190 682 167 q 717 247 717 213 l 717 643 q 665 734 717 707 q 506 761 614 761 q 346 735 397 761 q 294 643 294 708 l 294 247 q 313 190 294 213 q 365 157 331 167 q 430 144 399 147 q 507 140 461 140 z "},"R":{"ha":928,"x_min":97,"x_max":900,"o":"m 97 901 l 503 901 q 764 858 683 901 q 844 711 844 814 l 844 553 q 788 428 844 474 q 639 371 732 383 l 900 0 l 650 0 l 414 354 l 314 354 l 314 0 l 97 0 l 97 901 m 500 497 q 604 517 576 497 q 632 596 632 538 l 632 660 q 602 728 632 710 q 500 747 572 747 l 314 747 l 314 497 l 500 497 z "},"Ŕ":{"ha":928,"x_min":167,"x_max":969,"o":"m 290 997 l 415 1174 l 636 1174 l 463 997 l 290 997 m 167 901 l 572 901 q 833 858 753 901 q 914 711 914 814 l 914 553 q 858 428 914 474 q 708 371 801 383 l 969 0 l 719 0 l 483 354 l 383 354 l 383 0 l 167 0 l 167 901 m 569 497 q 674 517 646 497 q 701 596 701 538 l 701 660 q 672 728 701 710 q 569 747 642 747 l 383 747 l 383 497 l 569 497 z "},"Ř":{"ha":928,"x_min":167,"x_max":969,"o":"m 335 997 l 254 1174 l 390 1174 l 464 1053 l 536 1174 l 672 1174 l 594 997 l 335 997 m 167 901 l 572 901 q 833 858 753 901 q 914 711 914 814 l 914 553 q 858 428 914 474 q 708 371 801 383 l 969 0 l 719 0 l 483 354 l 383 354 l 383 0 l 167 0 l 167 901 m 569 497 q 674 517 646 497 q 701 596 701 538 l 701 660 q 672 728 701 710 q 569 747 642 747 l 383 747 l 383 497 l 569 497 z "},"Ŗ":{"ha":928,"x_min":167,"x_max":969,"o":"m 167 901 l 572 901 q 833 858 753 901 q 914 711 914 814 l 914 553 q 858 428 914 474 q 708 371 801 383 l 969 0 l 719 0 l 483 354 l 383 354 l 383 0 l 167 0 l 167 901 m 569 497 q 674 517 646 497 q 701 596 701 538 l 701 660 q 672 728 701 710 q 569 747 642 747 l 383 747 l 383 497 l 569 497 m 339 -289 l 403 -64 l 588 -64 l 472 -289 l 339 -289 z "},"S":{"ha":842,"x_min":51,"x_max":789,"o":"m 389 -14 q 69 11 260 -14 l 69 176 q 392 140 306 140 q 572 233 572 140 l 572 292 q 547 360 572 336 q 454 383 521 383 l 349 383 q 51 619 51 383 l 51 686 q 150 860 51 804 q 463 915 249 915 q 744 897 574 915 l 744 736 q 456 761 535 761 q 308 743 346 761 q 268 682 268 724 l 268 618 q 388 547 268 547 l 496 547 q 719 490 650 547 q 789 317 789 433 l 789 257 q 674 39 789 96 q 551 -2 618 10 q 389 -14 483 -14 z "},"Ś":{"ha":842,"x_min":51,"x_max":789,"o":"m 247 997 l 372 1174 l 593 1174 l 419 997 l 247 997 m 389 -14 q 69 11 260 -14 l 69 176 q 392 140 306 140 q 572 233 572 140 l 572 292 q 547 360 572 336 q 454 383 521 383 l 349 383 q 51 619 51 383 l 51 686 q 150 860 51 804 q 463 915 249 915 q 744 897 574 915 l 744 736 q 456 761 535 761 q 308 743 346 761 q 268 682 268 724 l 268 618 q 388 547 268 547 l 496 547 q 719 490 650 547 q 789 317 789 433 l 789 257 q 674 39 789 96 q 551 -2 618 10 q 389 -14 483 -14 z "},"Š":{"ha":842,"x_min":51,"x_max":789,"o":"m 292 997 l 211 1174 l 347 1174 l 421 1053 l 493 1174 l 629 1174 l 551 997 l 292 997 m 389 -14 q 69 11 260 -14 l 69 176 q 392 140 306 140 q 572 233 572 140 l 572 292 q 547 360 572 336 q 454 383 521 383 l 349 383 q 51 619 51 383 l 51 686 q 150 860 51 804 q 463 915 249 915 q 744 897 574 915 l 744 736 q 456 761 535 761 q 308 743 346 761 q 268 682 268 724 l 268 618 q 388 547 268 547 l 496 547 q 719 490 650 547 q 789 317 789 433 l 789 257 q 674 39 789 96 q 551 -2 618 10 q 389 -14 483 -14 z "},"Ş":{"ha":842,"x_min":51,"x_max":789,"o":"m 496 547 q 719 490 650 547 q 789 317 789 433 l 789 257 q 674 39 789 96 q 474 -11 592 -3 l 432 -69 q 530 -101 493 -74 q 567 -179 567 -128 q 518 -272 567 -239 q 400 -306 469 -306 q 274 -274 322 -306 l 304 -210 q 390 -235 346 -235 q 456 -186 456 -235 q 351 -133 456 -133 l 296 -133 q 340 -67 297 -129 l 376 -14 q 69 11 250 -11 l 69 176 q 392 140 306 140 q 572 233 572 140 l 572 292 q 547 360 572 336 q 454 383 521 383 l 349 383 q 51 619 51 383 l 51 686 q 150 860 51 804 q 463 915 249 915 q 744 897 574 915 l 744 736 q 456 761 535 761 q 308 743 346 761 q 268 682 268 724 l 268 618 q 388 547 268 547 l 496 547 z "},"Ŝ":{"ha":842,"x_min":51,"x_max":789,"o":"m 211 997 l 289 1174 l 549 1174 l 629 997 l 493 997 l 419 1118 l 347 997 l 211 997 m 389 -14 q 69 11 260 -14 l 69 176 q 392 140 306 140 q 572 233 572 140 l 572 292 q 547 360 572 336 q 454 383 521 383 l 349 383 q 51 619 51 383 l 51 686 q 150 860 51 804 q 463 915 249 915 q 744 897 574 915 l 744 736 q 456 761 535 761 q 308 743 346 761 q 268 682 268 724 l 268 618 q 388 547 268 547 l 496 547 q 719 490 650 547 q 789 317 789 433 l 789 257 q 674 39 789 96 q 551 -2 618 10 q 389 -14 483 -14 z "},"Ș":{"ha":842,"x_min":51,"x_max":789,"o":"m 389 -14 q 69 11 260 -14 l 69 176 q 392 140 306 140 q 572 233 572 140 l 572 292 q 547 360 572 336 q 454 383 521 383 l 349 383 q 51 619 51 383 l 51 686 q 150 860 51 804 q 463 915 249 915 q 744 897 574 915 l 744 736 q 456 761 535 761 q 308 743 346 761 q 268 682 268 724 l 268 618 q 388 547 268 547 l 496 547 q 719 490 650 547 q 789 317 789 433 l 789 257 q 674 39 789 96 q 551 -2 618 10 q 389 -14 483 -14 m 290 -272 l 354 -64 l 539 -64 l 424 -272 l 290 -272 z "},"T":{"ha":826,"x_min":28,"x_max":799,"o":"m 306 0 l 306 747 l 28 747 l 28 901 l 799 901 l 799 747 l 522 747 l 522 0 l 306 0 z "},"Ŧ":{"ha":826,"x_min":28,"x_max":799,"o":"m 306 0 l 306 390 l 150 390 l 150 528 l 306 528 l 306 747 l 28 747 l 28 901 l 799 901 l 799 747 l 522 747 l 522 528 l 672 528 l 672 390 l 522 390 l 522 0 l 306 0 z "},"Ť":{"ha":826,"x_min":28,"x_max":799,"o":"m 285 997 l 204 1174 l 340 1174 l 414 1053 l 486 1174 l 622 1174 l 544 997 l 285 997 m 306 0 l 306 747 l 28 747 l 28 901 l 799 901 l 799 747 l 522 747 l 522 0 l 306 0 z "},"Ț":{"ha":824,"x_min":28,"x_max":799,"o":"m 306 0 l 306 747 l 28 747 l 28 901 l 799 901 l 799 747 l 522 747 l 522 0 l 306 0 m 261 -268 l 325 -60 l 510 -60 l 394 -268 l 261 -268 z "},"U":{"ha":971,"x_min":94,"x_max":876,"o":"m 485 -14 q 94 247 94 -14 l 94 901 l 311 901 l 311 247 q 351 163 311 186 q 488 140 390 140 q 622 163 583 140 q 660 247 660 186 l 660 901 l 876 901 l 876 247 q 485 -14 876 -14 z "},"Ú":{"ha":971,"x_min":94,"x_max":876,"o":"m 485 -14 q 94 247 94 -14 l 94 901 l 311 901 l 311 247 q 351 163 311 186 q 488 140 390 140 q 622 163 583 140 q 660 247 660 186 l 660 901 l 876 901 l 876 247 q 485 -14 876 -14 m 417 990 l 542 1167 l 763 1167 l 589 990 l 417 990 z "},"Ŭ":{"ha":971,"x_min":94,"x_max":876,"o":"m 485 997 q 349 1045 400 997 q 293 1174 297 1093 l 406 1174 q 431 1115 414 1132 q 485 1097 449 1097 q 563 1174 554 1097 l 676 1174 q 619 1045 671 1093 q 485 997 568 997 m 485 -14 q 94 247 94 -14 l 94 901 l 311 901 l 311 247 q 351 163 311 186 q 488 140 390 140 q 622 163 583 140 q 660 247 660 186 l 660 901 l 876 901 l 876 247 q 485 -14 876 -14 z "},"Û":{"ha":971,"x_min":94,"x_max":876,"o":"m 276 997 l 354 1174 l 614 1174 l 694 997 l 558 997 l 485 1118 l 413 997 l 276 997 m 485 -14 q 94 247 94 -14 l 94 901 l 311 901 l 311 247 q 351 163 311 186 q 488 140 390 140 q 622 163 583 140 q 660 247 660 186 l 660 901 l 876 901 l 876 247 q 485 -14 876 -14 z "},"Ü":{"ha":971,"x_min":94,"x_max":876,"o":"m 265 1014 l 265 1178 l 440 1178 l 440 1014 l 265 1014 m 529 1014 l 529 1178 l 704 1178 l 704 1014 l 529 1014 m 485 -14 q 94 247 94 -14 l 94 901 l 311 901 l 311 247 q 351 163 311 186 q 488 140 390 140 q 622 163 583 140 q 660 247 660 186 l 660 901 l 876 901 l 876 247 q 485 -14 876 -14 z "},"Ụ":{"ha":971,"x_min":94,"x_max":876,"o":"m 485 -14 q 94 247 94 -14 l 94 901 l 311 901 l 311 247 q 351 163 311 186 q 488 140 390 140 q 622 163 583 140 q 660 247 660 186 l 660 901 l 876 901 l 876 247 q 485 -14 876 -14 m 396 -247 l 396 -89 l 575 -89 l 575 -247 l 396 -247 z "},"Ù":{"ha":971,"x_min":94,"x_max":876,"o":"m 485 -14 q 94 247 94 -14 l 94 901 l 311 901 l 311 247 q 351 163 311 186 q 488 140 390 140 q 622 163 583 140 q 660 247 660 186 l 660 901 l 876 901 l 876 247 q 485 -14 876 -14 m 429 990 l 256 1167 l 476 1167 l 601 990 l 429 990 z "},"Ủ":{"ha":971,"x_min":94,"x_max":876,"o":"m 485 -14 q 94 247 94 -14 l 94 901 l 311 901 l 311 247 q 351 163 311 186 q 488 140 390 140 q 622 163 583 140 q 660 247 660 186 l 660 901 l 876 901 l 876 247 q 485 -14 876 -14 m 439 1036 q 446 1067 439 1057 q 467 1088 453 1076 q 490 1113 485 1100 q 496 1143 496 1125 q 442 1189 496 1189 q 408 1186 422 1189 q 379 1179 393 1183 l 379 1269 q 440 1279 404 1279 q 561 1249 531 1279 q 592 1156 592 1219 q 588 1104 592 1121 q 569 1076 583 1088 q 552 1063 564 1072 q 535 1045 540 1054 q 529 1024 529 1036 l 439 1024 l 439 1036 z "},"Ư":{"ha":971,"x_min":94,"x_max":1032,"o":"m 1032 1022 q 1022 903 1032 949 q 977 826 1011 857 q 876 781 943 794 l 876 247 q 485 -14 876 -14 q 94 247 94 -14 l 94 901 l 311 901 l 311 247 q 351 163 311 186 q 488 140 390 140 q 622 163 583 140 q 660 247 660 186 l 660 901 l 742 901 q 830 909 804 901 q 865 941 856 917 q 875 1024 875 965 l 1032 1022 z "},"Ứ":{"ha":971,"x_min":94,"x_max":1032,"o":"m 1032 1022 q 1022 903 1032 949 q 977 826 1011 857 q 876 781 943 794 l 876 247 q 485 -14 876 -14 q 94 247 94 -14 l 94 901 l 311 901 l 311 247 q 351 163 311 186 q 488 140 390 140 q 622 163 583 140 q 660 247 660 186 l 660 901 l 742 901 q 830 909 804 901 q 865 941 856 917 q 875 1024 875 965 l 1032 1022 m 417 990 l 542 1167 l 763 1167 l 589 990 l 417 990 z "},"Ự":{"ha":971,"x_min":94,"x_max":1032,"o":"m 1032 1022 q 1022 903 1032 949 q 977 826 1011 857 q 876 781 943 794 l 876 247 q 485 -14 876 -14 q 94 247 94 -14 l 94 901 l 311 901 l 311 247 q 351 163 311 186 q 488 140 390 140 q 622 163 583 140 q 660 247 660 186 l 660 901 l 742 901 q 830 909 804 901 q 865 941 856 917 q 875 1024 875 965 l 1032 1022 m 396 -247 l 396 -89 l 575 -89 l 575 -247 l 396 -247 z "},"Ừ":{"ha":971,"x_min":94,"x_max":1032,"o":"m 1032 1022 q 1022 903 1032 949 q 977 826 1011 857 q 876 781 943 794 l 876 247 q 485 -14 876 -14 q 94 247 94 -14 l 94 901 l 311 901 l 311 247 q 351 163 311 186 q 488 140 390 140 q 622 163 583 140 q 660 247 660 186 l 660 901 l 742 901 q 830 909 804 901 q 865 941 856 917 q 875 1024 875 965 l 1032 1022 m 429 990 l 256 1167 l 476 1167 l 601 990 l 429 990 z "},"Ử":{"ha":971,"x_min":94,"x_max":1032,"o":"m 1032 1022 q 1022 903 1032 949 q 977 826 1011 857 q 876 781 943 794 l 876 247 q 485 -14 876 -14 q 94 247 94 -14 l 94 901 l 311 901 l 311 247 q 351 163 311 186 q 488 140 390 140 q 622 163 583 140 q 660 247 660 186 l 660 901 l 742 901 q 830 909 804 901 q 865 941 856 917 q 875 1024 875 965 l 1032 1022 m 439 1036 q 446 1067 439 1057 q 467 1088 453 1076 q 490 1113 485 1100 q 496 1143 496 1125 q 442 1189 496 1189 q 408 1186 422 1189 q 379 1179 393 1183 l 379 1269 q 440 1279 404 1279 q 561 1249 531 1279 q 592 1156 592 1219 q 588 1104 592 1121 q 569 1076 583 1088 q 552 1063 564 1072 q 535 1045 540 1054 q 529 1024 529 1036 l 439 1024 l 439 1036 z "},"Ữ":{"ha":971,"x_min":94,"x_max":1032,"o":"m 1032 1022 q 1022 903 1032 949 q 977 826 1011 857 q 876 781 943 794 l 876 247 q 485 -14 876 -14 q 94 247 94 -14 l 94 901 l 311 901 l 311 247 q 351 163 311 186 q 488 140 390 140 q 622 163 583 140 q 660 247 660 186 l 660 901 l 742 901 q 830 909 804 901 q 865 941 856 917 q 875 1024 875 965 l 1032 1022 m 563 994 q 465 1024 526 994 l 407 1051 q 357 1010 358 1051 l 256 1010 q 297 1123 257 1089 q 417 1157 338 1157 q 508 1131 457 1157 q 569 1104 560 1104 q 615 1153 615 1104 l 715 1153 q 563 994 713 994 z "},"Ű":{"ha":971,"x_min":94,"x_max":876,"o":"m 268 996 l 365 1174 l 499 1174 l 401 996 l 268 996 m 472 996 l 569 1174 l 703 1174 l 606 996 l 472 996 m 485 -14 q 94 247 94 -14 l 94 901 l 311 901 l 311 247 q 351 163 311 186 q 488 140 390 140 q 622 163 583 140 q 660 247 660 186 l 660 901 l 876 901 l 876 247 q 485 -14 876 -14 z "},"Ū":{"ha":971,"x_min":94,"x_max":876,"o":"m 292 1007 l 292 1131 l 678 1131 l 678 1007 l 292 1007 m 485 -14 q 94 247 94 -14 l 94 901 l 311 901 l 311 247 q 351 163 311 186 q 488 140 390 140 q 622 163 583 140 q 660 247 660 186 l 660 901 l 876 901 l 876 247 q 485 -14 876 -14 z "},"Ų":{"ha":976,"x_min":97,"x_max":879,"o":"m 521 -258 q 417 -232 451 -258 q 383 -147 383 -206 q 425 -11 383 -82 q 97 247 97 8 l 97 901 l 304 901 l 304 242 q 348 159 304 183 q 490 135 392 135 q 631 158 589 135 q 672 242 672 182 l 672 901 l 879 901 l 879 247 q 557 -11 879 11 q 524 -115 524 -64 q 535 -149 524 -137 q 576 -160 547 -160 q 618 -151 593 -160 l 618 -244 q 521 -258 590 -258 z "},"Ů":{"ha":971,"x_min":94,"x_max":876,"o":"m 485 997 q 402 1001 432 997 q 342 1017 372 1004 q 278 1133 278 1040 l 278 1150 q 289 1217 278 1189 q 318 1261 300 1246 q 363 1283 333 1275 q 419 1293 392 1292 q 485 1294 436 1294 q 555 1293 532 1294 q 606 1283 578 1292 q 651 1260 635 1275 q 681 1218 668 1246 q 692 1150 692 1189 l 692 1133 q 629 1017 692 1040 q 567 1001 597 1004 q 485 997 538 997 m 485 1069 q 563 1080 543 1069 q 582 1124 582 1090 l 582 1161 q 575 1201 582 1189 q 549 1218 568 1214 q 485 1222 529 1222 q 421 1218 440 1222 q 394 1201 401 1214 q 388 1161 388 1189 l 388 1124 q 407 1080 388 1090 q 485 1069 426 1069 m 485 -14 q 94 247 94 -14 l 94 901 l 311 901 l 311 247 q 351 163 311 186 q 488 140 390 140 q 622 163 583 140 q 660 247 660 186 l 660 901 l 876 901 l 876 247 q 485 -14 876 -14 z "},"Ũ":{"ha":971,"x_min":94,"x_max":876,"o":"m 485 -14 q 94 247 94 -14 l 94 901 l 311 901 l 311 247 q 351 163 311 186 q 488 140 390 140 q 622 163 583 140 q 660 247 660 186 l 660 901 l 876 901 l 876 247 q 485 -14 876 -14 m 563 994 q 465 1024 526 994 l 407 1051 q 357 1010 358 1051 l 256 1010 q 297 1123 257 1089 q 417 1157 338 1157 q 508 1131 457 1157 q 569 1104 560 1104 q 615 1153 615 1104 l 715 1153 q 563 994 713 994 z "},"V":{"ha":922,"x_min":0,"x_max":922,"o":"m 324 0 l 0 901 l 219 901 l 461 181 l 467 181 l 708 901 l 922 901 l 589 0 l 324 0 z "},"W":{"ha":1368,"x_min":11,"x_max":1357,"o":"m 290 0 l 11 901 l 236 901 l 411 243 l 586 901 l 788 901 l 976 243 l 1138 901 l 1357 901 l 1068 0 l 854 0 l 682 654 l 504 0 l 290 0 z "},"Ẃ":{"ha":1368,"x_min":11,"x_max":1357,"o":"m 511 997 l 636 1174 l 857 1174 l 683 997 l 511 997 m 290 0 l 11 901 l 236 901 l 411 243 l 586 901 l 788 901 l 976 243 l 1138 901 l 1357 901 l 1068 0 l 854 0 l 682 654 l 504 0 l 290 0 z "},"Ŵ":{"ha":1368,"x_min":11,"x_max":1357,"o":"m 475 997 l 553 1174 l 813 1174 l 893 997 l 757 997 l 683 1118 l 611 997 l 475 997 m 290 0 l 11 901 l 236 901 l 411 243 l 586 901 l 788 901 l 976 243 l 1138 901 l 1357 901 l 1068 0 l 854 0 l 682 654 l 504 0 l 290 0 z "},"Ẅ":{"ha":1368,"x_min":11,"x_max":1357,"o":"m 464 1014 l 464 1178 l 639 1178 l 639 1014 l 464 1014 m 728 1014 l 728 1178 l 903 1178 l 903 1014 l 728 1014 m 290 0 l 11 901 l 236 901 l 411 243 l 586 901 l 788 901 l 976 243 l 1138 901 l 1357 901 l 1068 0 l 854 0 l 682 654 l 504 0 l 290 0 z "},"Ẁ":{"ha":1368,"x_min":11,"x_max":1357,"o":"m 685 997 l 511 1174 l 732 1174 l 857 997 l 685 997 m 290 0 l 11 901 l 236 901 l 411 243 l 586 901 l 788 901 l 976 243 l 1138 901 l 1357 901 l 1068 0 l 854 0 l 682 654 l 504 0 l 290 0 z "},"X":{"ha":940,"x_min":14,"x_max":928,"o":"m 14 0 l 346 460 l 28 901 l 278 901 l 471 601 l 663 901 l 913 901 l 594 460 l 928 0 l 676 0 l 471 319 l 264 0 l 14 0 z "},"Y":{"ha":894,"x_min":11,"x_max":883,"o":"m 338 0 l 338 361 l 11 901 l 257 901 l 447 549 l 636 901 l 883 901 l 554 364 l 554 0 l 338 0 z "},"Ý":{"ha":894,"x_min":11,"x_max":883,"o":"m 338 0 l 338 361 l 11 901 l 257 901 l 447 549 l 636 901 l 883 901 l 554 364 l 554 0 l 338 0 m 378 990 l 503 1167 l 724 1167 l 550 990 l 378 990 z "},"Ŷ":{"ha":894,"x_min":11,"x_max":883,"o":"m 238 997 l 315 1174 l 575 1174 l 656 997 l 519 997 l 446 1118 l 374 997 l 238 997 m 338 0 l 338 361 l 11 901 l 257 901 l 447 549 l 636 901 l 883 901 l 554 364 l 554 0 l 338 0 z "},"Ÿ":{"ha":894,"x_min":11,"x_max":883,"o":"m 228 1014 l 228 1178 l 403 1178 l 403 1014 l 228 1014 m 492 1014 l 492 1178 l 667 1178 l 667 1014 l 492 1014 m 338 0 l 338 361 l 11 901 l 257 901 l 447 549 l 636 901 l 883 901 l 554 364 l 554 0 l 338 0 z "},"Ỵ":{"ha":894,"x_min":11,"x_max":883,"o":"m 338 0 l 338 361 l 11 901 l 257 901 l 447 549 l 636 901 l 883 901 l 554 364 l 554 0 l 338 0 m 357 -247 l 357 -89 l 536 -89 l 536 -247 l 357 -247 z "},"Ỳ":{"ha":894,"x_min":11,"x_max":883,"o":"m 338 0 l 338 361 l 11 901 l 257 901 l 447 549 l 636 901 l 883 901 l 554 364 l 554 0 l 338 0 m 390 990 l 217 1167 l 438 1167 l 563 990 l 390 990 z "},"Ỷ":{"ha":894,"x_min":11,"x_max":883,"o":"m 338 0 l 338 361 l 11 901 l 257 901 l 447 549 l 636 901 l 883 901 l 554 364 l 554 0 l 338 0 m 400 1036 q 407 1067 400 1057 q 428 1088 414 1076 q 451 1113 446 1100 q 457 1143 457 1125 q 403 1189 457 1189 q 369 1186 383 1189 q 340 1179 354 1183 l 340 1269 q 401 1279 365 1279 q 522 1249 492 1279 q 553 1156 553 1219 q 549 1104 553 1121 q 531 1076 544 1088 q 513 1063 525 1072 q 496 1045 501 1054 q 490 1024 490 1036 l 400 1024 l 400 1036 z "},"Ỹ":{"ha":894,"x_min":11,"x_max":883,"o":"m 338 0 l 338 361 l 11 901 l 257 901 l 447 549 l 636 901 l 883 901 l 554 364 l 554 0 l 338 0 m 524 994 q 426 1024 488 994 l 368 1051 q 318 1010 319 1051 l 217 1010 q 258 1123 218 1089 q 378 1157 299 1157 q 469 1131 418 1157 q 531 1104 521 1104 q 576 1153 576 1104 l 676 1153 q 524 994 674 994 z "},"Z":{"ha":850,"x_min":56,"x_max":800,"o":"m 56 0 l 56 132 l 525 747 l 69 747 l 69 901 l 792 901 l 792 771 l 322 156 l 800 156 l 800 0 l 56 0 z "},"Ź":{"ha":850,"x_min":56,"x_max":800,"o":"m 251 997 l 376 1174 l 597 1174 l 424 997 l 251 997 m 56 0 l 56 132 l 525 747 l 69 747 l 69 901 l 792 901 l 792 771 l 322 156 l 800 156 l 800 0 l 56 0 z "},"Ž":{"ha":850,"x_min":56,"x_max":800,"o":"m 296 997 l 215 1174 l 351 1174 l 425 1053 l 497 1174 l 633 1174 l 556 997 l 296 997 m 56 0 l 56 132 l 525 747 l 69 747 l 69 901 l 792 901 l 792 771 l 322 156 l 800 156 l 800 0 l 56 0 z "},"Ż":{"ha":850,"x_min":56,"x_max":800,"o":"m 324 1014 l 324 1174 l 526 1174 l 526 1014 l 324 1014 m 56 0 l 56 132 l 525 747 l 69 747 l 69 901 l 792 901 l 792 771 l 322 156 l 800 156 l 800 0 l 56 0 z "},"a":{"ha":783,"x_min":54,"x_max":694,"o":"m 279 -14 q 138 3 185 -14 q 73 66 92 21 q 54 201 54 111 q 74 328 54 282 q 140 394 94 374 q 264 414 185 414 l 492 414 l 492 460 q 480 524 492 503 q 437 553 468 544 q 343 561 406 561 q 107 544 257 561 l 107 672 q 364 686 217 686 q 563 667 493 686 q 664 600 633 647 q 694 463 694 553 l 694 0 l 496 0 l 496 61 q 432 4 472 21 q 279 -14 392 -14 m 358 113 q 446 117 419 113 q 473 125 465 119 q 486 143 481 131 q 492 172 492 153 l 492 303 l 353 303 q 286 297 306 303 q 260 272 267 290 q 253 206 253 253 q 260 142 253 160 q 287 118 267 124 q 358 113 307 113 z "},"á":{"ha":783,"x_min":54,"x_max":694,"o":"m 279 -14 q 138 3 185 -14 q 73 66 92 21 q 54 201 54 111 q 74 328 54 282 q 140 394 94 374 q 264 414 185 414 l 492 414 l 492 460 q 480 524 492 503 q 437 553 468 544 q 343 561 406 561 q 107 544 257 561 l 107 672 q 364 686 217 686 q 563 667 493 686 q 664 600 633 647 q 694 463 694 553 l 694 0 l 496 0 l 496 61 q 432 4 472 21 q 279 -14 392 -14 m 358 113 q 446 117 419 113 q 473 125 465 119 q 486 143 481 131 q 492 172 492 153 l 492 303 l 353 303 q 286 297 306 303 q 260 272 267 290 q 253 206 253 253 q 260 142 253 160 q 287 118 267 124 q 358 113 307 113 m 315 768 l 440 944 l 661 944 l 488 768 l 315 768 z "},"ă":{"ha":783,"x_min":54,"x_max":694,"o":"m 279 -14 q 138 3 185 -14 q 73 66 92 21 q 54 201 54 111 q 74 328 54 282 q 140 394 94 374 q 264 414 185 414 l 492 414 l 492 460 q 480 524 492 503 q 437 553 468 544 q 343 561 406 561 q 107 544 257 561 l 107 672 q 364 686 217 686 q 563 667 493 686 q 664 600 633 647 q 694 463 694 553 l 694 0 l 496 0 l 496 61 q 432 4 472 21 q 279 -14 392 -14 m 358 113 q 446 117 419 113 q 473 125 465 119 q 486 143 481 131 q 492 172 492 153 l 492 303 l 353 303 q 286 297 306 303 q 260 272 267 290 q 253 206 253 253 q 260 142 253 160 q 287 118 267 124 q 358 113 307 113 m 392 768 q 256 816 307 768 q 200 944 204 864 l 313 944 q 338 885 321 903 q 392 868 356 868 q 469 944 461 868 l 583 944 q 526 816 578 864 q 392 768 475 768 z "},"ắ":{"ha":783,"x_min":54,"x_max":694,"o":"m 279 -14 q 138 3 185 -14 q 73 66 92 21 q 54 201 54 111 q 74 328 54 282 q 140 394 94 374 q 264 414 185 414 l 492 414 l 492 460 q 480 524 492 503 q 437 553 468 544 q 343 561 406 561 q 107 544 257 561 l 107 672 q 364 686 217 686 q 563 667 493 686 q 664 600 633 647 q 694 463 694 553 l 694 0 l 496 0 l 496 61 q 432 4 472 21 q 279 -14 392 -14 m 358 113 q 446 117 419 113 q 473 125 465 119 q 486 143 481 131 q 492 172 492 153 l 492 303 l 353 303 q 286 297 306 303 q 260 272 267 290 q 253 206 253 253 q 260 142 253 160 q 287 118 267 124 q 358 113 307 113 m 392 768 q 256 816 307 768 q 200 944 204 864 l 313 944 q 338 885 321 903 q 392 868 356 868 q 469 944 461 868 l 583 944 q 526 816 578 864 q 392 768 475 768 m 306 989 l 349 1122 l 542 1122 l 450 989 l 306 989 z "},"ặ":{"ha":783,"x_min":54,"x_max":694,"o":"m 279 -14 q 138 3 185 -14 q 73 66 92 21 q 54 201 54 111 q 74 328 54 282 q 140 394 94 374 q 264 414 185 414 l 492 414 l 492 460 q 480 524 492 503 q 437 553 468 544 q 343 561 406 561 q 107 544 257 561 l 107 672 q 364 686 217 686 q 563 667 493 686 q 664 600 633 647 q 694 463 694 553 l 694 0 l 496 0 l 496 61 q 432 4 472 21 q 279 -14 392 -14 m 358 113 q 446 117 419 113 q 473 125 465 119 q 486 143 481 131 q 492 172 492 153 l 492 303 l 353 303 q 286 297 306 303 q 260 272 267 290 q 253 206 253 253 q 260 142 253 160 q 287 118 267 124 q 358 113 307 113 m 301 -247 l 301 -89 l 481 -89 l 481 -247 l 301 -247 m 392 768 q 256 816 307 768 q 200 944 204 864 l 313 944 q 338 885 321 903 q 392 868 356 868 q 469 944 461 868 l 583 944 q 526 816 578 864 q 392 768 475 768 z "},"ằ":{"ha":783,"x_min":54,"x_max":694,"o":"m 279 -14 q 138 3 185 -14 q 73 66 92 21 q 54 201 54 111 q 74 328 54 282 q 140 394 94 374 q 264 414 185 414 l 492 414 l 492 460 q 480 524 492 503 q 437 553 468 544 q 343 561 406 561 q 107 544 257 561 l 107 672 q 364 686 217 686 q 563 667 493 686 q 664 600 633 647 q 694 463 694 553 l 694 0 l 496 0 l 496 61 q 432 4 472 21 q 279 -14 392 -14 m 358 113 q 446 117 419 113 q 473 125 465 119 q 486 143 481 131 q 492 172 492 153 l 492 303 l 353 303 q 286 297 306 303 q 260 272 267 290 q 253 206 253 253 q 260 142 253 160 q 287 118 267 124 q 358 113 307 113 m 392 768 q 256 816 307 768 q 200 944 204 864 l 313 944 q 338 885 321 903 q 392 868 356 868 q 469 944 461 868 l 583 944 q 526 816 578 864 q 392 768 475 768 m 321 988 l 233 1121 l 432 1121 l 471 988 l 321 988 z "},"ẳ":{"ha":783,"x_min":54,"x_max":694,"o":"m 279 -14 q 138 3 185 -14 q 73 66 92 21 q 54 201 54 111 q 74 328 54 282 q 140 394 94 374 q 264 414 185 414 l 492 414 l 492 460 q 480 524 492 503 q 437 553 468 544 q 343 561 406 561 q 107 544 257 561 l 107 672 q 364 686 217 686 q 563 667 493 686 q 664 600 633 647 q 694 463 694 553 l 694 0 l 496 0 l 496 61 q 432 4 472 21 q 279 -14 392 -14 m 358 113 q 446 117 419 113 q 473 125 465 119 q 486 143 481 131 q 492 172 492 153 l 492 303 l 353 303 q 286 297 306 303 q 260 272 267 290 q 253 206 253 253 q 260 142 253 160 q 287 118 267 124 q 358 113 307 113 m 392 768 q 256 816 307 768 q 200 944 204 864 l 313 944 q 338 885 321 903 q 392 868 356 868 q 469 944 461 868 l 583 944 q 526 816 578 864 q 392 768 475 768 m 344 989 q 351 1019 344 1010 q 372 1040 358 1029 q 396 1065 390 1053 q 401 1096 401 1078 q 347 1142 401 1142 q 313 1139 328 1142 q 285 1132 299 1136 l 285 1222 q 346 1232 310 1232 q 467 1202 436 1232 q 497 1108 497 1172 q 493 1057 497 1074 q 475 1029 489 1040 q 458 1016 469 1025 q 440 998 446 1007 q 435 976 435 989 l 344 976 l 344 989 z "},"ẵ":{"ha":783,"x_min":54,"x_max":694,"o":"m 279 -14 q 138 3 185 -14 q 73 66 92 21 q 54 201 54 111 q 74 328 54 282 q 140 394 94 374 q 264 414 185 414 l 492 414 l 492 460 q 480 524 492 503 q 437 553 468 544 q 343 561 406 561 q 107 544 257 561 l 107 672 q 364 686 217 686 q 563 667 493 686 q 664 600 633 647 q 694 463 694 553 l 694 0 l 496 0 l 496 61 q 432 4 472 21 q 279 -14 392 -14 m 358 113 q 446 117 419 113 q 473 125 465 119 q 486 143 481 131 q 492 172 492 153 l 492 303 l 353 303 q 286 297 306 303 q 260 272 267 290 q 253 206 253 253 q 260 142 253 160 q 287 118 267 124 q 358 113 307 113 m 392 768 q 256 816 307 768 q 200 944 204 864 l 313 944 q 338 885 321 903 q 392 868 356 868 q 469 944 461 868 l 583 944 q 526 816 578 864 q 392 768 475 768 m 203 1026 q 248 1101 213 1065 q 329 1136 283 1136 q 415 1115 361 1136 q 490 1094 468 1094 q 547 1140 528 1094 l 604 1107 q 558 1030 593 1067 q 478 993 524 993 q 388 1017 446 993 q 317 1039 333 1039 q 258 993 276 1039 l 203 1026 z "},"â":{"ha":783,"x_min":54,"x_max":694,"o":"m 279 -14 q 138 3 185 -14 q 73 66 92 21 q 54 201 54 111 q 74 328 54 282 q 140 394 94 374 q 264 414 185 414 l 492 414 l 492 460 q 480 524 492 503 q 437 553 468 544 q 343 561 406 561 q 107 544 257 561 l 107 672 q 364 686 217 686 q 563 667 493 686 q 664 600 633 647 q 694 463 694 553 l 694 0 l 496 0 l 496 61 q 432 4 472 21 q 279 -14 392 -14 m 358 113 q 446 117 419 113 q 473 125 465 119 q 486 143 481 131 q 492 172 492 153 l 492 303 l 353 303 q 286 297 306 303 q 260 272 267 290 q 253 206 253 253 q 260 142 253 160 q 287 118 267 124 q 358 113 307 113 m 182 768 l 260 944 l 519 944 l 600 768 l 464 768 l 390 889 l 318 768 l 182 768 z "},"ấ":{"ha":783,"x_min":54,"x_max":814,"o":"m 279 -14 q 138 3 185 -14 q 73 66 92 21 q 54 201 54 111 q 74 328 54 282 q 140 394 94 374 q 264 414 185 414 l 492 414 l 492 460 q 480 524 492 503 q 437 553 468 544 q 343 561 406 561 q 107 544 257 561 l 107 672 q 364 686 217 686 q 563 667 493 686 q 664 600 633 647 q 694 463 694 553 l 694 0 l 496 0 l 496 61 q 432 4 472 21 q 279 -14 392 -14 m 358 113 q 446 117 419 113 q 473 125 465 119 q 486 143 481 131 q 492 172 492 153 l 492 303 l 353 303 q 286 297 306 303 q 260 272 267 290 q 253 206 253 253 q 260 142 253 160 q 287 118 267 124 q 358 113 307 113 m 182 768 l 260 944 l 519 944 l 600 768 l 464 768 l 390 889 l 318 768 l 182 768 m 578 881 l 621 1014 l 814 1014 l 722 881 l 578 881 z "},"ậ":{"ha":783,"x_min":54,"x_max":694,"o":"m 279 -14 q 138 3 185 -14 q 73 66 92 21 q 54 201 54 111 q 74 328 54 282 q 140 394 94 374 q 264 414 185 414 l 492 414 l 492 460 q 480 524 492 503 q 437 553 468 544 q 343 561 406 561 q 107 544 257 561 l 107 672 q 364 686 217 686 q 563 667 493 686 q 664 600 633 647 q 694 463 694 553 l 694 0 l 496 0 l 496 61 q 432 4 472 21 q 279 -14 392 -14 m 358 113 q 446 117 419 113 q 473 125 465 119 q 486 143 481 131 q 492 172 492 153 l 492 303 l 353 303 q 286 297 306 303 q 260 272 267 290 q 253 206 253 253 q 260 142 253 160 q 287 118 267 124 q 358 113 307 113 m 301 -247 l 301 -89 l 481 -89 l 481 -247 l 301 -247 m 182 768 l 260 944 l 519 944 l 600 768 l 464 768 l 390 889 l 318 768 l 182 768 z "},"ầ":{"ha":783,"x_min":54,"x_max":769,"o":"m 279 -14 q 138 3 185 -14 q 73 66 92 21 q 54 201 54 111 q 74 328 54 282 q 140 394 94 374 q 264 414 185 414 l 492 414 l 492 460 q 480 524 492 503 q 437 553 468 544 q 343 561 406 561 q 107 544 257 561 l 107 672 q 364 686 217 686 q 563 667 493 686 q 664 600 633 647 q 694 463 694 553 l 694 0 l 496 0 l 496 61 q 432 4 472 21 q 279 -14 392 -14 m 358 113 q 446 117 419 113 q 473 125 465 119 q 486 143 481 131 q 492 172 492 153 l 492 303 l 353 303 q 286 297 306 303 q 260 272 267 290 q 253 206 253 253 q 260 142 253 160 q 287 118 267 124 q 358 113 307 113 m 182 768 l 260 944 l 519 944 l 600 768 l 464 768 l 390 889 l 318 768 l 182 768 m 619 894 l 532 1028 l 731 1028 l 769 894 l 619 894 z "},"ẩ":{"ha":783,"x_min":54,"x_max":746,"o":"m 279 -14 q 138 3 185 -14 q 73 66 92 21 q 54 201 54 111 q 74 328 54 282 q 140 394 94 374 q 264 414 185 414 l 492 414 l 492 460 q 480 524 492 503 q 437 553 468 544 q 343 561 406 561 q 107 544 257 561 l 107 672 q 364 686 217 686 q 563 667 493 686 q 664 600 633 647 q 694 463 694 553 l 694 0 l 496 0 l 496 61 q 432 4 472 21 q 279 -14 392 -14 m 358 113 q 446 117 419 113 q 473 125 465 119 q 486 143 481 131 q 492 172 492 153 l 492 303 l 353 303 q 286 297 306 303 q 260 272 267 290 q 253 206 253 253 q 260 142 253 160 q 287 118 267 124 q 358 113 307 113 m 182 768 l 260 944 l 519 944 l 600 768 l 464 768 l 390 889 l 318 768 l 182 768 m 593 907 q 600 938 593 928 q 621 958 607 947 q 644 983 639 971 q 650 1014 650 996 q 596 1060 650 1060 q 562 1057 576 1060 q 533 1050 547 1054 l 533 1140 q 594 1150 558 1150 q 715 1120 685 1150 q 746 1026 746 1090 q 742 975 746 992 q 724 947 738 958 q 706 934 718 943 q 689 916 694 925 q 683 894 683 907 l 593 894 l 593 907 z "},"ẫ":{"ha":783,"x_min":54,"x_max":694,"o":"m 279 -14 q 138 3 185 -14 q 73 66 92 21 q 54 201 54 111 q 74 328 54 282 q 140 394 94 374 q 264 414 185 414 l 492 414 l 492 460 q 480 524 492 503 q 437 553 468 544 q 343 561 406 561 q 107 544 257 561 l 107 672 q 364 686 217 686 q 563 667 493 686 q 664 600 633 647 q 694 463 694 553 l 694 0 l 496 0 l 496 61 q 432 4 472 21 q 279 -14 392 -14 m 358 113 q 446 117 419 113 q 473 125 465 119 q 486 143 481 131 q 492 172 492 153 l 492 303 l 353 303 q 286 297 306 303 q 260 272 267 290 q 253 206 253 253 q 260 142 253 160 q 287 118 267 124 q 358 113 307 113 m 182 768 l 260 944 l 519 944 l 600 768 l 464 768 l 390 889 l 318 768 l 182 768 m 190 1022 q 235 1097 200 1061 q 317 1132 271 1132 q 403 1111 349 1132 q 478 1090 456 1090 q 535 1136 515 1090 l 592 1103 q 546 1026 581 1063 q 465 989 511 989 q 375 1013 433 989 q 304 1035 321 1035 q 246 989 264 1035 l 190 1022 z "},"ä":{"ha":783,"x_min":54,"x_max":694,"o":"m 172 785 l 172 949 l 347 949 l 347 785 l 172 785 m 436 785 l 436 949 l 611 949 l 611 785 l 436 785 m 279 -14 q 138 3 185 -14 q 73 66 92 21 q 54 201 54 111 q 74 328 54 282 q 140 394 94 374 q 264 414 185 414 l 492 414 l 492 460 q 480 524 492 503 q 437 553 468 544 q 343 561 406 561 q 107 544 257 561 l 107 672 q 364 686 217 686 q 563 667 493 686 q 664 600 633 647 q 694 463 694 553 l 694 0 l 496 0 l 496 61 q 432 4 472 21 q 279 -14 392 -14 m 358 113 q 446 117 419 113 q 473 125 465 119 q 486 143 481 131 q 492 172 492 153 l 492 303 l 353 303 q 286 297 306 303 q 260 272 267 290 q 253 206 253 253 q 260 142 253 160 q 287 118 267 124 q 358 113 307 113 z "},"ạ":{"ha":783,"x_min":54,"x_max":694,"o":"m 279 -14 q 138 3 185 -14 q 73 66 92 21 q 54 201 54 111 q 74 328 54 282 q 140 394 94 374 q 264 414 185 414 l 492 414 l 492 460 q 480 524 492 503 q 437 553 468 544 q 343 561 406 561 q 107 544 257 561 l 107 672 q 364 686 217 686 q 563 667 493 686 q 664 600 633 647 q 694 463 694 553 l 694 0 l 496 0 l 496 61 q 432 4 472 21 q 279 -14 392 -14 m 358 113 q 446 117 419 113 q 473 125 465 119 q 486 143 481 131 q 492 172 492 153 l 492 303 l 353 303 q 286 297 306 303 q 260 272 267 290 q 253 206 253 253 q 260 142 253 160 q 287 118 267 124 q 358 113 307 113 m 301 -247 l 301 -89 l 481 -89 l 481 -247 l 301 -247 z "},"à":{"ha":783,"x_min":54,"x_max":694,"o":"m 279 -14 q 138 3 185 -14 q 73 66 92 21 q 54 201 54 111 q 74 328 54 282 q 140 394 94 374 q 264 414 185 414 l 492 414 l 492 460 q 480 524 492 503 q 437 553 468 544 q 343 561 406 561 q 107 544 257 561 l 107 672 q 364 686 217 686 q 563 667 493 686 q 664 600 633 647 q 694 463 694 553 l 694 0 l 496 0 l 496 61 q 432 4 472 21 q 279 -14 392 -14 m 358 113 q 446 117 419 113 q 473 125 465 119 q 486 143 481 131 q 492 172 492 153 l 492 303 l 353 303 q 286 297 306 303 q 260 272 267 290 q 253 206 253 253 q 260 142 253 160 q 287 118 267 124 q 358 113 307 113 m 306 768 l 132 944 l 353 944 l 478 768 l 306 768 z "},"ả":{"ha":783,"x_min":54,"x_max":694,"o":"m 279 -14 q 138 3 185 -14 q 73 66 92 21 q 54 201 54 111 q 74 328 54 282 q 140 394 94 374 q 264 414 185 414 l 492 414 l 492 460 q 480 524 492 503 q 437 553 468 544 q 343 561 406 561 q 107 544 257 561 l 107 672 q 364 686 217 686 q 563 667 493 686 q 664 600 633 647 q 694 463 694 553 l 694 0 l 496 0 l 496 61 q 432 4 472 21 q 279 -14 392 -14 m 358 113 q 446 117 419 113 q 473 125 465 119 q 486 143 481 131 q 492 172 492 153 l 492 303 l 353 303 q 286 297 306 303 q 260 272 267 290 q 253 206 253 253 q 260 142 253 160 q 287 118 267 124 q 358 113 307 113 m 344 807 q 351 838 344 828 q 372 858 358 847 q 396 883 390 871 q 401 914 401 896 q 347 960 401 960 q 313 957 328 960 q 285 950 299 954 l 285 1040 q 346 1050 310 1050 q 467 1020 436 1050 q 497 926 497 990 q 493 875 497 892 q 475 847 489 858 q 458 834 469 843 q 440 816 446 825 q 435 794 435 807 l 344 794 l 344 807 z "},"ā":{"ha":783,"x_min":54,"x_max":694,"o":"m 199 778 l 199 901 l 585 901 l 585 778 l 199 778 m 279 -14 q 138 3 185 -14 q 73 66 92 21 q 54 201 54 111 q 74 328 54 282 q 140 394 94 374 q 264 414 185 414 l 492 414 l 492 460 q 480 524 492 503 q 437 553 468 544 q 343 561 406 561 q 107 544 257 561 l 107 672 q 364 686 217 686 q 563 667 493 686 q 664 600 633 647 q 694 463 694 553 l 694 0 l 496 0 l 496 61 q 432 4 472 21 q 279 -14 392 -14 m 358 113 q 446 117 419 113 q 473 125 465 119 q 486 143 481 131 q 492 172 492 153 l 492 303 l 353 303 q 286 297 306 303 q 260 272 267 290 q 253 206 253 253 q 260 142 253 160 q 287 118 267 124 q 358 113 307 113 z "},"ą":{"ha":783,"x_min":54,"x_max":717,"o":"m 619 -258 q 515 -232 549 -258 q 482 -147 482 -206 q 489 -69 482 -125 q 496 0 496 -17 l 496 61 q 432 4 472 21 q 279 -14 392 -14 q 138 3 185 -14 q 73 66 92 21 q 54 201 54 111 q 74 328 54 282 q 140 394 94 374 q 264 414 185 414 l 492 414 l 492 460 q 480 524 492 503 q 437 553 468 544 q 343 561 406 561 q 107 544 257 561 l 107 672 q 364 686 217 686 q 563 667 493 686 q 664 600 633 647 q 694 463 694 553 l 694 0 q 639 -59 656 -33 q 622 -115 622 -85 q 634 -149 622 -137 q 675 -160 646 -160 q 717 -151 692 -160 l 717 -244 q 619 -258 689 -258 m 358 113 q 446 117 419 113 q 473 125 465 119 q 486 143 481 131 q 492 172 492 153 l 492 303 l 353 303 q 286 297 306 303 q 260 272 267 290 q 253 206 253 253 q 260 142 253 160 q 287 118 267 124 q 358 113 307 113 z "},"å":{"ha":783,"x_min":54,"x_max":694,"o":"m 392 768 q 309 772 339 768 q 249 788 279 775 q 185 904 185 811 l 185 921 q 196 988 185 960 q 225 1032 207 1017 q 269 1054 240 1046 q 326 1064 299 1063 q 392 1065 343 1065 q 462 1064 439 1065 q 513 1054 485 1063 q 558 1031 542 1046 q 588 989 575 1017 q 599 921 599 960 l 599 904 q 536 788 599 811 q 474 772 504 775 q 392 768 444 768 m 392 840 q 469 851 450 840 q 489 894 489 861 l 489 932 q 482 972 489 960 q 456 989 475 985 q 392 993 436 993 q 328 989 347 993 q 301 972 308 985 q 294 932 294 960 l 294 894 q 314 851 294 861 q 392 840 333 840 m 279 -14 q 138 3 185 -14 q 73 66 92 21 q 54 201 54 111 q 74 328 54 282 q 140 394 94 374 q 264 414 185 414 l 492 414 l 492 460 q 480 524 492 503 q 437 553 468 544 q 343 561 406 561 q 107 544 257 561 l 107 672 q 364 686 217 686 q 563 667 493 686 q 664 600 633 647 q 694 463 694 553 l 694 0 l 496 0 l 496 61 q 432 4 472 21 q 279 -14 392 -14 m 358 113 q 446 117 419 113 q 473 125 465 119 q 486 143 481 131 q 492 172 492 153 l 492 303 l 353 303 q 286 297 306 303 q 260 272 267 290 q 253 206 253 253 q 260 142 253 160 q 287 118 267 124 q 358 113 307 113 z "},"ã":{"ha":783,"x_min":54,"x_max":694,"o":"m 279 -14 q 138 3 185 -14 q 73 66 92 21 q 54 201 54 111 q 74 328 54 282 q 140 394 94 374 q 264 414 185 414 l 492 414 l 492 460 q 480 524 492 503 q 437 553 468 544 q 343 561 406 561 q 107 544 257 561 l 107 672 q 364 686 217 686 q 563 667 493 686 q 664 600 633 647 q 694 463 694 553 l 694 0 l 496 0 l 496 61 q 432 4 472 21 q 279 -14 392 -14 m 358 113 q 446 117 419 113 q 473 125 465 119 q 486 143 481 131 q 492 172 492 153 l 492 303 l 353 303 q 286 297 306 303 q 260 272 267 290 q 253 206 253 253 q 260 142 253 160 q 287 118 267 124 q 358 113 307 113 m 190 806 q 235 880 200 844 q 317 915 271 915 q 403 894 349 915 q 478 874 456 874 q 535 919 515 874 l 592 886 q 546 809 581 846 q 465 772 511 772 q 375 796 433 772 q 304 818 321 818 q 246 772 264 818 l 190 806 z "},"æ":{"ha":1174,"x_min":54,"x_max":1107,"o":"m 279 -14 q 138 3 185 -14 q 73 66 92 21 q 54 201 54 111 q 74 328 54 282 q 140 394 94 374 q 264 414 185 414 l 492 414 l 492 460 q 480 524 492 503 q 437 553 468 544 q 343 561 406 561 q 107 544 257 561 l 107 672 q 364 686 217 686 q 588 643 519 686 q 803 686 660 686 q 1034 631 961 686 q 1107 446 1107 576 l 1107 282 l 678 282 l 678 221 q 718 137 678 161 q 867 113 758 113 q 1089 142 964 113 l 1089 13 q 828 -14 965 -14 q 519 93 586 -14 q 471 27 497 50 q 401 -5 444 4 q 279 -14 357 -14 m 915 397 l 915 494 q 890 545 915 529 q 800 561 864 561 q 703 544 726 561 q 678 494 678 528 l 678 397 l 915 397 m 358 113 q 446 117 419 113 q 473 125 465 119 q 486 143 481 131 q 492 172 492 153 l 492 303 l 353 303 q 286 297 306 303 q 260 272 267 290 q 253 206 253 253 q 260 142 253 160 q 287 118 267 124 q 358 113 307 113 z "},"b":{"ha":847,"x_min":89,"x_max":778,"o":"m 429 -14 q 227 13 301 -14 q 121 94 153 39 q 89 239 89 149 l 89 972 l 292 972 l 292 606 q 358 669 310 651 q 510 686 407 686 q 651 672 597 686 q 732 628 704 658 q 768 560 758 597 q 778 460 778 524 l 778 239 q 696 44 778 103 q 429 -14 614 -14 m 432 113 q 522 121 492 113 q 564 150 553 129 q 575 213 575 171 l 575 461 q 565 527 575 507 q 526 554 556 547 q 431 561 497 561 q 344 551 374 561 q 303 521 314 542 q 292 461 292 500 l 292 213 q 302 150 292 171 q 342 121 313 129 q 432 113 372 113 z "},"c":{"ha":669,"x_min":69,"x_max":644,"o":"m 417 -14 q 333 -12 364 -14 q 258 -4 303 -10 q 185 15 214 1 q 126 57 157 29 q 69 218 69 104 l 69 442 q 111 594 69 533 q 156 635 126 617 q 217 665 186 654 q 283 679 242 674 q 357 686 325 685 l 431 686 q 635 661 508 686 l 635 528 q 415 561 492 561 q 275 467 275 561 l 275 219 q 429 113 275 113 q 644 143 504 113 l 644 10 q 417 -14 518 -14 z "},"ć":{"ha":669,"x_min":69,"x_max":644,"o":"m 244 768 l 369 944 l 590 944 l 417 768 l 244 768 m 417 -14 q 333 -12 364 -14 q 258 -4 303 -10 q 185 15 214 1 q 126 57 157 29 q 69 218 69 104 l 69 442 q 111 594 69 533 q 156 635 126 617 q 217 665 186 654 q 283 679 242 674 q 357 686 325 685 l 431 686 q 635 661 508 686 l 635 528 q 415 561 492 561 q 275 467 275 561 l 275 219 q 429 113 275 113 q 644 143 504 113 l 644 10 q 417 -14 518 -14 z "},"č":{"ha":669,"x_min":69,"x_max":644,"o":"m 261 768 l 181 944 l 317 944 l 390 824 l 463 944 l 599 944 l 521 768 l 261 768 m 417 -14 q 333 -12 364 -14 q 258 -4 303 -10 q 185 15 214 1 q 126 57 157 29 q 69 218 69 104 l 69 442 q 111 594 69 533 q 156 635 126 617 q 217 665 186 654 q 283 679 242 674 q 357 686 325 685 l 431 686 q 635 661 508 686 l 635 528 q 415 561 492 561 q 275 467 275 561 l 275 219 q 429 113 275 113 q 644 143 504 113 l 644 10 q 417 -14 518 -14 z "},"ç":{"ha":669,"x_min":69,"x_max":644,"o":"m 372 -306 q 246 -274 294 -306 l 276 -210 q 363 -235 318 -235 q 428 -186 428 -235 q 324 -133 428 -133 l 268 -133 l 285 -107 q 299 -85 290 -99 q 321 -54 307 -72 l 349 -12 q 244 -1 288 -11 q 158 31 200 8 q 69 218 69 78 l 69 442 q 111 594 69 533 q 156 635 126 617 q 217 665 186 654 q 283 679 242 674 q 357 686 325 685 l 431 686 q 635 661 508 686 l 635 528 q 415 561 492 561 q 275 467 275 561 l 275 219 q 429 113 275 113 q 644 143 504 113 l 644 10 q 444 -12 535 -10 l 404 -69 q 502 -101 465 -74 q 539 -179 539 -128 q 490 -272 539 -239 q 372 -306 442 -306 z "},"ĉ":{"ha":669,"x_min":69,"x_max":644,"o":"m 181 768 l 258 944 l 518 944 l 599 768 l 463 768 l 389 889 l 317 768 l 181 768 m 417 -14 q 333 -12 364 -14 q 258 -4 303 -10 q 185 15 214 1 q 126 57 157 29 q 69 218 69 104 l 69 442 q 111 594 69 533 q 156 635 126 617 q 217 665 186 654 q 283 679 242 674 q 357 686 325 685 l 431 686 q 635 661 508 686 l 635 528 q 415 561 492 561 q 275 467 275 561 l 275 219 q 429 113 275 113 q 644 143 504 113 l 644 10 q 417 -14 518 -14 z "},"ċ":{"ha":669,"x_min":69,"x_max":644,"o":"m 289 785 l 289 944 l 492 944 l 492 785 l 289 785 m 417 -14 q 333 -12 364 -14 q 258 -4 303 -10 q 185 15 214 1 q 126 57 157 29 q 69 218 69 104 l 69 442 q 111 594 69 533 q 156 635 126 617 q 217 665 186 654 q 283 679 242 674 q 357 686 325 685 l 431 686 q 635 661 508 686 l 635 528 q 415 561 492 561 q 275 467 275 561 l 275 219 q 429 113 275 113 q 644 143 504 113 l 644 10 q 417 -14 518 -14 z "},"d":{"ha":844,"x_min":69,"x_max":756,"o":"m 347 -14 q 171 3 228 -14 q 92 69 114 21 q 69 221 69 118 l 69 483 q 133 640 69 594 q 338 686 196 686 q 442 678 404 686 q 504 652 481 671 q 553 597 528 633 l 553 972 l 756 972 l 756 0 l 560 0 l 560 76 q 515 20 535 36 q 458 -4 494 4 q 347 -14 421 -14 m 399 113 q 499 119 467 113 q 542 145 531 126 q 553 201 553 164 l 553 472 q 541 526 553 507 q 499 553 529 544 q 410 561 469 561 q 318 553 346 561 q 281 527 290 546 q 272 465 272 508 l 272 208 q 281 149 272 169 q 317 121 290 129 q 399 113 343 113 z "},"ð":{"ha":822,"x_min":69,"x_max":753,"o":"m 411 -14 q 308 -10 349 -14 q 222 7 268 -6 q 142 47 172 21 q 90 119 111 72 q 69 231 69 165 l 69 429 q 90 546 69 496 q 144 624 111 596 q 222 663 174 647 q 315 683 269 679 q 411 686 368 686 q 522 681 478 686 q 439 811 488 744 l 304 771 l 304 864 l 378 886 q 294 972 360 907 l 492 972 q 532 932 513 953 l 667 972 l 667 879 l 597 858 q 753 446 753 665 l 753 231 q 733 121 753 168 q 681 47 713 74 q 605 9 653 24 q 511 -10 557 -6 q 411 -14 469 -14 m 411 113 q 497 122 468 113 q 538 150 526 131 q 550 207 550 169 l 550 461 q 521 539 550 517 q 411 561 492 561 q 301 539 331 561 q 272 461 272 517 l 272 207 q 284 150 272 169 q 325 122 296 131 q 411 113 354 113 z "},"ď":{"ha":972,"x_min":69,"x_max":1026,"o":"m 347 -14 q 171 3 228 -14 q 92 69 114 21 q 69 221 69 118 l 69 483 q 133 640 69 594 q 338 686 196 686 q 442 678 404 686 q 504 652 481 671 q 553 597 528 633 l 553 972 l 756 972 l 756 0 l 560 0 l 560 76 q 515 20 535 36 q 458 -4 494 4 q 347 -14 421 -14 m 804 746 l 840 972 l 1026 972 l 938 746 l 804 746 m 399 113 q 499 119 467 113 q 542 145 531 126 q 553 201 553 164 l 553 472 q 541 526 553 507 q 499 553 529 544 q 410 561 469 561 q 318 553 346 561 q 281 527 290 546 q 272 465 272 508 l 272 208 q 281 149 272 169 q 317 121 290 129 q 399 113 343 113 z "},"đ":{"ha":844,"x_min":69,"x_max":756,"o":"m 756 972 l 756 0 l 560 0 l 560 76 q 515 20 535 36 q 458 -4 494 4 q 347 -14 421 -14 q 171 3 228 -14 q 92 69 114 21 q 69 221 69 118 l 69 483 q 139 644 69 600 l 139 674 l 208 674 q 338 686 263 686 q 461 674 415 686 l 539 674 l 539 617 l 553 597 l 553 972 l 756 972 m 553 472 q 536 532 553 514 l 285 532 q 272 465 272 514 l 272 208 q 281 149 272 169 q 317 121 290 129 q 399 113 343 113 q 499 119 467 113 q 542 145 531 126 q 553 201 553 164 l 553 472 z "},"e":{"ha":776,"x_min":69,"x_max":710,"o":"m 426 -14 q 69 204 69 -14 l 69 446 q 151 629 69 572 q 401 686 232 686 q 635 631 561 686 q 710 446 710 576 l 710 282 l 274 282 l 274 221 q 315 138 274 163 q 465 113 357 113 q 690 142 565 113 l 690 13 q 426 -14 567 -14 m 517 397 l 517 494 q 490 544 517 528 q 399 561 463 561 q 300 544 325 561 q 274 494 274 526 l 274 397 l 517 397 z "},"é":{"ha":776,"x_min":69,"x_max":710,"o":"m 426 -14 q 69 204 69 -14 l 69 446 q 151 629 69 572 q 401 686 232 686 q 635 631 561 686 q 710 446 710 576 l 710 282 l 274 282 l 274 221 q 315 138 274 163 q 465 113 357 113 q 690 142 565 113 l 690 13 q 426 -14 567 -14 m 517 397 l 517 494 q 490 544 517 528 q 399 561 463 561 q 300 544 325 561 q 274 494 274 526 l 274 397 l 517 397 m 313 768 l 438 944 l 658 944 l 485 768 l 313 768 z "},"ĕ":{"ha":776,"x_min":69,"x_max":710,"o":"m 394 768 q 258 816 310 768 q 203 944 207 864 l 315 944 q 341 885 324 903 q 394 868 358 868 q 472 944 464 868 l 586 944 q 529 816 581 864 q 394 768 478 768 m 426 -14 q 69 204 69 -14 l 69 446 q 151 629 69 572 q 401 686 232 686 q 635 631 561 686 q 710 446 710 576 l 710 282 l 274 282 l 274 221 q 315 138 274 163 q 465 113 357 113 q 690 142 565 113 l 690 13 q 426 -14 567 -14 m 517 397 l 517 494 q 490 544 517 528 q 399 561 463 561 q 300 544 325 561 q 274 494 274 526 l 274 397 l 517 397 z "},"ě":{"ha":776,"x_min":69,"x_max":710,"o":"m 260 768 l 179 944 l 315 944 l 389 824 l 461 944 l 597 944 l 519 768 l 260 768 m 426 -14 q 69 204 69 -14 l 69 446 q 151 629 69 572 q 401 686 232 686 q 635 631 561 686 q 710 446 710 576 l 710 282 l 274 282 l 274 221 q 315 138 274 163 q 465 113 357 113 q 690 142 565 113 l 690 13 q 426 -14 567 -14 m 517 397 l 517 494 q 490 544 517 528 q 399 561 463 561 q 300 544 325 561 q 274 494 274 526 l 274 397 l 517 397 z "},"ê":{"ha":776,"x_min":69,"x_max":710,"o":"m 426 -14 q 69 204 69 -14 l 69 446 q 151 629 69 572 q 401 686 232 686 q 635 631 561 686 q 710 446 710 576 l 710 282 l 274 282 l 274 221 q 315 138 274 163 q 465 113 357 113 q 690 142 565 113 l 690 13 q 426 -14 567 -14 m 517 397 l 517 494 q 490 544 517 528 q 399 561 463 561 q 300 544 325 561 q 274 494 274 526 l 274 397 l 517 397 m 179 768 l 257 944 l 517 944 l 597 768 l 461 768 l 388 889 l 315 768 l 179 768 z "},"ế":{"ha":776,"x_min":69,"x_max":811,"o":"m 426 -14 q 69 204 69 -14 l 69 446 q 151 629 69 572 q 401 686 232 686 q 635 631 561 686 q 710 446 710 576 l 710 282 l 274 282 l 274 221 q 315 138 274 163 q 465 113 357 113 q 690 142 565 113 l 690 13 q 426 -14 567 -14 m 517 397 l 517 494 q 490 544 517 528 q 399 561 463 561 q 300 544 325 561 q 274 494 274 526 l 274 397 l 517 397 m 179 768 l 257 944 l 517 944 l 597 768 l 461 768 l 388 889 l 315 768 l 179 768 m 575 881 l 618 1014 l 811 1014 l 719 881 l 575 881 z "},"ệ":{"ha":776,"x_min":69,"x_max":710,"o":"m 426 -14 q 69 204 69 -14 l 69 446 q 151 629 69 572 q 401 686 232 686 q 635 631 561 686 q 710 446 710 576 l 710 282 l 274 282 l 274 221 q 315 138 274 163 q 465 113 357 113 q 690 142 565 113 l 690 13 q 426 -14 567 -14 m 517 397 l 517 494 q 490 544 517 528 q 399 561 463 561 q 300 544 325 561 q 274 494 274 526 l 274 397 l 517 397 m 299 -247 l 299 -89 l 478 -89 l 478 -247 l 299 -247 m 179 768 l 257 944 l 517 944 l 597 768 l 461 768 l 388 889 l 315 768 l 179 768 z "},"ề":{"ha":776,"x_min":69,"x_max":767,"o":"m 426 -14 q 69 204 69 -14 l 69 446 q 151 629 69 572 q 401 686 232 686 q 635 631 561 686 q 710 446 710 576 l 710 282 l 274 282 l 274 221 q 315 138 274 163 q 465 113 357 113 q 690 142 565 113 l 690 13 q 426 -14 567 -14 m 517 397 l 517 494 q 490 544 517 528 q 399 561 463 561 q 300 544 325 561 q 274 494 274 526 l 274 397 l 517 397 m 179 768 l 257 944 l 517 944 l 597 768 l 461 768 l 388 889 l 315 768 l 179 768 m 617 894 l 529 1028 l 728 1028 l 767 894 l 617 894 z "},"ể":{"ha":776,"x_min":69,"x_max":743,"o":"m 426 -14 q 69 204 69 -14 l 69 446 q 151 629 69 572 q 401 686 232 686 q 635 631 561 686 q 710 446 710 576 l 710 282 l 274 282 l 274 221 q 315 138 274 163 q 465 113 357 113 q 690 142 565 113 l 690 13 q 426 -14 567 -14 m 517 397 l 517 494 q 490 544 517 528 q 399 561 463 561 q 300 544 325 561 q 274 494 274 526 l 274 397 l 517 397 m 179 768 l 257 944 l 517 944 l 597 768 l 461 768 l 388 889 l 315 768 l 179 768 m 590 907 q 597 938 590 928 q 618 958 604 947 q 642 983 636 971 q 647 1014 647 996 q 593 1060 647 1060 q 559 1057 574 1060 q 531 1050 544 1054 l 531 1140 q 592 1150 556 1150 q 713 1120 682 1150 q 743 1026 743 1090 q 739 975 743 992 q 721 947 735 958 q 703 934 715 943 q 686 916 692 925 q 681 894 681 907 l 590 894 l 590 907 z "},"ễ":{"ha":776,"x_min":69,"x_max":710,"o":"m 426 -14 q 69 204 69 -14 l 69 446 q 151 629 69 572 q 401 686 232 686 q 635 631 561 686 q 710 446 710 576 l 710 282 l 274 282 l 274 221 q 315 138 274 163 q 465 113 357 113 q 690 142 565 113 l 690 13 q 426 -14 567 -14 m 517 397 l 517 494 q 490 544 517 528 q 399 561 463 561 q 300 544 325 561 q 274 494 274 526 l 274 397 l 517 397 m 179 768 l 257 944 l 517 944 l 597 768 l 461 768 l 388 889 l 315 768 l 179 768 m 188 1022 q 233 1097 197 1061 q 314 1132 268 1132 q 400 1111 346 1132 q 475 1090 453 1090 q 532 1136 513 1090 l 589 1103 q 543 1026 578 1063 q 463 989 508 989 q 372 1013 431 989 q 301 1035 318 1035 q 243 989 261 1035 l 188 1022 z "},"ë":{"ha":776,"x_min":69,"x_max":710,"o":"m 168 785 l 168 949 l 343 949 l 343 785 l 168 785 m 432 785 l 432 949 l 607 949 l 607 785 l 432 785 m 426 -14 q 69 204 69 -14 l 69 446 q 151 629 69 572 q 401 686 232 686 q 635 631 561 686 q 710 446 710 576 l 710 282 l 274 282 l 274 221 q 315 138 274 163 q 465 113 357 113 q 690 142 565 113 l 690 13 q 426 -14 567 -14 m 517 397 l 517 494 q 490 544 517 528 q 399 561 463 561 q 300 544 325 561 q 274 494 274 526 l 274 397 l 517 397 z "},"ė":{"ha":776,"x_min":69,"x_max":710,"o":"m 300 785 l 300 944 l 503 944 l 503 785 l 300 785 m 426 -14 q 69 204 69 -14 l 69 446 q 151 629 69 572 q 401 686 232 686 q 635 631 561 686 q 710 446 710 576 l 710 282 l 274 282 l 274 221 q 315 138 274 163 q 465 113 357 113 q 690 142 565 113 l 690 13 q 426 -14 567 -14 m 517 397 l 517 494 q 490 544 517 528 q 399 561 463 561 q 300 544 325 561 q 274 494 274 526 l 274 397 l 517 397 z "},"ẹ":{"ha":776,"x_min":69,"x_max":710,"o":"m 426 -14 q 69 204 69 -14 l 69 446 q 151 629 69 572 q 401 686 232 686 q 635 631 561 686 q 710 446 710 576 l 710 282 l 274 282 l 274 221 q 315 138 274 163 q 465 113 357 113 q 690 142 565 113 l 690 13 q 426 -14 567 -14 m 517 397 l 517 494 q 490 544 517 528 q 399 561 463 561 q 300 544 325 561 q 274 494 274 526 l 274 397 l 517 397 m 299 -247 l 299 -89 l 478 -89 l 478 -247 l 299 -247 z "},"è":{"ha":776,"x_min":69,"x_max":710,"o":"m 426 -14 q 69 204 69 -14 l 69 446 q 151 629 69 572 q 401 686 232 686 q 635 631 561 686 q 710 446 710 576 l 710 282 l 274 282 l 274 221 q 315 138 274 163 q 465 113 357 113 q 690 142 565 113 l 690 13 q 426 -14 567 -14 m 517 397 l 517 494 q 490 544 517 528 q 399 561 463 561 q 300 544 325 561 q 274 494 274 526 l 274 397 l 517 397 m 303 768 l 129 944 l 350 944 l 475 768 l 303 768 z "},"ẻ":{"ha":776,"x_min":69,"x_max":710,"o":"m 426 -14 q 69 204 69 -14 l 69 446 q 151 629 69 572 q 401 686 232 686 q 635 631 561 686 q 710 446 710 576 l 710 282 l 274 282 l 274 221 q 315 138 274 163 q 465 113 357 113 q 690 142 565 113 l 690 13 q 426 -14 567 -14 m 517 397 l 517 494 q 490 544 517 528 q 399 561 463 561 q 300 544 325 561 q 274 494 274 526 l 274 397 l 517 397 m 342 807 q 349 838 342 828 q 369 858 356 847 q 393 883 388 871 q 399 914 399 896 q 344 960 399 960 q 310 957 325 960 q 282 950 296 954 l 282 1040 q 343 1050 307 1050 q 464 1020 433 1050 q 494 926 494 990 q 490 875 494 892 q 472 847 486 858 q 455 834 467 843 q 438 816 443 825 q 432 794 432 807 l 342 794 l 342 807 z "},"ē":{"ha":776,"x_min":69,"x_max":710,"o":"m 194 778 l 194 901 l 581 901 l 581 778 l 194 778 m 426 -14 q 69 204 69 -14 l 69 446 q 151 629 69 572 q 401 686 232 686 q 635 631 561 686 q 710 446 710 576 l 710 282 l 274 282 l 274 221 q 315 138 274 163 q 465 113 357 113 q 690 142 565 113 l 690 13 q 426 -14 567 -14 m 517 397 l 517 494 q 490 544 517 528 q 399 561 463 561 q 300 544 325 561 q 274 494 274 526 l 274 397 l 517 397 z "},"ę":{"ha":776,"x_min":69,"x_max":710,"o":"m 613 -258 q 509 -232 543 -258 q 475 -147 475 -206 q 517 -12 475 -83 q 426 -14 500 -14 q 69 204 69 -14 l 69 446 q 151 629 69 572 q 401 686 232 686 q 635 631 561 686 q 710 446 710 576 l 710 282 l 274 282 l 274 221 q 315 138 274 163 q 465 113 357 113 q 690 142 565 113 l 690 13 l 643 3 q 615 -115 615 -56 q 627 -149 615 -137 q 668 -160 639 -160 q 710 -151 685 -160 l 710 -244 q 613 -258 682 -258 m 517 397 l 517 494 q 490 544 517 528 q 399 561 463 561 q 300 544 325 561 q 274 494 274 526 l 274 397 l 517 397 z "},"ẽ":{"ha":776,"x_min":69,"x_max":710,"o":"m 426 -14 q 69 204 69 -14 l 69 446 q 151 629 69 572 q 401 686 232 686 q 635 631 561 686 q 710 446 710 576 l 710 282 l 274 282 l 274 221 q 315 138 274 163 q 465 113 357 113 q 690 142 565 113 l 690 13 q 426 -14 567 -14 m 517 397 l 517 494 q 490 544 517 528 q 399 561 463 561 q 300 544 325 561 q 274 494 274 526 l 274 397 l 517 397 m 188 806 q 233 880 197 844 q 314 915 268 915 q 400 894 346 915 q 475 874 453 874 q 532 919 513 874 l 589 886 q 543 809 578 846 q 463 772 508 772 q 372 796 431 772 q 301 818 318 818 q 243 772 261 818 l 188 806 z "},"f":{"ha":539,"x_min":14,"x_max":553,"o":"m 140 547 l 14 547 l 14 672 l 140 672 l 140 774 q 167 902 140 856 q 251 967 194 949 q 401 986 307 986 q 553 975 453 986 l 553 850 q 433 861 464 861 q 363 845 382 861 q 343 785 343 829 l 343 672 l 528 672 l 528 547 l 343 547 l 343 0 l 140 0 l 140 547 z "},"g":{"ha":844,"x_min":69,"x_max":756,"o":"m 361 -306 q 118 -296 197 -306 l 118 -160 q 361 -178 249 -178 q 508 -144 464 -178 q 553 -33 553 -111 l 553 75 q 504 20 528 39 q 442 -6 481 1 q 338 -14 404 -14 q 181 5 239 -14 q 96 67 122 24 q 69 189 69 111 l 69 451 q 94 594 69 544 q 177 665 118 644 q 347 686 236 686 q 458 678 419 686 q 515 653 496 669 q 560 596 535 636 l 560 672 l 756 672 l 756 -36 q 658 -242 756 -179 q 361 -306 560 -306 m 410 113 q 499 121 469 113 q 541 148 529 129 q 553 201 553 167 l 553 472 q 542 528 553 510 q 499 554 531 547 q 399 561 467 561 q 317 553 343 561 q 281 524 290 544 q 272 465 272 504 l 272 208 q 281 147 272 165 q 318 120 290 128 q 410 113 346 113 z "},"ğ":{"ha":844,"x_min":69,"x_max":756,"o":"m 422 768 q 286 816 338 768 q 231 944 235 864 l 343 944 q 369 885 351 903 q 422 868 386 868 q 500 944 492 868 l 614 944 q 557 816 608 864 q 422 768 506 768 m 361 -306 q 118 -296 197 -306 l 118 -160 q 361 -178 249 -178 q 508 -144 464 -178 q 553 -33 553 -111 l 553 75 q 504 20 528 39 q 442 -6 481 1 q 338 -14 404 -14 q 181 5 239 -14 q 96 67 122 24 q 69 189 69 111 l 69 451 q 94 594 69 544 q 177 665 118 644 q 347 686 236 686 q 458 678 419 686 q 515 653 496 669 q 560 596 535 636 l 560 672 l 756 672 l 756 -36 q 658 -242 756 -179 q 361 -306 560 -306 m 410 113 q 499 121 469 113 q 541 148 529 129 q 553 201 553 167 l 553 472 q 542 528 553 510 q 499 554 531 547 q 399 561 467 561 q 317 553 343 561 q 281 524 290 544 q 272 465 272 504 l 272 208 q 281 147 272 165 q 318 120 290 128 q 410 113 346 113 z "},"ĝ":{"ha":844,"x_min":69,"x_max":756,"o":"m 213 768 l 290 944 l 550 944 l 631 768 l 494 768 l 421 889 l 349 768 l 213 768 m 361 -306 q 118 -296 197 -306 l 118 -160 q 361 -178 249 -178 q 508 -144 464 -178 q 553 -33 553 -111 l 553 75 q 504 20 528 39 q 442 -6 481 1 q 338 -14 404 -14 q 181 5 239 -14 q 96 67 122 24 q 69 189 69 111 l 69 451 q 94 594 69 544 q 177 665 118 644 q 347 686 236 686 q 458 678 419 686 q 515 653 496 669 q 560 596 535 636 l 560 672 l 756 672 l 756 -36 q 658 -242 756 -179 q 361 -306 560 -306 m 410 113 q 499 121 469 113 q 541 148 529 129 q 553 201 553 167 l 553 472 q 542 528 553 510 q 499 554 531 547 q 399 561 467 561 q 317 553 343 561 q 281 524 290 544 q 272 465 272 504 l 272 208 q 281 147 272 165 q 318 120 290 128 q 410 113 346 113 z "},"ģ":{"ha":844,"x_min":69,"x_max":756,"o":"m 299 747 l 414 972 l 547 972 l 483 747 l 299 747 m 361 -306 q 118 -296 197 -306 l 118 -160 q 361 -178 249 -178 q 508 -144 464 -178 q 553 -33 553 -111 l 553 75 q 504 20 528 39 q 442 -6 481 1 q 338 -14 404 -14 q 181 5 239 -14 q 96 67 122 24 q 69 189 69 111 l 69 451 q 94 594 69 544 q 177 665 118 644 q 347 686 236 686 q 458 678 419 686 q 515 653 496 669 q 560 596 535 636 l 560 672 l 756 672 l 756 -36 q 658 -242 756 -179 q 361 -306 560 -306 m 410 113 q 499 121 469 113 q 541 148 529 129 q 553 201 553 167 l 553 472 q 542 528 553 510 q 499 554 531 547 q 399 561 467 561 q 317 553 343 561 q 281 524 290 544 q 272 465 272 504 l 272 208 q 281 147 272 165 q 318 120 290 128 q 410 113 346 113 z "},"ġ":{"ha":844,"x_min":69,"x_max":756,"o":"m 321 785 l 321 944 l 524 944 l 524 785 l 321 785 m 361 -306 q 118 -296 197 -306 l 118 -160 q 361 -178 249 -178 q 508 -144 464 -178 q 553 -33 553 -111 l 553 75 q 504 20 528 39 q 442 -6 481 1 q 338 -14 404 -14 q 181 5 239 -14 q 96 67 122 24 q 69 189 69 111 l 69 451 q 94 594 69 544 q 177 665 118 644 q 347 686 236 686 q 458 678 419 686 q 515 653 496 669 q 560 596 535 636 l 560 672 l 756 672 l 756 -36 q 658 -242 756 -179 q 361 -306 560 -306 m 410 113 q 499 121 469 113 q 541 148 529 129 q 553 201 553 167 l 553 472 q 542 528 553 510 q 499 554 531 547 q 399 561 467 561 q 317 553 343 561 q 281 524 290 544 q 272 465 272 504 l 272 208 q 281 147 272 165 q 318 120 290 128 q 410 113 346 113 z "},"h":{"ha":826,"x_min":89,"x_max":738,"o":"m 89 972 l 292 972 l 292 590 q 504 686 311 686 q 685 640 633 686 q 738 493 738 593 l 738 0 l 535 0 l 535 469 q 527 527 535 508 q 497 553 519 546 q 426 561 475 561 q 339 554 367 561 q 301 528 311 547 q 292 469 292 510 l 292 0 l 89 0 l 89 972 z "},"ħ":{"ha":826,"x_min":26,"x_max":738,"o":"m 89 768 l 26 768 l 26 889 l 89 889 l 89 972 l 292 972 l 292 889 l 497 889 l 497 768 l 292 768 l 292 590 q 504 686 311 686 q 685 640 633 686 q 738 493 738 593 l 738 0 l 535 0 l 535 469 q 527 527 535 508 q 497 553 519 546 q 426 561 475 561 q 339 554 367 561 q 301 528 311 547 q 292 469 292 510 l 292 0 l 89 0 l 89 768 z "},"ĥ":{"ha":826,"x_min":-26,"x_max":738,"o":"m -26 1033 l 51 1210 l 311 1210 l 392 1033 l 256 1033 l 182 1154 l 110 1033 l -26 1033 m 89 972 l 292 972 l 292 590 q 504 686 311 686 q 685 640 633 686 q 738 493 738 593 l 738 0 l 535 0 l 535 469 q 527 527 535 508 q 497 553 519 546 q 426 561 475 561 q 339 554 367 561 q 301 528 311 547 q 292 469 292 510 l 292 0 l 89 0 l 89 972 z "},"i":{"ha":392,"x_min":94,"x_max":297,"o":"m 94 751 l 94 915 l 297 915 l 297 751 l 94 751 m 94 0 l 94 672 l 297 672 l 297 0 l 94 0 z "},"ı":{"ha":392,"x_min":94,"x_max":297,"o":"m 94 0 l 94 672 l 297 672 l 297 0 l 94 0 z "},"í":{"ha":392,"x_min":94,"x_max":465,"o":"m 94 0 l 94 672 l 297 672 l 297 0 l 94 0 m 119 768 l 244 944 l 465 944 l 292 768 l 119 768 z "},"ĭ":{"ha":392,"x_min":4,"x_max":388,"o":"m 196 768 q 60 816 111 768 q 4 944 8 864 l 117 944 q 142 885 125 903 q 196 868 160 868 q 274 944 265 868 l 388 944 q 331 816 382 864 q 196 768 279 768 m 94 0 l 94 672 l 297 672 l 297 0 l 94 0 z "},"î":{"ha":392,"x_min":-12,"x_max":406,"o":"m -12 768 l 65 944 l 325 944 l 406 768 l 269 768 l 196 889 l 124 768 l -12 768 m 94 0 l 94 672 l 297 672 l 297 0 l 94 0 z "},"ï":{"ha":392,"x_min":-24,"x_max":415,"o":"m -24 785 l -24 949 l 151 949 l 151 785 l -24 785 m 240 785 l 240 949 l 415 949 l 415 785 l 240 785 m 94 0 l 94 672 l 297 672 l 297 0 l 94 0 z "},"ị":{"ha":392,"x_min":94,"x_max":297,"o":"m 94 751 l 94 915 l 297 915 l 297 751 l 94 751 m 94 0 l 94 672 l 297 672 l 297 0 l 94 0 m 106 -247 l 106 -89 l 285 -89 l 285 -247 l 106 -247 z "},"ì":{"ha":392,"x_min":-64,"x_max":297,"o":"m 94 0 l 94 672 l 297 672 l 297 0 l 94 0 m 110 768 l -64 944 l 157 944 l 282 768 l 110 768 z "},"ỉ":{"ha":392,"x_min":89,"x_max":301,"o":"m 94 0 l 94 672 l 297 672 l 297 0 l 94 0 m 149 807 q 156 838 149 828 q 176 858 163 847 q 200 883 194 871 q 206 914 206 896 q 151 960 206 960 q 117 957 132 960 q 89 950 103 954 l 89 1040 q 150 1050 114 1050 q 271 1020 240 1050 q 301 926 301 990 q 297 875 301 892 q 279 847 293 858 q 262 834 274 843 q 244 816 250 825 q 239 794 239 807 l 149 794 l 149 807 z "},"ĳ":{"ha":772,"x_min":94,"x_max":683,"o":"m 94 751 l 94 915 l 297 915 l 297 751 l 94 751 m 481 751 l 481 915 l 683 915 l 683 751 l 481 751 m 94 0 l 94 672 l 297 672 l 297 0 l 94 0 m 339 -303 l 339 -171 q 364 -172 344 -172 q 440 -165 417 -172 q 472 -133 464 -157 q 481 -56 481 -110 l 481 672 l 683 672 l 683 -101 q 616 -261 683 -217 q 404 -306 549 -306 l 339 -303 z "},"ī":{"ha":392,"x_min":3,"x_max":389,"o":"m 3 778 l 3 901 l 389 901 l 389 778 l 3 778 m 94 0 l 94 672 l 297 672 l 297 0 l 94 0 z "},"į":{"ha":397,"x_min":57,"x_max":306,"o":"m 208 -258 q 57 -147 57 -258 q 97 0 57 -64 l 97 672 l 300 672 l 300 0 q 211 -115 211 -46 q 223 -149 211 -137 q 264 -160 235 -160 q 306 -151 281 -160 l 306 -244 q 208 -258 278 -258 z "},"ĩ":{"ha":392,"x_min":-6,"x_max":396,"o":"m 94 0 l 94 672 l 297 672 l 297 0 l 94 0 m -6 806 q 40 880 4 844 q 121 915 75 915 q 207 894 153 915 q 282 874 260 874 q 339 919 319 874 l 396 886 q 350 809 385 846 q 269 772 315 772 q 179 796 238 772 q 108 818 125 818 q 50 772 68 818 l -6 806 z "},"j":{"ha":381,"x_min":-53,"x_max":292,"o":"m 89 751 l 89 915 l 292 915 l 292 751 l 89 751 m -53 -303 l -53 -171 q -28 -172 -47 -172 q 49 -165 25 -172 q 81 -133 72 -157 q 89 -56 89 -110 l 89 672 l 292 672 l 292 -101 q 224 -261 292 -217 q 13 -306 157 -306 l -53 -303 z "},"ȷ":{"ha":381,"x_min":-53,"x_max":292,"o":"m -53 -303 l -53 -171 q -28 -172 -47 -172 q 49 -165 25 -172 q 81 -133 72 -157 q 89 -56 89 -110 l 89 672 l 292 672 l 292 -101 q 224 -261 292 -217 q 13 -306 157 -306 l -53 -303 z "},"ĵ":{"ha":381,"x_min":-53,"x_max":400,"o":"m -18 768 l 60 944 l 319 944 l 400 768 l 264 768 l 190 889 l 118 768 l -18 768 m -53 -303 l -53 -171 q -28 -172 -47 -172 q 49 -165 25 -172 q 81 -133 72 -157 q 89 -56 89 -110 l 89 672 l 292 672 l 292 -101 q 224 -261 292 -217 q 13 -306 157 -306 l -53 -303 z "},"k":{"ha":750,"x_min":89,"x_max":772,"o":"m 89 0 l 89 972 l 292 972 l 292 0 l 89 0 m 543 0 l 300 378 l 521 672 l 753 672 l 519 379 l 772 0 l 543 0 z "},"ķ":{"ha":750,"x_min":89,"x_max":772,"o":"m 89 0 l 89 972 l 292 972 l 292 0 l 89 0 m 543 0 l 300 378 l 521 672 l 753 672 l 519 379 l 772 0 l 543 0 m 250 -289 l 314 -64 l 499 -64 l 383 -289 l 250 -289 z "},"ĸ":{"ha":750,"x_min":89,"x_max":772,"o":"m 89 0 l 89 672 l 292 672 l 292 0 l 89 0 m 543 0 l 300 364 l 521 672 l 753 672 l 519 365 l 772 0 l 543 0 z "},"l":{"ha":392,"x_min":94,"x_max":297,"o":"m 94 0 l 94 972 l 297 972 l 297 0 l 94 0 z "},"ĺ":{"ha":392,"x_min":94,"x_max":456,"o":"m 110 1038 l 235 1214 l 456 1214 l 282 1038 l 110 1038 m 94 0 l 94 972 l 297 972 l 297 0 l 94 0 z "},"ľ":{"ha":506,"x_min":94,"x_max":560,"o":"m 94 0 l 94 972 l 297 972 l 297 0 l 94 0 m 338 746 l 374 972 l 560 972 l 471 746 l 338 746 z "},"ļ":{"ha":392,"x_min":44,"x_max":297,"o":"m 94 0 l 94 972 l 297 972 l 297 0 l 94 0 m 44 -289 l 108 -64 l 293 -64 l 178 -289 l 44 -289 z "},"ŀ":{"ha":546,"x_min":94,"x_max":560,"o":"m 94 0 l 94 972 l 297 972 l 297 0 l 94 0 m 356 364 l 356 556 l 560 556 l 560 364 l 356 364 z "},"ł":{"ha":392,"x_min":14,"x_max":378,"o":"m 94 0 l 94 424 l 14 393 l 14 533 l 94 564 l 94 972 l 297 972 l 297 642 l 378 672 l 378 532 l 297 501 l 297 0 l 94 0 z "},"m":{"ha":1217,"x_min":89,"x_max":1128,"o":"m 89 672 l 292 672 l 292 590 q 490 686 311 686 q 633 662 585 686 q 699 586 682 638 q 763 663 715 639 q 908 686 811 686 q 1043 666 996 686 q 1109 604 1090 646 q 1128 493 1128 563 l 1128 0 l 925 0 l 925 465 q 919 528 925 510 q 895 554 914 547 q 831 561 876 561 q 749 554 774 561 q 717 528 725 547 q 710 465 710 510 l 710 0 l 507 0 l 507 465 q 501 528 507 510 q 477 554 496 547 q 413 561 458 561 q 331 554 356 561 q 299 528 307 547 q 292 465 292 510 l 292 0 l 89 0 l 89 672 z "},"n":{"ha":826,"x_min":89,"x_max":738,"o":"m 89 672 l 289 672 l 289 590 q 504 686 313 686 q 685 640 633 686 q 738 493 738 593 l 738 0 l 535 0 l 535 467 q 527 525 535 506 q 497 553 519 544 q 426 561 474 561 q 339 553 367 561 q 301 526 311 546 q 292 467 292 507 l 292 0 l 89 0 l 89 672 z "},"ń":{"ha":826,"x_min":89,"x_max":738,"o":"m 240 768 l 365 944 l 586 944 l 413 768 l 240 768 m 89 672 l 289 672 l 289 590 q 504 686 313 686 q 685 640 633 686 q 738 493 738 593 l 738 0 l 535 0 l 535 467 q 527 525 535 506 q 497 553 519 544 q 426 561 474 561 q 339 553 367 561 q 301 526 311 546 q 292 467 292 507 l 292 0 l 89 0 l 89 672 z "},"ň":{"ha":826,"x_min":89,"x_max":738,"o":"m 285 768 l 204 944 l 340 944 l 414 824 l 486 944 l 622 944 l 544 768 l 285 768 m 89 672 l 289 672 l 289 590 q 504 686 313 686 q 685 640 633 686 q 738 493 738 593 l 738 0 l 535 0 l 535 467 q 527 525 535 506 q 497 553 519 544 q 426 561 474 561 q 339 553 367 561 q 301 526 311 546 q 292 467 292 507 l 292 0 l 89 0 l 89 672 z "},"ņ":{"ha":826,"x_min":89,"x_max":738,"o":"m 89 672 l 289 672 l 289 590 q 504 686 313 686 q 685 640 633 686 q 738 493 738 593 l 738 0 l 535 0 l 535 467 q 527 525 535 506 q 497 553 519 544 q 426 561 474 561 q 339 553 367 561 q 301 526 311 546 q 292 467 292 507 l 292 0 l 89 0 l 89 672 m 289 -289 l 353 -64 l 538 -64 l 422 -289 l 289 -289 z "},"ŋ":{"ha":796,"x_min":89,"x_max":738,"o":"m 504 -306 q 419 -299 458 -306 l 419 -175 q 464 -182 447 -182 q 519 -157 503 -182 q 535 -65 535 -132 l 535 468 q 527 526 535 507 q 497 552 519 544 q 426 560 475 560 q 339 553 367 560 q 301 527 311 546 q 292 468 292 508 l 292 0 l 89 0 l 89 672 l 292 672 l 292 590 q 504 686 311 686 q 685 640 633 686 q 738 493 738 593 l 738 -100 q 726 -192 738 -153 q 696 -253 715 -231 q 649 -286 679 -274 q 583 -301 618 -299 q 504 -306 553 -306 z "},"ñ":{"ha":826,"x_min":89,"x_max":738,"o":"m 213 847 q 258 922 222 886 q 339 957 293 957 q 425 936 371 957 q 500 915 476 915 q 557 961 539 915 l 614 928 q 568 851 603 888 q 488 814 533 814 q 397 838 456 814 q 326 860 343 860 q 268 814 288 860 l 213 847 m 89 672 l 289 672 l 289 590 q 504 686 313 686 q 685 640 633 686 q 738 493 738 593 l 738 0 l 535 0 l 535 467 q 527 525 535 506 q 497 553 519 544 q 426 561 474 561 q 339 553 367 561 q 301 526 311 546 q 292 467 292 507 l 292 0 l 89 0 l 89 672 z "},"o":{"ha":822,"x_min":69,"x_max":753,"o":"m 411 -14 q 308 -10 349 -14 q 222 7 268 -6 q 142 47 172 21 q 90 119 111 72 q 69 231 69 165 l 69 429 q 90 546 69 496 q 144 624 111 596 q 222 663 174 647 q 315 683 269 679 q 411 686 368 686 q 513 683 475 686 q 597 665 551 679 q 678 624 647 650 q 732 549 710 597 q 753 429 753 499 l 753 231 q 733 121 753 168 q 681 47 713 74 q 605 9 653 24 q 511 -10 557 -6 q 411 -14 469 -14 m 411 113 q 497 122 468 113 q 538 150 526 131 q 550 207 550 169 l 550 461 q 521 539 550 517 q 411 561 492 561 q 301 539 331 561 q 272 461 272 517 l 272 207 q 284 150 272 169 q 325 122 296 131 q 411 113 354 113 z "},"ó":{"ha":822,"x_min":69,"x_max":753,"o":"m 411 -14 q 308 -10 349 -14 q 222 7 268 -6 q 142 47 172 21 q 90 119 111 72 q 69 231 69 165 l 69 429 q 90 546 69 496 q 144 624 111 596 q 222 663 174 647 q 315 683 269 679 q 411 686 368 686 q 513 683 475 686 q 597 665 551 679 q 678 624 647 650 q 732 549 710 597 q 753 429 753 499 l 753 231 q 733 121 753 168 q 681 47 713 74 q 605 9 653 24 q 511 -10 557 -6 q 411 -14 469 -14 m 411 113 q 497 122 468 113 q 538 150 526 131 q 550 207 550 169 l 550 461 q 521 539 550 517 q 411 561 492 561 q 301 539 331 561 q 272 461 272 517 l 272 207 q 284 150 272 169 q 325 122 296 131 q 411 113 354 113 m 335 768 l 460 944 l 681 944 l 507 768 l 335 768 z "},"ŏ":{"ha":822,"x_min":69,"x_max":753,"o":"m 411 768 q 275 816 326 768 q 219 944 224 864 l 332 944 q 358 885 340 903 q 411 868 375 868 q 489 944 481 868 l 603 944 q 546 816 597 864 q 411 768 494 768 m 411 -14 q 308 -10 349 -14 q 222 7 268 -6 q 142 47 172 21 q 90 119 111 72 q 69 231 69 165 l 69 429 q 90 546 69 496 q 144 624 111 596 q 222 663 174 647 q 315 683 269 679 q 411 686 368 686 q 513 683 475 686 q 597 665 551 679 q 678 624 647 650 q 732 549 710 597 q 753 429 753 499 l 753 231 q 733 121 753 168 q 681 47 713 74 q 605 9 653 24 q 511 -10 557 -6 q 411 -14 469 -14 m 411 113 q 497 122 468 113 q 538 150 526 131 q 550 207 550 169 l 550 461 q 521 539 550 517 q 411 561 492 561 q 301 539 331 561 q 272 461 272 517 l 272 207 q 284 150 272 169 q 325 122 296 131 q 411 113 354 113 z "},"ô":{"ha":822,"x_min":69,"x_max":753,"o":"m 411 -14 q 308 -10 349 -14 q 222 7 268 -6 q 142 47 172 21 q 90 119 111 72 q 69 231 69 165 l 69 429 q 90 546 69 496 q 144 624 111 596 q 222 663 174 647 q 315 683 269 679 q 411 686 368 686 q 513 683 475 686 q 597 665 551 679 q 678 624 647 650 q 732 549 710 597 q 753 429 753 499 l 753 231 q 733 121 753 168 q 681 47 713 74 q 605 9 653 24 q 511 -10 557 -6 q 411 -14 469 -14 m 411 113 q 497 122 468 113 q 538 150 526 131 q 550 207 550 169 l 550 461 q 521 539 550 517 q 411 561 492 561 q 301 539 331 561 q 272 461 272 517 l 272 207 q 284 150 272 169 q 325 122 296 131 q 411 113 354 113 m 201 768 l 279 944 l 539 944 l 619 768 l 483 768 l 410 889 l 338 768 l 201 768 z "},"ố":{"ha":822,"x_min":69,"x_max":833,"o":"m 411 -14 q 308 -10 349 -14 q 222 7 268 -6 q 142 47 172 21 q 90 119 111 72 q 69 231 69 165 l 69 429 q 90 546 69 496 q 144 624 111 596 q 222 663 174 647 q 315 683 269 679 q 411 686 368 686 q 513 683 475 686 q 597 665 551 679 q 678 624 647 650 q 732 549 710 597 q 753 429 753 499 l 753 231 q 733 121 753 168 q 681 47 713 74 q 605 9 653 24 q 511 -10 557 -6 q 411 -14 469 -14 m 411 113 q 497 122 468 113 q 538 150 526 131 q 550 207 550 169 l 550 461 q 521 539 550 517 q 411 561 492 561 q 301 539 331 561 q 272 461 272 517 l 272 207 q 284 150 272 169 q 325 122 296 131 q 411 113 354 113 m 201 768 l 279 944 l 539 944 l 619 768 l 483 768 l 410 889 l 338 768 l 201 768 m 597 881 l 640 1014 l 833 1014 l 742 881 l 597 881 z "},"ộ":{"ha":822,"x_min":69,"x_max":753,"o":"m 411 -14 q 308 -10 349 -14 q 222 7 268 -6 q 142 47 172 21 q 90 119 111 72 q 69 231 69 165 l 69 429 q 90 546 69 496 q 144 624 111 596 q 222 663 174 647 q 315 683 269 679 q 411 686 368 686 q 513 683 475 686 q 597 665 551 679 q 678 624 647 650 q 732 549 710 597 q 753 429 753 499 l 753 231 q 733 121 753 168 q 681 47 713 74 q 605 9 653 24 q 511 -10 557 -6 q 411 -14 469 -14 m 411 113 q 497 122 468 113 q 538 150 526 131 q 550 207 550 169 l 550 461 q 521 539 550 517 q 411 561 492 561 q 301 539 331 561 q 272 461 272 517 l 272 207 q 284 150 272 169 q 325 122 296 131 q 411 113 354 113 m 321 -247 l 321 -89 l 500 -89 l 500 -247 l 321 -247 m 201 768 l 279 944 l 539 944 l 619 768 l 483 768 l 410 889 l 338 768 l 201 768 z "},"ồ":{"ha":822,"x_min":69,"x_max":789,"o":"m 411 -14 q 308 -10 349 -14 q 222 7 268 -6 q 142 47 172 21 q 90 119 111 72 q 69 231 69 165 l 69 429 q 90 546 69 496 q 144 624 111 596 q 222 663 174 647 q 315 683 269 679 q 411 686 368 686 q 513 683 475 686 q 597 665 551 679 q 678 624 647 650 q 732 549 710 597 q 753 429 753 499 l 753 231 q 733 121 753 168 q 681 47 713 74 q 605 9 653 24 q 511 -10 557 -6 q 411 -14 469 -14 m 411 113 q 497 122 468 113 q 538 150 526 131 q 550 207 550 169 l 550 461 q 521 539 550 517 q 411 561 492 561 q 301 539 331 561 q 272 461 272 517 l 272 207 q 284 150 272 169 q 325 122 296 131 q 411 113 354 113 m 201 768 l 279 944 l 539 944 l 619 768 l 483 768 l 410 889 l 338 768 l 201 768 m 639 894 l 551 1028 l 750 1028 l 789 894 l 639 894 z "},"ổ":{"ha":822,"x_min":69,"x_max":765,"o":"m 411 -14 q 308 -10 349 -14 q 222 7 268 -6 q 142 47 172 21 q 90 119 111 72 q 69 231 69 165 l 69 429 q 90 546 69 496 q 144 624 111 596 q 222 663 174 647 q 315 683 269 679 q 411 686 368 686 q 513 683 475 686 q 597 665 551 679 q 678 624 647 650 q 732 549 710 597 q 753 429 753 499 l 753 231 q 733 121 753 168 q 681 47 713 74 q 605 9 653 24 q 511 -10 557 -6 q 411 -14 469 -14 m 411 113 q 497 122 468 113 q 538 150 526 131 q 550 207 550 169 l 550 461 q 521 539 550 517 q 411 561 492 561 q 301 539 331 561 q 272 461 272 517 l 272 207 q 284 150 272 169 q 325 122 296 131 q 411 113 354 113 m 201 768 l 279 944 l 539 944 l 619 768 l 483 768 l 410 889 l 338 768 l 201 768 m 613 907 q 619 938 613 928 q 640 958 626 947 q 664 983 658 971 q 669 1014 669 996 q 615 1060 669 1060 q 581 1057 596 1060 q 553 1050 567 1054 l 553 1140 q 614 1150 578 1150 q 735 1120 704 1150 q 765 1026 765 1090 q 761 975 765 992 q 743 947 757 958 q 726 934 738 943 q 708 916 714 925 q 703 894 703 907 l 613 894 l 613 907 z "},"ỗ":{"ha":822,"x_min":69,"x_max":753,"o":"m 411 -14 q 308 -10 349 -14 q 222 7 268 -6 q 142 47 172 21 q 90 119 111 72 q 69 231 69 165 l 69 429 q 90 546 69 496 q 144 624 111 596 q 222 663 174 647 q 315 683 269 679 q 411 686 368 686 q 513 683 475 686 q 597 665 551 679 q 678 624 647 650 q 732 549 710 597 q 753 429 753 499 l 753 231 q 733 121 753 168 q 681 47 713 74 q 605 9 653 24 q 511 -10 557 -6 q 411 -14 469 -14 m 411 113 q 497 122 468 113 q 538 150 526 131 q 550 207 550 169 l 550 461 q 521 539 550 517 q 411 561 492 561 q 301 539 331 561 q 272 461 272 517 l 272 207 q 284 150 272 169 q 325 122 296 131 q 411 113 354 113 m 201 768 l 279 944 l 539 944 l 619 768 l 483 768 l 410 889 l 338 768 l 201 768 m 210 1022 q 255 1097 219 1061 q 336 1132 290 1132 q 422 1111 368 1132 q 497 1090 475 1090 q 554 1136 535 1090 l 611 1103 q 565 1026 600 1063 q 485 989 531 989 q 394 1013 453 989 q 324 1035 340 1035 q 265 989 283 1035 l 210 1022 z "},"ö":{"ha":822,"x_min":69,"x_max":753,"o":"m 192 785 l 192 949 l 367 949 l 367 785 l 192 785 m 456 785 l 456 949 l 631 949 l 631 785 l 456 785 m 411 -14 q 308 -10 349 -14 q 222 7 268 -6 q 142 47 172 21 q 90 119 111 72 q 69 231 69 165 l 69 429 q 90 546 69 496 q 144 624 111 596 q 222 663 174 647 q 315 683 269 679 q 411 686 368 686 q 513 683 475 686 q 597 665 551 679 q 678 624 647 650 q 732 549 710 597 q 753 429 753 499 l 753 231 q 733 121 753 168 q 681 47 713 74 q 605 9 653 24 q 511 -10 557 -6 q 411 -14 469 -14 m 411 113 q 497 122 468 113 q 538 150 526 131 q 550 207 550 169 l 550 461 q 521 539 550 517 q 411 561 492 561 q 301 539 331 561 q 272 461 272 517 l 272 207 q 284 150 272 169 q 325 122 296 131 q 411 113 354 113 z "},"ọ":{"ha":822,"x_min":69,"x_max":753,"o":"m 411 -14 q 308 -10 349 -14 q 222 7 268 -6 q 142 47 172 21 q 90 119 111 72 q 69 231 69 165 l 69 429 q 90 546 69 496 q 144 624 111 596 q 222 663 174 647 q 315 683 269 679 q 411 686 368 686 q 513 683 475 686 q 597 665 551 679 q 678 624 647 650 q 732 549 710 597 q 753 429 753 499 l 753 231 q 733 121 753 168 q 681 47 713 74 q 605 9 653 24 q 511 -10 557 -6 q 411 -14 469 -14 m 411 113 q 497 122 468 113 q 538 150 526 131 q 550 207 550 169 l 550 461 q 521 539 550 517 q 411 561 492 561 q 301 539 331 561 q 272 461 272 517 l 272 207 q 284 150 272 169 q 325 122 296 131 q 411 113 354 113 m 321 -247 l 321 -89 l 500 -89 l 500 -247 l 321 -247 z "},"ò":{"ha":822,"x_min":69,"x_max":753,"o":"m 411 -14 q 308 -10 349 -14 q 222 7 268 -6 q 142 47 172 21 q 90 119 111 72 q 69 231 69 165 l 69 429 q 90 546 69 496 q 144 624 111 596 q 222 663 174 647 q 315 683 269 679 q 411 686 368 686 q 513 683 475 686 q 597 665 551 679 q 678 624 647 650 q 732 549 710 597 q 753 429 753 499 l 753 231 q 733 121 753 168 q 681 47 713 74 q 605 9 653 24 q 511 -10 557 -6 q 411 -14 469 -14 m 411 113 q 497 122 468 113 q 538 150 526 131 q 550 207 550 169 l 550 461 q 521 539 550 517 q 411 561 492 561 q 301 539 331 561 q 272 461 272 517 l 272 207 q 284 150 272 169 q 325 122 296 131 q 411 113 354 113 m 325 768 l 151 944 l 372 944 l 497 768 l 325 768 z "},"ỏ":{"ha":822,"x_min":69,"x_max":753,"o":"m 411 -14 q 308 -10 349 -14 q 222 7 268 -6 q 142 47 172 21 q 90 119 111 72 q 69 231 69 165 l 69 429 q 90 546 69 496 q 144 624 111 596 q 222 663 174 647 q 315 683 269 679 q 411 686 368 686 q 513 683 475 686 q 597 665 551 679 q 678 624 647 650 q 732 549 710 597 q 753 429 753 499 l 753 231 q 733 121 753 168 q 681 47 713 74 q 605 9 653 24 q 511 -10 557 -6 q 411 -14 469 -14 m 411 113 q 497 122 468 113 q 538 150 526 131 q 550 207 550 169 l 550 461 q 521 539 550 517 q 411 561 492 561 q 301 539 331 561 q 272 461 272 517 l 272 207 q 284 150 272 169 q 325 122 296 131 q 411 113 354 113 m 364 807 q 371 838 364 828 q 392 858 378 847 q 415 883 410 871 q 421 914 421 896 q 367 960 421 960 q 333 957 347 960 q 304 950 318 954 l 304 1040 q 365 1050 329 1050 q 486 1020 456 1050 q 517 926 517 990 q 513 875 517 892 q 494 847 508 858 q 477 834 489 843 q 460 816 465 825 q 454 794 454 807 l 364 794 l 364 807 z "},"ơ":{"ha":822,"x_min":69,"x_max":826,"o":"m 826 793 q 807 646 826 699 q 724 567 788 593 l 732 549 q 753 429 753 499 l 753 231 q 733 121 753 168 q 681 47 713 74 q 605 9 653 24 q 511 -10 557 -6 q 411 -14 469 -14 q 308 -10 349 -14 q 222 7 268 -6 q 142 47 172 21 q 90 119 111 72 q 69 231 69 165 l 69 429 q 90 546 69 496 q 144 624 111 596 q 222 663 174 647 q 315 683 269 679 q 411 686 368 686 q 499 683 465 686 q 569 672 532 681 q 635 683 614 674 q 663 717 656 693 q 669 794 669 742 l 826 793 m 550 461 q 521 539 550 517 q 411 561 492 561 q 301 539 331 561 q 272 461 272 517 l 272 207 q 284 150 272 169 q 325 122 296 131 q 411 113 354 113 q 497 122 468 113 q 538 150 526 131 q 550 207 550 169 l 550 461 z "},"ớ":{"ha":822,"x_min":69,"x_max":826,"o":"m 826 793 q 807 646 826 699 q 724 567 788 593 l 732 549 q 753 429 753 499 l 753 231 q 733 121 753 168 q 681 47 713 74 q 605 9 653 24 q 511 -10 557 -6 q 411 -14 469 -14 q 308 -10 349 -14 q 222 7 268 -6 q 142 47 172 21 q 90 119 111 72 q 69 231 69 165 l 69 429 q 90 546 69 496 q 144 624 111 596 q 222 663 174 647 q 315 683 269 679 q 411 686 368 686 q 499 683 465 686 q 569 672 532 681 q 635 683 614 674 q 663 717 656 693 q 669 794 669 742 l 826 793 m 550 461 q 521 539 550 517 q 411 561 492 561 q 301 539 331 561 q 272 461 272 517 l 272 207 q 284 150 272 169 q 325 122 296 131 q 411 113 354 113 q 497 122 468 113 q 538 150 526 131 q 550 207 550 169 l 550 461 m 335 768 l 460 944 l 681 944 l 507 768 l 335 768 z "},"ợ":{"ha":822,"x_min":69,"x_max":826,"o":"m 826 793 q 807 646 826 699 q 724 567 788 593 l 732 549 q 753 429 753 499 l 753 231 q 733 121 753 168 q 681 47 713 74 q 605 9 653 24 q 511 -10 557 -6 q 411 -14 469 -14 q 308 -10 349 -14 q 222 7 268 -6 q 142 47 172 21 q 90 119 111 72 q 69 231 69 165 l 69 429 q 90 546 69 496 q 144 624 111 596 q 222 663 174 647 q 315 683 269 679 q 411 686 368 686 q 499 683 465 686 q 569 672 532 681 q 635 683 614 674 q 663 717 656 693 q 669 794 669 742 l 826 793 m 550 461 q 521 539 550 517 q 411 561 492 561 q 301 539 331 561 q 272 461 272 517 l 272 207 q 284 150 272 169 q 325 122 296 131 q 411 113 354 113 q 497 122 468 113 q 538 150 526 131 q 550 207 550 169 l 550 461 m 321 -247 l 321 -89 l 500 -89 l 500 -247 l 321 -247 z "},"ờ":{"ha":822,"x_min":69,"x_max":826,"o":"m 826 793 q 807 646 826 699 q 724 567 788 593 l 732 549 q 753 429 753 499 l 753 231 q 733 121 753 168 q 681 47 713 74 q 605 9 653 24 q 511 -10 557 -6 q 411 -14 469 -14 q 308 -10 349 -14 q 222 7 268 -6 q 142 47 172 21 q 90 119 111 72 q 69 231 69 165 l 69 429 q 90 546 69 496 q 144 624 111 596 q 222 663 174 647 q 315 683 269 679 q 411 686 368 686 q 499 683 465 686 q 569 672 532 681 q 635 683 614 674 q 663 717 656 693 q 669 794 669 742 l 826 793 m 550 461 q 521 539 550 517 q 411 561 492 561 q 301 539 331 561 q 272 461 272 517 l 272 207 q 284 150 272 169 q 325 122 296 131 q 411 113 354 113 q 497 122 468 113 q 538 150 526 131 q 550 207 550 169 l 550 461 m 325 768 l 151 944 l 372 944 l 497 768 l 325 768 z "},"ở":{"ha":822,"x_min":69,"x_max":826,"o":"m 826 793 q 807 646 826 699 q 724 567 788 593 l 732 549 q 753 429 753 499 l 753 231 q 733 121 753 168 q 681 47 713 74 q 605 9 653 24 q 511 -10 557 -6 q 411 -14 469 -14 q 308 -10 349 -14 q 222 7 268 -6 q 142 47 172 21 q 90 119 111 72 q 69 231 69 165 l 69 429 q 90 546 69 496 q 144 624 111 596 q 222 663 174 647 q 315 683 269 679 q 411 686 368 686 q 499 683 465 686 q 569 672 532 681 q 635 683 614 674 q 663 717 656 693 q 669 794 669 742 l 826 793 m 550 461 q 521 539 550 517 q 411 561 492 561 q 301 539 331 561 q 272 461 272 517 l 272 207 q 284 150 272 169 q 325 122 296 131 q 411 113 354 113 q 497 122 468 113 q 538 150 526 131 q 550 207 550 169 l 550 461 m 364 807 q 371 838 364 828 q 392 858 378 847 q 415 883 410 871 q 421 914 421 896 q 367 960 421 960 q 333 957 347 960 q 304 950 318 954 l 304 1040 q 365 1050 329 1050 q 486 1020 456 1050 q 517 926 517 990 q 513 875 517 892 q 494 847 508 858 q 477 834 489 843 q 460 816 465 825 q 454 794 454 807 l 364 794 l 364 807 z "},"ỡ":{"ha":822,"x_min":69,"x_max":826,"o":"m 826 793 q 807 646 826 699 q 724 567 788 593 l 732 549 q 753 429 753 499 l 753 231 q 733 121 753 168 q 681 47 713 74 q 605 9 653 24 q 511 -10 557 -6 q 411 -14 469 -14 q 308 -10 349 -14 q 222 7 268 -6 q 142 47 172 21 q 90 119 111 72 q 69 231 69 165 l 69 429 q 90 546 69 496 q 144 624 111 596 q 222 663 174 647 q 315 683 269 679 q 411 686 368 686 q 499 683 465 686 q 569 672 532 681 q 635 683 614 674 q 663 717 656 693 q 669 794 669 742 l 826 793 m 550 461 q 521 539 550 517 q 411 561 492 561 q 301 539 331 561 q 272 461 272 517 l 272 207 q 284 150 272 169 q 325 122 296 131 q 411 113 354 113 q 497 122 468 113 q 538 150 526 131 q 550 207 550 169 l 550 461 m 210 806 q 255 880 219 844 q 336 915 290 915 q 422 894 368 915 q 497 874 475 874 q 554 919 535 874 l 611 886 q 565 809 600 846 q 485 772 531 772 q 394 796 453 772 q 324 818 340 818 q 265 772 283 818 l 210 806 z "},"ő":{"ha":822,"x_min":69,"x_max":753,"o":"m 193 767 l 290 944 l 424 944 l 326 767 l 193 767 m 397 767 l 494 944 l 628 944 l 531 767 l 397 767 m 411 -14 q 308 -10 349 -14 q 222 7 268 -6 q 142 47 172 21 q 90 119 111 72 q 69 231 69 165 l 69 429 q 90 546 69 496 q 144 624 111 596 q 222 663 174 647 q 315 683 269 679 q 411 686 368 686 q 513 683 475 686 q 597 665 551 679 q 678 624 647 650 q 732 549 710 597 q 753 429 753 499 l 753 231 q 733 121 753 168 q 681 47 713 74 q 605 9 653 24 q 511 -10 557 -6 q 411 -14 469 -14 m 411 113 q 497 122 468 113 q 538 150 526 131 q 550 207 550 169 l 550 461 q 521 539 550 517 q 411 561 492 561 q 301 539 331 561 q 272 461 272 517 l 272 207 q 284 150 272 169 q 325 122 296 131 q 411 113 354 113 z "},"ō":{"ha":822,"x_min":69,"x_max":753,"o":"m 218 778 l 218 901 l 604 901 l 604 778 l 218 778 m 411 -14 q 308 -10 349 -14 q 222 7 268 -6 q 142 47 172 21 q 90 119 111 72 q 69 231 69 165 l 69 429 q 90 546 69 496 q 144 624 111 596 q 222 663 174 647 q 315 683 269 679 q 411 686 368 686 q 513 683 475 686 q 597 665 551 679 q 678 624 647 650 q 732 549 710 597 q 753 429 753 499 l 753 231 q 733 121 753 168 q 681 47 713 74 q 605 9 653 24 q 511 -10 557 -6 q 411 -14 469 -14 m 411 113 q 497 122 468 113 q 538 150 526 131 q 550 207 550 169 l 550 461 q 521 539 550 517 q 411 561 492 561 q 301 539 331 561 q 272 461 272 517 l 272 207 q 284 150 272 169 q 325 122 296 131 q 411 113 354 113 z "},"ø":{"ha":829,"x_min":69,"x_max":758,"o":"m 414 -14 q 311 -10 351 -14 q 224 7 271 -6 q 143 47 174 21 q 92 119 113 72 q 69 231 69 164 l 69 429 q 91 546 69 496 q 146 624 113 596 q 223 663 175 647 q 317 683 271 679 q 414 686 369 686 q 517 683 479 686 q 601 665 556 679 q 683 624 651 650 q 736 549 714 597 q 758 429 758 500 l 758 231 q 738 121 758 168 q 685 47 717 74 q 608 9 657 24 q 514 -10 560 -6 q 414 -14 472 -14 m 499 561 q 414 571 471 571 q 302 549 332 571 q 272 469 272 526 l 272 210 l 499 561 m 414 104 q 502 112 472 104 q 544 139 532 119 q 556 196 556 158 l 556 458 l 332 111 q 414 104 357 104 z "},"õ":{"ha":822,"x_min":69,"x_max":753,"o":"m 411 -14 q 308 -10 349 -14 q 222 7 268 -6 q 142 47 172 21 q 90 119 111 72 q 69 231 69 165 l 69 429 q 90 546 69 496 q 144 624 111 596 q 222 663 174 647 q 315 683 269 679 q 411 686 368 686 q 513 683 475 686 q 597 665 551 679 q 678 624 647 650 q 732 549 710 597 q 753 429 753 499 l 753 231 q 733 121 753 168 q 681 47 713 74 q 605 9 653 24 q 511 -10 557 -6 q 411 -14 469 -14 m 411 113 q 497 122 468 113 q 538 150 526 131 q 550 207 550 169 l 550 461 q 521 539 550 517 q 411 561 492 561 q 301 539 331 561 q 272 461 272 517 l 272 207 q 284 150 272 169 q 325 122 296 131 q 411 113 354 113 m 210 806 q 255 880 219 844 q 336 915 290 915 q 422 894 368 915 q 497 874 475 874 q 554 919 535 874 l 611 886 q 565 809 600 846 q 485 772 531 772 q 394 796 453 772 q 324 818 340 818 q 265 772 283 818 l 210 806 z "},"œ":{"ha":1235,"x_min":69,"x_max":1171,"o":"m 411 -14 q 308 -10 349 -14 q 222 7 268 -6 q 142 47 172 21 q 90 119 111 72 q 69 231 69 165 l 69 429 q 90 546 69 496 q 144 624 111 596 q 222 663 174 647 q 315 683 269 679 q 411 686 368 686 q 633 635 557 686 q 863 686 703 686 q 1097 631 1022 686 q 1171 446 1171 576 l 1171 282 l 735 282 l 735 221 q 776 138 735 163 q 926 113 818 113 q 1151 142 1026 113 l 1151 13 q 888 -14 1028 -14 q 638 36 719 -14 q 411 -14 563 -14 m 411 113 q 497 122 468 113 q 538 150 526 131 q 550 207 550 169 l 550 461 q 521 539 550 517 q 411 561 492 561 q 301 539 331 561 q 272 461 272 517 l 272 207 q 284 150 272 169 q 325 122 296 131 q 411 113 354 113 m 978 397 l 978 494 q 951 544 978 528 q 860 561 924 561 q 761 544 786 561 q 735 494 735 526 l 735 397 l 978 397 z "},"p":{"ha":846,"x_min":89,"x_max":776,"o":"m 89 672 l 281 672 l 281 606 q 351 668 299 650 q 508 686 404 686 q 649 672 596 686 q 731 628 703 658 q 767 560 757 597 q 776 460 776 524 l 776 239 q 747 85 776 139 q 658 8 718 31 q 493 -14 597 -14 q 349 3 393 -14 q 292 68 304 19 l 292 -289 l 89 -289 l 89 672 m 431 113 q 521 121 490 113 q 563 150 551 129 q 574 213 574 171 l 574 461 q 564 527 574 507 q 525 554 554 547 q 429 561 496 561 q 342 551 372 561 q 302 521 313 542 q 292 461 292 500 l 292 213 q 302 150 292 171 q 342 121 313 129 q 431 113 371 113 z "},"þ":{"ha":851,"x_min":89,"x_max":776,"o":"m 89 972 l 292 972 l 292 625 q 508 686 336 686 q 649 672 596 686 q 731 628 703 658 q 767 560 757 597 q 776 460 776 524 l 776 239 q 747 85 776 139 q 658 8 718 31 q 493 -14 597 -14 q 349 3 393 -14 q 292 68 304 19 l 292 -290 l 89 -290 l 89 972 m 431 113 q 521 121 490 113 q 563 150 551 129 q 574 213 574 171 l 574 461 q 564 527 574 507 q 525 554 554 547 q 429 561 496 561 q 342 551 372 561 q 302 521 313 542 q 292 461 292 500 l 292 213 q 302 150 292 171 q 342 121 313 129 q 431 113 371 113 z "},"q":{"ha":844,"x_min":69,"x_max":756,"o":"m 553 76 q 508 18 529 36 q 452 -7 488 0 q 347 -14 417 -14 q 171 3 228 -14 q 92 69 114 21 q 69 221 69 118 l 69 456 q 98 599 69 551 q 198 667 126 647 q 413 686 269 686 q 556 681 500 686 q 649 660 613 675 q 710 624 690 642 q 740 576 731 607 q 753 515 750 543 q 756 431 756 488 l 756 -289 l 553 -289 l 553 76 m 399 113 q 499 119 467 113 q 542 145 531 126 q 553 201 553 164 l 553 468 q 541 523 553 503 q 499 552 529 543 q 410 561 468 561 q 318 554 346 561 q 281 528 290 547 q 272 468 272 510 l 272 208 q 281 149 272 169 q 317 121 290 129 q 399 113 343 113 z "},"r":{"ha":551,"x_min":89,"x_max":529,"o":"m 89 672 l 282 672 l 282 554 q 308 617 282 586 q 376 667 335 647 q 457 686 417 686 l 529 686 l 529 518 l 460 518 q 333 492 374 518 q 292 404 292 465 l 292 0 l 89 0 l 89 672 z "},"ŕ":{"ha":551,"x_min":89,"x_max":529,"o":"m 103 768 l 228 944 l 449 944 l 275 768 l 103 768 m 89 672 l 282 672 l 282 554 q 308 617 282 586 q 376 667 335 647 q 457 686 417 686 l 529 686 l 529 518 l 460 518 q 333 492 374 518 q 292 404 292 465 l 292 0 l 89 0 l 89 672 z "},"ř":{"ha":551,"x_min":67,"x_max":529,"o":"m 147 768 l 67 944 l 203 944 l 276 824 l 349 944 l 485 944 l 407 768 l 147 768 m 89 672 l 282 672 l 282 554 q 308 617 282 586 q 376 667 335 647 q 457 686 417 686 l 529 686 l 529 518 l 460 518 q 333 492 374 518 q 292 404 292 465 l 292 0 l 89 0 l 89 672 z "},"ŗ":{"ha":551,"x_min":47,"x_max":529,"o":"m 89 672 l 282 672 l 282 554 q 308 617 282 586 q 376 667 335 647 q 457 686 417 686 l 529 686 l 529 518 l 460 518 q 333 492 374 518 q 292 404 292 465 l 292 0 l 89 0 l 89 672 m 47 -289 l 111 -64 l 296 -64 l 181 -289 l 47 -289 z "},"s":{"ha":729,"x_min":61,"x_max":668,"o":"m 340 -14 q 75 7 232 -14 l 75 142 q 343 113 268 113 q 438 125 407 113 q 468 171 468 138 l 468 213 q 449 262 468 247 q 372 276 429 276 l 285 276 q 119 319 178 276 q 61 443 61 361 l 61 525 q 144 649 61 613 q 396 686 228 686 q 635 674 463 686 l 635 544 q 390 561 418 561 q 283 550 308 561 q 261 504 261 538 l 261 468 q 279 437 261 450 q 332 424 297 424 l 421 424 q 668 263 668 424 l 668 178 q 650 93 668 129 q 603 36 632 57 q 531 6 575 17 q 440 -10 488 -6 q 340 -14 397 -14 z "},"ś":{"ha":729,"x_min":61,"x_max":668,"o":"m 192 768 l 317 944 l 538 944 l 364 768 l 192 768 m 340 -14 q 75 7 232 -14 l 75 142 q 343 113 268 113 q 438 125 407 113 q 468 171 468 138 l 468 213 q 449 262 468 247 q 372 276 429 276 l 285 276 q 119 319 178 276 q 61 443 61 361 l 61 525 q 144 649 61 613 q 396 686 228 686 q 635 674 463 686 l 635 544 q 390 561 418 561 q 283 550 308 561 q 261 504 261 538 l 261 468 q 279 437 261 450 q 332 424 297 424 l 421 424 q 668 263 668 424 l 668 178 q 650 93 668 129 q 603 36 632 57 q 531 6 575 17 q 440 -10 488 -6 q 340 -14 397 -14 z "},"š":{"ha":729,"x_min":61,"x_max":668,"o":"m 236 768 l 156 944 l 292 944 l 365 824 l 438 944 l 574 944 l 496 768 l 236 768 m 340 -14 q 75 7 232 -14 l 75 142 q 343 113 268 113 q 438 125 407 113 q 468 171 468 138 l 468 213 q 449 262 468 247 q 372 276 429 276 l 285 276 q 119 319 178 276 q 61 443 61 361 l 61 525 q 144 649 61 613 q 396 686 228 686 q 635 674 463 686 l 635 544 q 390 561 418 561 q 283 550 308 561 q 261 504 261 538 l 261 468 q 279 437 261 450 q 332 424 297 424 l 421 424 q 668 263 668 424 l 668 178 q 650 93 668 129 q 603 36 632 57 q 531 6 575 17 q 440 -10 488 -6 q 340 -14 397 -14 z "},"ş":{"ha":729,"x_min":61,"x_max":668,"o":"m 421 424 q 668 263 668 424 l 668 178 q 650 93 668 129 q 603 36 632 57 q 531 6 575 17 q 440 -10 488 -6 l 418 -11 l 376 -69 q 474 -101 438 -74 q 511 -179 511 -128 q 463 -272 511 -239 q 344 -306 414 -306 q 218 -274 267 -306 l 249 -210 q 335 -235 290 -235 q 400 -186 400 -235 q 296 -133 400 -133 l 240 -133 q 285 -67 242 -129 l 321 -14 q 75 7 219 -12 l 75 142 q 343 113 268 113 q 438 125 407 113 q 468 171 468 138 l 468 213 q 449 262 468 247 q 372 276 429 276 l 285 276 q 119 319 178 276 q 61 443 61 361 l 61 525 q 144 649 61 613 q 396 686 228 686 q 635 674 463 686 l 635 544 q 390 561 418 561 q 283 550 308 561 q 261 504 261 538 l 261 468 q 279 437 261 450 q 332 424 297 424 l 421 424 z "},"ŝ":{"ha":729,"x_min":61,"x_max":668,"o":"m 156 768 l 233 944 l 493 944 l 574 768 l 438 768 l 364 889 l 292 768 l 156 768 m 340 -14 q 75 7 232 -14 l 75 142 q 343 113 268 113 q 438 125 407 113 q 468 171 468 138 l 468 213 q 449 262 468 247 q 372 276 429 276 l 285 276 q 119 319 178 276 q 61 443 61 361 l 61 525 q 144 649 61 613 q 396 686 228 686 q 635 674 463 686 l 635 544 q 390 561 418 561 q 283 550 308 561 q 261 504 261 538 l 261 468 q 279 437 261 450 q 332 424 297 424 l 421 424 q 668 263 668 424 l 668 178 q 650 93 668 129 q 603 36 632 57 q 531 6 575 17 q 440 -10 488 -6 q 340 -14 397 -14 z "},"ș":{"ha":729,"x_min":61,"x_max":668,"o":"m 340 -14 q 75 7 232 -14 l 75 142 q 343 113 268 113 q 438 125 407 113 q 468 171 468 138 l 468 213 q 449 262 468 247 q 372 276 429 276 l 285 276 q 119 319 178 276 q 61 443 61 361 l 61 525 q 144 649 61 613 q 396 686 228 686 q 635 674 463 686 l 635 544 q 390 561 418 561 q 283 550 308 561 q 261 504 261 538 l 261 468 q 279 437 261 450 q 332 424 297 424 l 421 424 q 668 263 668 424 l 668 178 q 650 93 668 129 q 603 36 632 57 q 531 6 575 17 q 440 -10 488 -6 q 340 -14 397 -14 m 240 -289 l 304 -64 l 489 -64 l 374 -289 l 240 -289 z "},"ß":{"ha":888,"x_min":89,"x_max":818,"o":"m 89 790 q 115 906 89 868 q 218 964 140 943 q 450 986 294 986 q 702 938 626 986 q 778 790 778 890 l 778 625 q 749 554 778 588 q 679 508 719 521 l 678 501 q 774 456 731 496 q 818 368 818 417 l 818 201 q 731 46 818 92 q 460 0 643 0 l 385 0 l 385 154 l 460 154 q 582 169 547 154 q 614 232 614 185 l 614 340 q 603 394 614 376 q 568 417 593 411 q 489 422 543 422 l 385 422 l 385 558 l 454 558 q 554 576 526 558 q 582 639 582 593 l 582 771 q 555 830 582 814 q 450 846 528 846 q 321 833 350 846 q 292 771 292 819 l 292 0 l 89 0 l 89 790 z "},"ſ":{"ha":444,"x_min":14,"x_max":553,"o":"m 140 547 l 14 547 l 14 672 l 140 672 l 140 774 q 167 902 140 856 q 251 967 194 949 q 401 986 307 986 q 553 975 453 986 l 553 850 q 433 861 464 861 q 363 845 382 861 q 343 785 343 829 l 343 0 l 140 0 l 140 547 z "},"t":{"ha":565,"x_min":14,"x_max":538,"o":"m 425 -14 q 339 -10 374 -14 q 269 7 304 -6 q 206 42 231 19 q 167 103 182 64 q 150 196 150 143 l 150 547 l 14 547 l 14 672 l 150 672 l 150 867 l 353 867 l 353 672 l 538 672 l 538 547 l 353 547 l 353 231 q 361 158 353 182 q 393 123 369 133 q 465 113 417 113 q 538 119 485 113 l 538 -7 q 425 -14 472 -14 z "},"ŧ":{"ha":565,"x_min":14,"x_max":538,"o":"m 425 -10 q 338 -6 372 -10 q 268 10 304 -3 q 206 42 229 21 q 167 103 182 64 q 150 196 150 143 l 150 329 l 14 329 l 14 450 l 150 450 l 150 551 l 14 551 l 14 672 l 150 672 l 150 881 l 353 881 l 353 672 l 538 672 l 538 551 l 353 551 l 353 450 l 538 450 l 538 329 l 353 329 l 353 231 q 359 153 353 175 q 388 122 365 131 q 465 114 411 114 q 538 121 485 114 l 538 -3 q 425 -10 472 -10 z "},"ť":{"ha":565,"x_min":14,"x_max":639,"o":"m 417 788 l 453 1014 l 639 1014 l 550 788 l 417 788 m 425 -14 q 339 -10 374 -14 q 269 7 304 -6 q 206 42 231 19 q 167 103 182 64 q 150 196 150 143 l 150 547 l 14 547 l 14 672 l 150 672 l 150 867 l 353 867 l 353 672 l 538 672 l 538 547 l 353 547 l 353 231 q 361 158 353 182 q 393 123 369 133 q 465 113 417 113 q 538 119 485 113 l 538 -7 q 425 -14 472 -14 z "},"ț":{"ha":565,"x_min":14,"x_max":538,"o":"m 425 -14 q 339 -10 374 -14 q 269 7 304 -6 q 206 42 231 19 q 167 103 182 64 q 150 196 150 143 l 150 547 l 14 547 l 14 672 l 150 672 l 150 867 l 353 867 l 353 672 l 538 672 l 538 547 l 353 547 l 353 231 q 361 158 353 182 q 393 123 369 133 q 465 113 417 113 q 538 119 485 113 l 538 -7 q 425 -14 472 -14 m 158 -289 l 222 -64 l 407 -64 l 292 -289 l 158 -289 z "},"u":{"ha":826,"x_min":89,"x_max":738,"o":"m 322 -14 q 141 33 193 -14 q 89 179 89 79 l 89 672 l 292 672 l 292 207 q 299 149 292 168 q 330 121 307 129 q 400 113 353 113 q 488 120 460 113 q 525 147 515 128 q 535 207 535 167 l 535 672 l 738 672 l 738 0 l 538 0 l 538 82 q 322 -14 515 -14 z "},"ú":{"ha":826,"x_min":89,"x_max":738,"o":"m 322 -14 q 141 33 193 -14 q 89 179 89 79 l 89 672 l 292 672 l 292 207 q 299 149 292 168 q 330 121 307 129 q 400 113 353 113 q 488 120 460 113 q 525 147 515 128 q 535 207 535 167 l 535 672 l 738 672 l 738 0 l 538 0 l 538 82 q 322 -14 515 -14 m 338 768 l 463 944 l 683 944 l 510 768 l 338 768 z "},"ŭ":{"ha":826,"x_min":89,"x_max":738,"o":"m 413 768 q 276 816 328 768 q 221 944 225 864 l 333 944 q 359 885 342 903 q 413 868 376 868 q 490 944 482 868 l 604 944 q 547 816 599 864 q 413 768 496 768 m 322 -14 q 141 33 193 -14 q 89 179 89 79 l 89 672 l 292 672 l 292 207 q 299 149 292 168 q 330 121 307 129 q 400 113 353 113 q 488 120 460 113 q 525 147 515 128 q 535 207 535 167 l 535 672 l 738 672 l 738 0 l 538 0 l 538 82 q 322 -14 515 -14 z "},"û":{"ha":826,"x_min":89,"x_max":738,"o":"m 204 768 l 282 944 l 542 944 l 622 768 l 486 768 l 413 889 l 340 768 l 204 768 m 322 -14 q 141 33 193 -14 q 89 179 89 79 l 89 672 l 292 672 l 292 207 q 299 149 292 168 q 330 121 307 129 q 400 113 353 113 q 488 120 460 113 q 525 147 515 128 q 535 207 535 167 l 535 672 l 738 672 l 738 0 l 538 0 l 538 82 q 322 -14 515 -14 z "},"ü":{"ha":826,"x_min":89,"x_max":738,"o":"m 193 785 l 193 949 l 368 949 l 368 785 l 193 785 m 457 785 l 457 949 l 632 949 l 632 785 l 457 785 m 322 -14 q 141 33 193 -14 q 89 179 89 79 l 89 672 l 292 672 l 292 207 q 299 149 292 168 q 330 121 307 129 q 400 113 353 113 q 488 120 460 113 q 525 147 515 128 q 535 207 535 167 l 535 672 l 738 672 l 738 0 l 538 0 l 538 82 q 322 -14 515 -14 z "},"ụ":{"ha":826,"x_min":89,"x_max":738,"o":"m 322 -14 q 141 33 193 -14 q 89 179 89 79 l 89 672 l 292 672 l 292 207 q 299 149 292 168 q 330 121 307 129 q 400 113 353 113 q 488 120 460 113 q 525 147 515 128 q 535 207 535 167 l 535 672 l 738 672 l 738 0 l 538 0 l 538 82 q 322 -14 515 -14 m 324 -247 l 324 -89 l 503 -89 l 503 -247 l 324 -247 z "},"ù":{"ha":826,"x_min":89,"x_max":738,"o":"m 322 -14 q 141 33 193 -14 q 89 179 89 79 l 89 672 l 292 672 l 292 207 q 299 149 292 168 q 330 121 307 129 q 400 113 353 113 q 488 120 460 113 q 525 147 515 128 q 535 207 535 167 l 535 672 l 738 672 l 738 0 l 538 0 l 538 82 q 322 -14 515 -14 m 328 768 l 154 944 l 375 944 l 500 768 l 328 768 z "},"ủ":{"ha":826,"x_min":89,"x_max":738,"o":"m 322 -14 q 141 33 193 -14 q 89 179 89 79 l 89 672 l 292 672 l 292 207 q 299 149 292 168 q 330 121 307 129 q 400 113 353 113 q 488 120 460 113 q 525 147 515 128 q 535 207 535 167 l 535 672 l 738 672 l 738 0 l 538 0 l 538 82 q 322 -14 515 -14 m 367 807 q 374 838 367 828 q 394 858 381 847 q 418 883 413 871 q 424 914 424 896 q 369 960 424 960 q 335 957 350 960 q 307 950 321 954 l 307 1040 q 368 1050 332 1050 q 489 1020 458 1050 q 519 926 519 990 q 515 875 519 892 q 497 847 511 858 q 480 834 492 843 q 463 816 468 825 q 457 794 457 807 l 367 794 l 367 807 z "},"ư":{"ha":826,"x_min":89,"x_max":889,"o":"m 889 793 q 879 674 889 719 q 836 598 869 629 q 738 553 803 567 l 738 0 l 538 0 l 538 82 q 322 -14 515 -14 q 141 33 193 -14 q 89 179 89 79 l 89 672 l 292 672 l 292 207 q 299 149 292 168 q 330 121 307 129 q 400 113 353 113 q 488 120 460 113 q 525 147 515 128 q 535 207 535 167 l 535 672 l 599 672 q 687 680 661 672 q 722 712 713 688 q 732 794 732 736 l 889 793 z "},"ứ":{"ha":826,"x_min":89,"x_max":889,"o":"m 889 793 q 879 674 889 719 q 836 598 869 629 q 738 553 803 567 l 738 0 l 538 0 l 538 82 q 322 -14 515 -14 q 141 33 193 -14 q 89 179 89 79 l 89 672 l 292 672 l 292 207 q 299 149 292 168 q 330 121 307 129 q 400 113 353 113 q 488 120 460 113 q 525 147 515 128 q 535 207 535 167 l 535 672 l 599 672 q 687 680 661 672 q 722 712 713 688 q 732 794 732 736 l 889 793 m 338 768 l 463 944 l 683 944 l 510 768 l 338 768 z "},"ự":{"ha":826,"x_min":89,"x_max":889,"o":"m 889 793 q 879 674 889 719 q 836 598 869 629 q 738 553 803 567 l 738 0 l 538 0 l 538 82 q 322 -14 515 -14 q 141 33 193 -14 q 89 179 89 79 l 89 672 l 292 672 l 292 207 q 299 149 292 168 q 330 121 307 129 q 400 113 353 113 q 488 120 460 113 q 525 147 515 128 q 535 207 535 167 l 535 672 l 599 672 q 687 680 661 672 q 722 712 713 688 q 732 794 732 736 l 889 793 m 324 -247 l 324 -89 l 503 -89 l 503 -247 l 324 -247 z "},"ừ":{"ha":826,"x_min":89,"x_max":889,"o":"m 889 793 q 879 674 889 719 q 836 598 869 629 q 738 553 803 567 l 738 0 l 538 0 l 538 82 q 322 -14 515 -14 q 141 33 193 -14 q 89 179 89 79 l 89 672 l 292 672 l 292 207 q 299 149 292 168 q 330 121 307 129 q 400 113 353 113 q 488 120 460 113 q 525 147 515 128 q 535 207 535 167 l 535 672 l 599 672 q 687 680 661 672 q 722 712 713 688 q 732 794 732 736 l 889 793 m 328 768 l 154 944 l 375 944 l 500 768 l 328 768 z "},"ử":{"ha":826,"x_min":89,"x_max":889,"o":"m 889 793 q 879 674 889 719 q 836 598 869 629 q 738 553 803 567 l 738 0 l 538 0 l 538 82 q 322 -14 515 -14 q 141 33 193 -14 q 89 179 89 79 l 89 672 l 292 672 l 292 207 q 299 149 292 168 q 330 121 307 129 q 400 113 353 113 q 488 120 460 113 q 525 147 515 128 q 535 207 535 167 l 535 672 l 599 672 q 687 680 661 672 q 722 712 713 688 q 732 794 732 736 l 889 793 m 367 807 q 374 838 367 828 q 394 858 381 847 q 418 883 413 871 q 424 914 424 896 q 369 960 424 960 q 335 957 350 960 q 307 950 321 954 l 307 1040 q 368 1050 332 1050 q 489 1020 458 1050 q 519 926 519 990 q 515 875 519 892 q 497 847 511 858 q 480 834 492 843 q 463 816 468 825 q 457 794 457 807 l 367 794 l 367 807 z "},"ữ":{"ha":826,"x_min":89,"x_max":889,"o":"m 889 793 q 879 674 889 719 q 836 598 869 629 q 738 553 803 567 l 738 0 l 538 0 l 538 82 q 322 -14 515 -14 q 141 33 193 -14 q 89 179 89 79 l 89 672 l 292 672 l 292 207 q 299 149 292 168 q 330 121 307 129 q 400 113 353 113 q 488 120 460 113 q 525 147 515 128 q 535 207 535 167 l 535 672 l 599 672 q 687 680 661 672 q 722 712 713 688 q 732 794 732 736 l 889 793 m 213 806 q 258 880 222 844 q 339 915 293 915 q 425 894 371 915 q 500 874 478 874 q 557 919 538 874 l 614 886 q 568 809 603 846 q 488 772 533 772 q 397 796 456 772 q 326 818 343 818 q 268 772 286 818 l 213 806 z "},"ű":{"ha":826,"x_min":89,"x_max":738,"o":"m 196 767 l 293 944 l 426 944 l 329 767 l 196 767 m 400 767 l 497 944 l 631 944 l 533 767 l 400 767 m 322 -14 q 141 33 193 -14 q 89 179 89 79 l 89 672 l 292 672 l 292 207 q 299 149 292 168 q 330 121 307 129 q 400 113 353 113 q 488 120 460 113 q 525 147 515 128 q 535 207 535 167 l 535 672 l 738 672 l 738 0 l 538 0 l 538 82 q 322 -14 515 -14 z "},"ū":{"ha":826,"x_min":89,"x_max":738,"o":"m 219 778 l 219 901 l 606 901 l 606 778 l 219 778 m 322 -14 q 141 33 193 -14 q 89 179 89 79 l 89 672 l 292 672 l 292 207 q 299 149 292 168 q 330 121 307 129 q 400 113 353 113 q 488 120 460 113 q 525 147 515 128 q 535 207 535 167 l 535 672 l 738 672 l 738 0 l 538 0 l 538 82 q 322 -14 515 -14 z "},"ų":{"ha":826,"x_min":89,"x_max":738,"o":"m 639 -258 q 535 -232 568 -258 q 501 -147 501 -206 q 538 0 501 -92 l 538 82 q 322 -14 515 -14 q 141 33 193 -14 q 89 179 89 79 l 89 672 l 292 672 l 292 207 q 299 149 292 168 q 330 121 307 129 q 400 113 353 113 q 488 120 460 113 q 525 147 515 128 q 535 207 535 167 l 535 672 l 738 672 l 738 0 q 642 -115 642 -61 q 653 -149 642 -137 q 694 -160 665 -160 q 736 -151 711 -160 l 736 -244 q 639 -258 708 -258 z "},"ů":{"ha":826,"x_min":89,"x_max":738,"o":"m 413 768 q 330 772 360 768 q 269 788 300 775 q 206 904 206 811 l 206 921 q 217 988 206 960 q 246 1032 228 1017 q 290 1054 261 1046 q 347 1064 319 1063 q 413 1065 364 1065 q 483 1064 460 1065 q 533 1054 506 1063 q 579 1031 563 1046 q 608 989 596 1017 q 619 921 619 960 l 619 904 q 557 788 619 811 q 495 772 525 775 q 413 768 465 768 m 413 840 q 490 851 471 840 q 510 894 510 861 l 510 932 q 503 972 510 960 q 476 989 496 985 q 413 993 457 993 q 349 989 368 993 q 322 972 329 985 q 315 932 315 960 l 315 894 q 335 851 315 861 q 413 840 354 840 m 322 -14 q 141 33 193 -14 q 89 179 89 79 l 89 672 l 292 672 l 292 207 q 299 149 292 168 q 330 121 307 129 q 400 113 353 113 q 488 120 460 113 q 525 147 515 128 q 535 207 535 167 l 535 672 l 738 672 l 738 0 l 538 0 l 538 82 q 322 -14 515 -14 z "},"ũ":{"ha":826,"x_min":89,"x_max":738,"o":"m 322 -14 q 141 33 193 -14 q 89 179 89 79 l 89 672 l 292 672 l 292 207 q 299 149 292 168 q 330 121 307 129 q 400 113 353 113 q 488 120 460 113 q 525 147 515 128 q 535 207 535 167 l 535 672 l 738 672 l 738 0 l 538 0 l 538 82 q 322 -14 515 -14 m 213 806 q 258 880 222 844 q 339 915 293 915 q 425 894 371 915 q 500 874 478 874 q 557 919 538 874 l 614 886 q 568 809 603 846 q 488 772 533 772 q 397 796 456 772 q 326 818 343 818 q 268 772 286 818 l 213 806 z "},"v":{"ha":708,"x_min":0,"x_max":708,"o":"m 256 0 l 0 672 l 215 672 l 363 207 l 504 672 l 708 672 l 461 0 l 256 0 z "},"w":{"ha":1142,"x_min":11,"x_max":1131,"o":"m 236 0 l 11 672 l 218 672 l 343 185 l 476 672 l 675 672 l 814 185 l 933 672 l 1131 672 l 911 0 l 706 0 l 572 454 l 442 0 l 236 0 z "},"ẃ":{"ha":1142,"x_min":11,"x_max":1131,"o":"m 397 768 l 522 944 l 743 944 l 569 768 l 397 768 m 236 0 l 11 672 l 218 672 l 343 185 l 476 672 l 675 672 l 814 185 l 933 672 l 1131 672 l 911 0 l 706 0 l 572 454 l 442 0 l 236 0 z "},"ŵ":{"ha":1142,"x_min":11,"x_max":1131,"o":"m 361 768 l 439 944 l 699 944 l 779 768 l 643 768 l 569 889 l 497 768 l 361 768 m 236 0 l 11 672 l 218 672 l 343 185 l 476 672 l 675 672 l 814 185 l 933 672 l 1131 672 l 911 0 l 706 0 l 572 454 l 442 0 l 236 0 z "},"ẅ":{"ha":1142,"x_min":11,"x_max":1131,"o":"m 351 785 l 351 949 l 526 949 l 526 785 l 351 785 m 615 785 l 615 949 l 790 949 l 790 785 l 615 785 m 236 0 l 11 672 l 218 672 l 343 185 l 476 672 l 675 672 l 814 185 l 933 672 l 1131 672 l 911 0 l 706 0 l 572 454 l 442 0 l 236 0 z "},"ẁ":{"ha":1142,"x_min":11,"x_max":1131,"o":"m 571 768 l 397 944 l 618 944 l 743 768 l 571 768 m 236 0 l 11 672 l 218 672 l 343 185 l 476 672 l 675 672 l 814 185 l 933 672 l 1131 672 l 911 0 l 706 0 l 572 454 l 442 0 l 236 0 z "},"x":{"ha":789,"x_min":14,"x_max":776,"o":"m 14 0 l 278 344 l 28 672 l 263 672 l 394 479 l 528 672 l 763 672 l 511 344 l 776 0 l 542 0 l 394 211 l 249 0 l 14 0 z "},"y":{"ha":742,"x_min":11,"x_max":731,"o":"m 157 -289 l 279 6 l 11 672 l 232 672 l 383 197 l 521 672 l 731 672 l 363 -289 l 157 -289 z "},"ý":{"ha":742,"x_min":11,"x_max":731,"o":"m 157 -289 l 279 6 l 11 672 l 232 672 l 383 197 l 521 672 l 731 672 l 363 -289 l 157 -289 m 294 768 l 419 944 l 640 944 l 467 768 l 294 768 z "},"ŷ":{"ha":742,"x_min":11,"x_max":731,"o":"m 161 768 l 239 944 l 499 944 l 579 768 l 443 768 l 369 889 l 297 768 l 161 768 m 157 -289 l 279 6 l 11 672 l 232 672 l 383 197 l 521 672 l 731 672 l 363 -289 l 157 -289 z "},"ÿ":{"ha":742,"x_min":11,"x_max":731,"o":"m 157 -289 l 279 6 l 11 672 l 232 672 l 383 197 l 521 672 l 731 672 l 363 -289 l 157 -289 m 151 785 l 151 949 l 326 949 l 326 785 l 151 785 m 415 785 l 415 949 l 590 949 l 590 785 l 415 785 z "},"ỵ":{"ha":742,"x_min":11,"x_max":731,"o":"m 157 -289 l 279 6 l 11 672 l 232 672 l 383 197 l 521 672 l 731 672 l 363 -289 l 157 -289 m 476 -247 l 476 -89 l 656 -89 l 656 -247 l 476 -247 z "},"ỳ":{"ha":742,"x_min":11,"x_max":731,"o":"m 157 -289 l 279 6 l 11 672 l 232 672 l 383 197 l 521 672 l 731 672 l 363 -289 l 157 -289 m 285 768 l 111 944 l 332 944 l 457 768 l 285 768 z "},"ỷ":{"ha":742,"x_min":11,"x_max":731,"o":"m 157 -289 l 279 6 l 11 672 l 232 672 l 383 197 l 521 672 l 731 672 l 363 -289 l 157 -289 m 324 807 q 331 838 324 828 q 351 858 338 847 q 375 883 369 871 q 381 914 381 896 q 326 960 381 960 q 292 957 307 960 q 264 950 278 954 l 264 1040 q 325 1050 289 1050 q 446 1020 415 1050 q 476 926 476 990 q 472 875 476 892 q 454 847 468 858 q 437 834 449 843 q 419 816 425 825 q 414 794 414 807 l 324 794 l 324 807 z "},"ỹ":{"ha":742,"x_min":11,"x_max":731,"o":"m 157 -289 l 279 6 l 11 672 l 232 672 l 383 197 l 521 672 l 731 672 l 363 -289 l 157 -289 m 169 806 q 215 880 179 844 q 296 915 250 915 q 382 894 328 915 q 457 874 435 874 q 514 919 494 874 l 571 886 q 525 809 560 846 q 444 772 490 772 q 354 796 413 772 q 283 818 300 818 q 225 772 243 818 l 169 806 z "},"z":{"ha":711,"x_min":56,"x_max":661,"o":"m 56 0 l 56 108 l 394 540 l 69 540 l 69 672 l 653 672 l 653 564 l 314 132 l 661 132 l 661 0 l 56 0 z "},"ź":{"ha":711,"x_min":56,"x_max":661,"o":"m 182 768 l 307 944 l 528 944 l 354 768 l 182 768 m 56 0 l 56 108 l 394 540 l 69 540 l 69 672 l 653 672 l 653 564 l 314 132 l 661 132 l 661 0 l 56 0 z "},"ž":{"ha":711,"x_min":56,"x_max":661,"o":"m 226 768 l 146 944 l 282 944 l 356 824 l 428 944 l 564 944 l 486 768 l 226 768 m 56 0 l 56 108 l 394 540 l 69 540 l 69 672 l 653 672 l 653 564 l 314 132 l 661 132 l 661 0 l 56 0 z "},"ż":{"ha":711,"x_min":56,"x_max":661,"o":"m 254 785 l 254 944 l 457 944 l 457 785 l 254 785 m 56 0 l 56 108 l 394 540 l 69 540 l 69 672 l 653 672 l 653 564 l 314 132 l 661 132 l 661 0 l 56 0 z "},"ﬁ":{"ha":883,"x_min":14,"x_max":789,"o":"m 140 547 l 14 547 l 14 672 l 140 672 l 140 774 q 167 902 140 856 q 251 967 194 949 q 401 986 307 986 q 521 979 449 986 l 521 854 q 433 861 461 861 q 363 845 382 861 q 343 785 343 829 l 343 672 l 514 672 l 514 547 l 343 547 l 343 0 l 140 0 l 140 547 m 586 808 l 586 972 l 789 972 l 789 808 l 586 808 m 586 0 l 586 672 l 789 672 l 789 0 l 586 0 z "},"ﬂ":{"ha":883,"x_min":14,"x_max":789,"o":"m 140 547 l 14 547 l 14 672 l 140 672 l 140 774 q 167 902 140 856 q 251 967 194 949 q 401 986 307 986 q 521 979 449 986 l 521 854 q 433 861 461 861 q 363 845 382 861 q 343 785 343 829 l 343 672 l 514 672 l 514 547 l 343 547 l 343 0 l 140 0 l 140 547 m 586 0 l 586 972 l 789 972 l 789 0 l 586 0 z "},"ª":{"ha":454,"x_min":51,"x_max":400,"o":"m 178 565 q 79 588 107 565 q 51 672 51 610 q 79 755 51 731 q 169 779 107 779 l 283 779 l 283 822 q 272 845 283 839 q 231 851 261 851 l 78 846 l 78 910 q 240 915 182 915 q 364 890 328 915 q 400 803 400 865 l 400 572 l 286 572 l 286 603 q 252 573 274 581 q 178 565 231 565 m 218 622 q 271 626 257 622 q 283 651 283 631 l 283 724 l 214 724 q 173 714 182 724 q 164 671 164 704 q 173 630 164 638 q 218 622 182 622 m 54 431 l 54 522 l 399 522 l 399 431 l 54 431 z "},"º":{"ha":482,"x_min":54,"x_max":428,"o":"m 242 565 q 175 569 201 565 q 119 583 149 572 q 56 688 56 607 l 56 786 q 121 897 56 871 q 176 912 150 908 q 242 915 203 915 q 308 912 281 915 q 364 897 335 908 q 428 786 428 872 l 428 688 q 364 583 428 607 q 308 569 335 572 q 242 565 282 565 m 242 626 q 297 635 283 626 q 311 671 311 644 l 311 806 q 297 845 311 835 q 242 856 283 856 q 187 845 201 856 q 172 806 172 835 l 172 671 q 186 635 172 644 q 242 626 200 626 m 54 431 l 54 522 l 399 522 l 399 431 l 54 431 z "},"А":{"ha":928,"x_min":3,"x_max":925,"o":"m 3 0 l 336 901 l 600 901 l 925 0 l 706 0 l 625 238 l 296 238 l 217 0 l 3 0 m 344 382 l 578 382 l 464 721 l 458 721 l 344 382 z "},"Б":{"ha":858,"x_min":97,"x_max":803,"o":"m 97 901 l 738 901 l 738 747 l 314 747 l 314 543 l 449 543 q 649 528 574 543 q 763 473 724 514 q 803 356 803 432 l 803 214 q 439 0 803 0 l 97 0 l 97 901 m 429 154 q 549 177 511 154 q 586 247 586 200 l 586 315 q 550 374 586 358 q 432 389 514 389 l 313 389 l 313 154 l 429 154 z "},"В":{"ha":882,"x_min":97,"x_max":831,"o":"m 97 901 l 463 901 q 662 883 592 901 q 761 823 732 864 q 790 708 790 782 l 790 597 q 760 526 790 560 q 690 481 731 493 l 690 474 q 787 428 743 468 q 831 340 831 389 l 831 201 q 743 46 831 92 q 472 0 656 0 l 97 0 l 97 901 m 463 535 q 539 543 514 535 q 573 570 564 551 q 582 625 582 589 l 582 669 q 574 717 582 701 q 540 740 565 733 q 458 747 514 747 l 314 747 l 314 535 l 463 535 m 468 154 q 581 172 547 154 q 614 231 614 190 l 614 303 q 588 374 614 353 q 497 394 563 394 l 314 394 l 314 154 l 468 154 z "},"Г":{"ha":726,"x_min":97,"x_max":699,"o":"m 97 0 l 97 901 l 699 901 l 699 747 l 314 747 l 314 0 l 97 0 z "},"Ѓ":{"ha":726,"x_min":97,"x_max":728,"o":"m 97 0 l 97 901 l 699 901 l 699 747 l 314 747 l 314 0 l 97 0 m 382 990 l 507 1167 l 728 1167 l 554 990 l 382 990 z "},"Ґ":{"ha":726,"x_min":97,"x_max":699,"o":"m 97 0 l 97 901 l 529 901 l 529 1094 l 699 1094 l 699 747 l 314 747 l 314 0 l 97 0 z "},"Д":{"ha":1025,"x_min":21,"x_max":994,"o":"m 21 154 l 40 154 q 133 198 97 154 q 188 358 168 242 q 207 689 207 475 l 207 901 l 863 901 l 863 154 l 994 154 l 994 -210 l 800 -210 l 800 0 l 215 0 l 215 -210 l 21 -210 l 21 154 m 646 153 l 646 749 l 401 749 l 401 638 q 311 153 401 286 l 646 153 z "},"Е":{"ha":847,"x_min":97,"x_max":799,"o":"m 97 0 l 97 901 l 785 901 l 785 747 l 314 747 l 314 540 l 739 540 l 739 386 l 314 386 l 314 154 l 799 154 l 799 0 l 97 0 z "},"Ѐ":{"ha":847,"x_min":97,"x_max":799,"o":"m 97 0 l 97 901 l 785 901 l 785 747 l 314 747 l 314 540 l 739 540 l 739 386 l 314 386 l 314 154 l 799 154 l 799 0 l 97 0 m 408 990 l 235 1167 l 456 1167 l 581 990 l 408 990 z "},"Ё":{"ha":847,"x_min":97,"x_max":799,"o":"m 97 0 l 97 901 l 785 901 l 785 747 l 314 747 l 314 540 l 739 540 l 739 386 l 314 386 l 314 154 l 799 154 l 799 0 l 97 0 m 246 1021 l 246 1185 l 421 1185 l 421 1021 l 246 1021 m 510 1021 l 510 1185 l 685 1185 l 685 1021 l 510 1021 z "},"Ж":{"ha":1360,"x_min":7,"x_max":1353,"o":"m 167 294 q 258 419 211 376 q 374 479 304 463 l 374 482 q 288 534 319 503 q 214 631 256 565 l 42 901 l 282 901 l 431 657 q 501 565 472 589 q 574 542 529 542 l 574 901 l 786 901 l 786 542 q 859 565 831 542 q 929 657 888 589 l 1078 901 l 1318 901 l 1146 631 q 1072 534 1104 565 q 986 482 1040 503 l 986 479 q 1102 419 1056 463 q 1193 294 1149 376 l 1353 0 l 1113 0 l 965 265 q 913 349 933 324 q 864 385 892 375 q 786 396 836 396 l 786 0 l 574 0 l 574 396 q 496 385 524 396 q 447 349 468 375 q 394 265 426 324 l 247 0 l 7 0 l 167 294 z "},"З":{"ha":792,"x_min":42,"x_max":740,"o":"m 371 -14 q 42 17 185 -14 l 42 181 q 201 149 139 158 q 338 140 264 140 q 483 162 443 140 q 524 231 524 183 l 524 318 q 481 374 524 361 q 347 386 439 386 l 168 386 l 168 540 l 347 540 q 439 549 408 540 q 481 573 469 557 q 492 619 492 589 l 492 690 q 458 747 492 733 q 338 761 425 761 q 60 721 222 761 l 60 883 q 378 915 229 915 q 631 876 553 915 q 708 739 708 836 l 708 594 q 681 524 708 554 q 614 485 653 494 l 614 481 q 740 346 740 444 l 740 200 q 647 40 740 93 q 371 -14 553 -14 z "},"И":{"ha":1017,"x_min":97,"x_max":919,"o":"m 97 0 l 97 901 l 314 901 l 314 285 l 703 901 l 919 901 l 919 0 l 703 0 l 703 626 l 314 0 l 97 0 z "},"Й":{"ha":1017,"x_min":97,"x_max":919,"o":"m 97 0 l 97 901 l 314 901 l 314 285 l 703 901 l 919 901 l 919 0 l 703 0 l 703 626 l 314 0 l 97 0 m 510 997 q 301 1058 372 997 q 231 1215 231 1118 l 404 1215 q 435 1131 411 1156 q 510 1106 460 1106 q 584 1131 560 1106 q 615 1215 608 1156 l 789 1215 q 718 1058 789 1118 q 510 997 647 997 z "},"Ѝ":{"ha":1017,"x_min":97,"x_max":919,"o":"m 97 0 l 97 901 l 314 901 l 314 285 l 703 901 l 919 901 l 919 0 l 703 0 l 703 626 l 314 0 l 97 0 m 451 990 l 278 1167 l 499 1167 l 624 990 l 451 990 z "},"К":{"ha":910,"x_min":97,"x_max":907,"o":"m 97 901 l 314 901 l 314 546 q 413 569 375 546 q 494 657 450 592 l 664 901 l 907 901 l 713 631 q 631 535 668 568 q 540 482 594 503 l 540 479 q 656 419 610 463 q 747 294 703 376 l 907 0 l 664 0 l 517 265 q 460 345 488 318 q 400 382 433 372 q 314 392 367 392 l 314 0 l 97 0 l 97 901 z "},"Ќ":{"ha":910,"x_min":97,"x_max":907,"o":"m 97 901 l 314 901 l 314 546 q 413 569 375 546 q 494 657 450 592 l 664 901 l 907 901 l 713 631 q 631 535 668 568 q 540 482 594 503 l 540 479 q 656 419 610 463 q 747 294 703 376 l 907 0 l 664 0 l 517 265 q 460 345 488 318 q 400 382 433 372 q 314 392 367 392 l 314 0 l 97 0 l 97 901 m 400 990 l 525 1167 l 746 1167 l 572 990 l 400 990 z "},"Л":{"ha":1044,"x_min":61,"x_max":947,"o":"m 144 -11 q 97 -6 122 -11 q 61 0 72 -1 l 61 169 q 113 165 92 165 q 219 205 182 165 q 274 363 257 244 q 292 721 292 481 l 292 901 l 947 901 l 947 0 l 731 0 l 731 749 l 488 749 l 488 624 q 441 226 488 367 q 320 38 394 86 q 144 -11 246 -11 z "},"М":{"ha":1235,"x_min":97,"x_max":1138,"o":"m 97 0 l 97 901 l 406 901 l 628 257 l 847 901 l 1138 901 l 1138 0 l 942 0 l 942 667 l 938 667 l 710 0 l 536 0 l 301 667 l 296 667 l 296 0 l 97 0 z "},"Н":{"ha":1011,"x_min":97,"x_max":914,"o":"m 97 0 l 97 901 l 314 901 l 314 540 l 697 540 l 697 901 l 914 901 l 914 0 l 697 0 l 697 386 l 314 386 l 314 0 l 97 0 z "},"О":{"ha":1011,"x_min":78,"x_max":933,"o":"m 504 -14 q 366 -4 429 -14 q 235 29 303 6 q 119 110 161 54 q 78 247 78 167 l 78 642 q 108 761 78 708 q 185 844 138 814 q 288 889 226 871 q 401 911 349 907 q 504 915 450 915 q 615 910 568 915 q 721 890 663 906 q 831 843 788 871 q 903 765 874 815 q 933 642 933 714 l 933 247 q 894 118 933 172 q 785 36 854 64 q 504 -14 660 -14 m 507 140 q 584 144 553 140 q 649 157 615 147 q 699 190 682 167 q 717 247 717 213 l 717 643 q 665 734 717 707 q 506 761 614 761 q 346 735 397 761 q 294 643 294 708 l 294 247 q 313 190 294 213 q 365 157 331 167 q 430 144 399 147 q 507 140 461 140 z "},"П":{"ha":989,"x_min":97,"x_max":892,"o":"m 97 0 l 97 901 l 892 901 l 892 0 l 675 0 l 675 749 l 314 749 l 314 0 l 97 0 z "},"Р":{"ha":871,"x_min":97,"x_max":815,"o":"m 97 901 l 458 901 q 667 883 590 901 q 780 820 744 865 q 815 694 815 775 l 815 524 q 777 385 815 435 q 656 314 739 335 q 433 293 574 293 l 314 293 l 314 0 l 97 0 l 97 901 m 451 442 q 571 462 536 442 q 606 531 606 482 l 606 675 q 572 733 606 719 q 449 747 540 747 l 314 747 l 314 442 l 451 442 z "},"С":{"ha":829,"x_min":78,"x_max":788,"o":"m 496 -14 q 387 -8 435 -14 q 282 13 339 -3 q 176 56 218 29 q 107 132 135 83 q 78 247 78 181 l 78 643 q 496 915 78 915 q 782 885 603 915 l 782 722 q 499 761 621 761 q 419 758 447 761 q 360 744 390 756 q 294 646 294 722 l 294 263 q 518 140 294 140 q 788 181 614 140 l 788 17 q 496 -14 639 -14 z "},"Т":{"ha":826,"x_min":28,"x_max":799,"o":"m 306 0 l 306 747 l 28 747 l 28 901 l 799 901 l 799 747 l 522 747 l 522 0 l 306 0 z "},"У":{"ha":844,"x_min":3,"x_max":858,"o":"m 228 -14 q 107 0 178 -14 l 107 158 q 165 146 136 151 q 219 140 193 140 q 285 159 258 140 q 332 217 313 178 l 351 257 l 3 901 l 229 901 l 456 449 l 461 449 l 640 901 l 858 901 l 532 178 q 419 32 488 78 q 228 -14 351 -14 z "},"Ў":{"ha":844,"x_min":3,"x_max":858,"o":"m 228 -14 q 107 0 178 -14 l 107 158 q 165 146 136 151 q 219 140 193 140 q 285 159 258 140 q 332 217 313 178 l 351 257 l 3 901 l 229 901 l 456 449 l 461 449 l 640 901 l 858 901 l 532 178 q 419 32 488 78 q 228 -14 351 -14 m 444 997 q 236 1058 307 997 q 165 1215 165 1118 l 339 1215 q 370 1131 346 1156 q 444 1106 394 1106 q 519 1131 494 1106 q 550 1215 543 1156 l 724 1215 q 653 1058 724 1118 q 444 997 582 997 z "},"Ф":{"ha":1075,"x_min":74,"x_max":1001,"o":"m 431 104 q 176 167 279 104 q 74 361 74 231 l 74 581 q 178 784 74 719 q 431 849 282 849 l 431 964 l 644 964 l 644 849 q 897 783 792 849 q 1001 581 1001 718 l 1001 361 q 951 219 1001 278 q 820 133 901 161 q 644 104 739 104 l 644 -14 l 431 -14 l 431 104 m 433 706 q 331 675 371 706 q 290 594 290 644 l 290 350 q 331 276 290 303 q 433 249 372 249 l 433 706 m 642 247 q 744 275 703 247 q 785 350 785 303 l 785 594 q 744 675 785 644 q 642 706 704 706 l 642 247 z "},"Х":{"ha":940,"x_min":14,"x_max":928,"o":"m 14 0 l 346 460 l 28 901 l 278 901 l 471 601 l 663 901 l 913 901 l 594 460 l 928 0 l 676 0 l 471 319 l 264 0 l 14 0 z "},"Ч":{"ha":929,"x_min":79,"x_max":832,"o":"m 615 344 q 350 282 504 282 q 158 341 236 282 q 79 542 79 400 l 79 901 l 293 901 l 293 558 q 326 469 293 492 q 411 446 358 446 q 525 464 469 446 q 615 510 581 482 l 615 901 l 832 901 l 832 0 l 615 0 l 615 344 z "},"Ц":{"ha":1008,"x_min":97,"x_max":978,"o":"m 783 -210 l 783 0 l 97 0 l 97 901 l 314 901 l 314 153 l 628 153 l 628 901 l 844 901 l 844 154 l 978 154 l 978 -210 l 783 -210 z "},"Ш":{"ha":1411,"x_min":97,"x_max":1314,"o":"m 97 0 l 97 901 l 314 901 l 314 153 l 597 153 l 597 901 l 814 901 l 814 153 l 1097 153 l 1097 901 l 1314 901 l 1314 0 l 97 0 z "},"Щ":{"ha":1478,"x_min":97,"x_max":1447,"o":"m 1253 -210 l 1253 0 l 97 0 l 97 901 l 314 901 l 314 153 l 597 153 l 597 901 l 814 901 l 814 153 l 1097 153 l 1097 901 l 1314 901 l 1314 154 l 1447 154 l 1447 -210 l 1253 -210 z "},"Џ":{"ha":989,"x_min":97,"x_max":892,"o":"m 397 -233 l 397 0 l 97 0 l 97 901 l 314 901 l 314 153 l 675 153 l 675 901 l 892 901 l 892 0 l 592 0 l 592 -233 l 397 -233 z "},"Ь":{"ha":858,"x_min":97,"x_max":803,"o":"m 97 901 l 314 901 l 314 571 l 422 571 q 634 559 556 571 q 758 506 713 547 q 803 383 803 465 l 803 214 q 439 0 803 0 l 97 0 l 97 901 m 429 154 q 549 177 511 154 q 586 247 586 200 l 586 343 q 550 401 586 386 q 432 417 514 417 l 313 417 l 313 154 l 429 154 z "},"Ъ":{"ha":1065,"x_min":28,"x_max":1010,"o":"m 304 747 l 28 747 l 28 901 l 521 901 l 521 571 l 629 571 q 842 558 764 571 q 965 505 921 546 q 1010 382 1010 464 l 1010 214 q 646 0 1010 0 l 304 0 l 304 747 m 636 154 q 756 177 718 154 q 793 247 793 200 l 793 342 q 757 400 793 385 q 639 415 721 415 l 519 415 l 519 154 l 636 154 z "},"Ы":{"ha":1244,"x_min":97,"x_max":1147,"o":"m 97 901 l 314 901 l 314 571 l 428 571 q 628 558 551 571 q 749 505 704 546 q 793 383 793 464 l 793 214 q 429 0 793 0 l 97 0 l 97 901 m 931 0 l 931 901 l 1147 901 l 1147 0 l 931 0 m 419 154 q 539 177 501 154 q 576 247 576 200 l 576 343 q 540 401 576 386 q 422 417 504 417 l 313 417 l 313 154 l 419 154 z "},"Љ":{"ha":1492,"x_min":61,"x_max":1436,"o":"m 144 -11 q 97 -6 122 -11 q 61 0 72 -1 l 61 169 q 113 165 92 165 q 219 205 182 165 q 274 363 257 244 q 292 721 292 481 l 292 901 l 947 901 l 947 571 l 1067 571 q 1271 559 1194 571 q 1392 506 1347 547 q 1436 383 1436 465 l 1436 214 q 1072 0 1436 0 l 731 0 l 731 749 l 488 749 l 488 624 q 441 226 488 367 q 320 38 394 86 q 144 -11 246 -11 m 1063 154 q 1182 177 1144 154 q 1219 247 1219 200 l 1219 343 q 1183 401 1219 386 q 1065 417 1147 417 l 946 417 l 946 154 l 1063 154 z "},"Њ":{"ha":1458,"x_min":97,"x_max":1403,"o":"m 97 901 l 314 901 l 314 540 l 697 540 l 697 901 l 914 901 l 914 571 l 1033 571 q 1238 559 1161 571 q 1358 506 1314 547 q 1403 383 1403 465 l 1403 214 q 1039 0 1403 0 l 697 0 l 697 386 l 314 386 l 314 0 l 97 0 l 97 901 m 1029 154 q 1149 177 1111 154 q 1186 247 1186 200 l 1186 343 q 1150 401 1186 386 q 1032 417 1114 417 l 913 417 l 913 154 l 1029 154 z "},"Ѕ":{"ha":842,"x_min":51,"x_max":789,"o":"m 389 -14 q 69 11 260 -14 l 69 176 q 392 140 306 140 q 572 233 572 140 l 572 292 q 547 360 572 336 q 454 383 521 383 l 349 383 q 51 619 51 383 l 51 686 q 150 860 51 804 q 463 915 249 915 q 744 897 574 915 l 744 736 q 456 761 535 761 q 308 743 346 761 q 268 682 268 724 l 268 618 q 388 547 268 547 l 496 547 q 719 490 650 547 q 789 317 789 433 l 789 257 q 674 39 789 96 q 551 -2 618 10 q 389 -14 483 -14 z "},"Є":{"ha":829,"x_min":78,"x_max":788,"o":"m 496 -14 q 207 38 336 -14 q 78 247 78 90 l 78 643 q 496 915 78 915 q 782 885 603 915 l 782 722 q 499 761 621 761 q 395 755 436 761 q 324 724 354 749 q 294 646 294 699 l 294 540 l 667 540 l 667 386 l 294 386 l 294 263 q 518 140 294 140 q 788 181 614 140 l 788 17 q 496 -14 639 -14 z "},"Э":{"ha":829,"x_min":42,"x_max":751,"o":"m 333 -14 q 42 17 190 -14 l 42 181 q 311 140 215 140 q 535 263 535 140 l 535 386 l 164 386 l 164 540 l 535 540 l 535 646 q 504 724 535 699 q 432 755 474 749 q 326 761 390 761 q 56 721 229 761 l 56 883 q 347 915 226 915 q 571 897 486 915 q 703 819 656 878 q 751 643 751 760 l 751 247 q 724 134 751 183 q 651 56 696 85 q 508 2 593 18 q 333 -14 424 -14 z "},"І":{"ha":411,"x_min":97,"x_max":314,"o":"m 97 0 l 97 901 l 314 901 l 314 0 l 97 0 z "},"Ї":{"ha":411,"x_min":-14,"x_max":425,"o":"m 97 0 l 97 901 l 314 901 l 314 0 l 97 0 m -14 1021 l -14 1185 l 161 1185 l 161 1021 l -14 1021 m 250 1021 l 250 1185 l 425 1185 l 425 1021 l 250 1021 z "},"Ј":{"ha":618,"x_min":26,"x_max":524,"o":"m 214 -14 q 26 0 119 -14 l 26 158 q 197 140 125 140 q 307 239 307 140 l 307 901 l 524 901 l 524 246 q 447 45 524 104 q 214 -14 371 -14 z "},"Ћ":{"ha":1082,"x_min":28,"x_max":1003,"o":"m 250 747 l 28 747 l 28 901 l 799 901 l 799 747 l 467 747 l 467 521 q 732 583 589 583 q 924 524 846 583 q 1003 324 1003 465 l 1003 0 l 789 0 l 789 307 q 756 397 789 374 q 671 419 724 419 q 557 401 613 419 q 467 356 501 383 l 467 0 l 250 0 l 250 747 z "},"Ю":{"ha":1414,"x_min":97,"x_max":1336,"o":"m 914 -14 q 618 42 742 -14 q 494 247 494 99 l 494 386 l 314 386 l 314 0 l 97 0 l 97 901 l 314 901 l 314 540 l 494 540 l 494 642 q 622 860 494 806 q 914 915 750 915 q 1210 858 1083 915 q 1336 642 1336 801 l 1336 247 q 1211 47 1336 107 q 914 -14 1086 -14 m 917 140 q 1067 162 1015 140 q 1119 247 1119 183 l 1119 643 q 1071 734 1119 707 q 915 761 1022 761 q 759 735 807 761 q 711 643 711 708 l 711 247 q 765 163 711 185 q 917 140 818 140 z "},"Я":{"ha":928,"x_min":28,"x_max":831,"o":"m 264 350 q 133 406 176 361 q 90 532 90 450 l 90 711 q 171 858 90 814 q 432 901 251 901 l 831 901 l 831 0 l 614 0 l 614 333 l 486 333 l 275 0 l 28 0 l 264 350 m 614 476 l 614 747 l 435 747 q 333 728 363 747 q 303 660 303 710 l 303 575 q 331 497 303 517 q 435 476 358 476 l 614 476 z "},"Ђ":{"ha":1054,"x_min":28,"x_max":999,"o":"m 713 -14 q 610 0 656 -14 l 610 158 q 694 144 668 144 q 769 178 749 144 q 789 282 789 211 q 671 419 789 419 q 557 401 613 419 q 467 356 501 383 l 467 0 l 250 0 l 250 747 l 28 747 l 28 901 l 799 901 l 799 747 l 467 747 l 467 521 q 732 583 589 583 q 926 508 853 583 q 999 288 999 432 q 927 64 999 142 q 713 -14 856 -14 z "},"Ѣ":{"ha":1032,"x_min":28,"x_max":976,"o":"m 271 639 l 28 639 l 28 793 l 271 793 l 271 915 l 488 915 l 488 793 l 771 793 l 771 639 l 488 639 l 488 540 l 596 540 q 808 528 729 540 q 931 476 886 517 q 976 353 976 435 l 976 214 q 613 0 976 0 l 271 0 l 271 639 m 603 154 q 722 177 685 154 q 760 247 760 200 l 760 313 q 724 371 760 356 q 606 386 688 386 l 486 386 l 486 154 l 603 154 z "},"Ѫ":{"ha":1360,"x_min":7,"x_max":1353,"o":"m 167 294 q 289 455 222 396 q 464 514 356 514 l 472 514 l 165 901 l 1190 901 l 883 514 l 894 514 q 1070 455 1003 514 q 1193 294 1138 396 l 1353 0 l 1113 0 l 965 265 q 915 342 936 317 q 864 380 893 368 q 786 392 835 392 l 786 0 l 574 0 l 574 392 q 496 380 525 392 q 445 342 467 368 q 394 265 424 317 l 247 0 l 7 0 l 167 294 m 676 514 l 679 514 l 871 761 l 485 761 l 676 514 z "},"Ѳ":{"ha":1011,"x_min":78,"x_max":933,"o":"m 903 765 q 933 642 933 714 l 933 247 q 894 118 933 172 q 785 36 854 64 q 504 -14 660 -14 q 366 -4 429 -14 q 235 29 303 6 q 119 110 161 54 q 78 247 78 167 l 78 642 q 108 761 78 708 q 185 844 138 814 q 288 889 226 871 q 401 911 349 907 q 504 915 450 915 q 615 910 568 915 q 721 890 663 906 q 831 843 788 871 q 903 765 874 815 m 506 761 q 346 735 397 761 q 294 643 294 708 l 294 540 l 717 540 l 717 643 q 665 734 717 707 q 506 761 614 761 m 649 157 q 699 190 682 167 q 717 247 717 213 l 717 386 l 294 386 l 294 247 q 313 190 294 213 q 365 157 331 167 q 430 144 399 147 q 507 140 461 140 q 584 144 553 140 q 649 157 615 147 z "},"Ѵ":{"ha":1025,"x_min":0,"x_max":1025,"o":"m 0 901 l 219 901 l 458 181 l 464 181 l 596 583 q 680 790 640 719 q 767 888 719 861 q 888 915 815 915 q 1025 879 943 915 l 990 733 q 924 743 942 743 q 875 729 894 743 q 834 674 856 715 q 782 546 813 632 l 586 0 l 321 0 l 0 901 z "},"Ғ":{"ha":778,"x_min":28,"x_max":750,"o":"m 149 0 l 149 372 l 28 372 l 28 526 l 149 526 l 149 901 l 750 901 l 750 747 l 365 747 l 365 526 l 618 526 l 618 372 l 365 372 l 365 0 l 149 0 z "},"Ҕ":{"ha":901,"x_min":97,"x_max":846,"o":"m 536 583 q 765 498 685 583 q 846 235 846 413 q 801 8 846 103 q 678 -137 756 -87 q 506 -186 600 -186 q 401 -172 447 -186 l 401 -14 q 486 -28 460 -28 q 599 35 563 -28 q 636 214 636 99 q 590 369 636 318 q 457 419 543 419 q 314 394 393 419 l 314 0 l 97 0 l 97 901 l 699 901 l 699 747 l 314 747 l 314 549 q 536 583 435 583 z "},"Җ":{"ha":1439,"x_min":14,"x_max":1408,"o":"m 1214 0 l 1119 0 l 972 265 q 919 349 940 324 q 871 385 899 375 q 793 396 843 396 l 793 0 l 581 0 l 581 396 q 503 385 531 396 q 454 349 475 375 q 401 265 433 324 l 254 0 l 14 0 l 174 294 q 265 419 218 376 q 381 479 311 463 l 381 482 q 294 534 326 503 q 221 631 263 565 l 49 901 l 289 901 l 438 657 q 508 565 479 589 q 581 542 536 542 l 581 901 l 793 901 l 793 542 q 866 565 838 542 q 936 657 894 589 l 1085 901 l 1325 901 l 1153 631 q 1079 534 1111 565 q 993 482 1047 503 l 993 479 q 1109 419 1063 463 q 1200 294 1156 376 l 1276 154 l 1408 154 l 1408 -210 l 1214 -210 l 1214 0 z "},"Ҙ":{"ha":792,"x_min":42,"x_max":740,"o":"m 614 481 q 740 346 740 444 l 740 200 q 428 -12 740 4 q 476 -99 460 -61 q 493 -174 493 -137 q 453 -274 493 -243 q 331 -306 414 -306 q 271 -301 293 -306 q 231 -289 249 -297 l 231 -181 q 279 -190 258 -190 q 328 -177 314 -190 q 343 -136 343 -164 q 292 -12 343 -83 q 42 17 163 -8 l 42 181 q 201 149 139 158 q 338 140 264 140 q 483 162 443 140 q 524 231 524 183 l 524 318 q 481 374 524 361 q 347 386 439 386 l 168 386 l 168 540 l 347 540 q 439 549 408 540 q 481 573 469 557 q 492 619 492 589 l 492 690 q 458 747 492 733 q 338 761 425 761 q 60 721 222 761 l 60 883 q 378 915 229 915 q 631 876 553 915 q 708 739 708 836 l 708 594 q 681 524 708 554 q 614 485 653 494 l 614 481 z "},"Қ":{"ha":988,"x_min":97,"x_max":957,"o":"m 763 0 l 664 0 l 517 265 q 460 345 488 318 q 400 382 433 372 q 314 392 367 392 l 314 0 l 97 0 l 97 901 l 314 901 l 314 546 q 413 569 375 546 q 494 657 450 592 l 664 901 l 907 901 l 713 631 q 631 535 668 568 q 540 482 594 503 l 540 479 q 656 419 610 463 q 747 294 703 376 l 824 154 l 957 154 l 957 -210 l 763 -210 l 763 0 z "},"Ҝ":{"ha":979,"x_min":97,"x_max":976,"o":"m 97 901 l 314 901 l 314 546 q 383 547 363 546 l 383 739 l 511 739 l 511 593 q 564 657 529 610 l 733 901 l 976 901 l 782 631 q 701 535 738 568 q 610 482 664 503 l 610 479 q 726 419 679 463 q 817 294 772 376 l 976 0 l 733 0 l 586 265 q 511 360 547 335 l 511 200 l 383 200 l 383 390 q 314 392 363 392 l 314 0 l 97 0 l 97 901 z "},"Ҡ":{"ha":1117,"x_min":28,"x_max":1114,"o":"m 304 747 l 28 747 l 28 901 l 521 901 l 521 546 q 619 569 582 546 q 701 657 657 592 l 871 901 l 1114 901 l 919 631 q 838 535 875 568 q 747 482 801 503 l 747 479 q 863 419 817 463 q 954 294 910 376 l 1114 0 l 871 0 l 724 265 q 667 345 694 318 q 607 382 640 372 q 521 392 574 392 l 521 0 l 304 0 l 304 747 z "},"Ң":{"ha":1078,"x_min":97,"x_max":1047,"o":"m 853 -210 l 853 0 l 697 0 l 697 386 l 314 386 l 314 0 l 97 0 l 97 901 l 314 901 l 314 540 l 697 540 l 697 901 l 914 901 l 914 154 l 1047 154 l 1047 -210 l 853 -210 z "},"Ԥ":{"ha":1056,"x_min":97,"x_max":1025,"o":"m 831 -210 l 831 0 l 675 0 l 675 749 l 314 749 l 314 0 l 97 0 l 97 901 l 892 901 l 892 154 l 1025 154 l 1025 -210 l 831 -210 z "},"Ҫ":{"ha":829,"x_min":78,"x_max":788,"o":"m 788 17 q 525 -14 656 -10 q 574 -100 557 -62 q 590 -174 590 -137 q 551 -274 590 -243 q 428 -306 511 -306 q 368 -301 390 -306 q 328 -289 346 -297 l 328 -181 q 376 -190 356 -190 q 426 -177 411 -190 q 440 -136 440 -164 q 386 -8 440 -83 q 282 13 325 0 q 176 56 218 29 q 107 132 135 83 q 78 247 78 181 l 78 643 q 496 915 78 915 q 782 885 603 915 l 782 722 q 499 761 621 761 q 419 758 447 761 q 360 744 390 756 q 294 646 294 722 l 294 263 q 518 140 294 140 q 788 181 614 140 l 788 17 z "},"Ү":{"ha":894,"x_min":11,"x_max":883,"o":"m 339 0 l 339 361 l 11 901 l 257 901 l 449 549 l 636 901 l 883 901 l 556 364 l 556 0 l 339 0 z "},"Ұ":{"ha":894,"x_min":11,"x_max":883,"o":"m 339 0 l 339 361 l 304 418 l 82 418 l 82 572 l 210 572 l 11 901 l 257 901 l 449 549 l 636 901 l 883 901 l 682 572 l 813 572 l 813 418 l 589 418 l 556 364 l 556 0 l 339 0 z "},"Ҷ":{"ha":996,"x_min":79,"x_max":965,"o":"m 771 0 l 615 0 l 615 344 q 350 282 504 282 q 158 341 236 282 q 79 542 79 400 l 79 901 l 293 901 l 293 558 q 326 469 293 492 q 411 446 358 446 q 525 464 469 446 q 615 510 581 482 l 615 901 l 832 901 l 832 154 l 965 154 l 965 -210 l 771 -210 l 771 0 z "},"Ҹ":{"ha":951,"x_min":79,"x_max":854,"o":"m 638 351 q 525 310 593 326 l 525 151 l 397 151 l 397 290 q 350 289 382 289 q 158 348 236 289 q 79 549 79 407 l 79 901 l 293 901 l 293 565 q 322 480 293 504 q 397 453 351 456 l 397 635 l 525 635 l 525 467 q 638 517 603 488 l 638 901 l 854 901 l 854 0 l 638 0 l 638 351 z "},"Һ":{"ha":908,"x_min":76,"x_max":829,"o":"m 76 901 l 293 901 l 293 557 q 558 619 404 619 q 751 560 672 619 q 829 360 829 501 l 829 0 l 615 0 l 615 343 q 583 433 615 410 q 497 456 550 456 q 383 438 439 456 q 293 392 328 419 l 293 0 l 76 0 l 76 901 z "},"Ӏ":{"ha":411,"x_min":97,"x_max":314,"o":"m 97 0 l 97 901 l 314 901 l 314 0 l 97 0 z "},"Ӂ":{"ha":1410,"x_min":-8,"x_max":1418,"o":"m 704 997 q 568 1045 619 997 q 513 1174 517 1093 l 625 1174 q 651 1115 633 1132 q 704 1097 668 1097 q 782 1174 774 1097 l 896 1174 q 839 1045 890 1093 q 704 997 788 997 m 189 294 q 301 431 244 378 q 393 493 357 485 q 338 525 360 506 q 292 585 317 544 l 236 675 q 199 726 213 713 q 166 743 186 739 q 96 747 146 747 l 39 747 l 39 901 l 138 901 q 259 890 217 901 q 333 849 301 879 q 406 751 365 818 l 501 593 q 527 558 517 568 q 553 545 538 549 q 603 542 569 542 l 603 901 l 807 901 l 807 542 q 856 545 840 542 q 883 558 872 549 q 908 593 893 568 l 1004 751 q 1076 849 1044 818 q 1151 890 1108 879 q 1272 901 1193 901 l 1371 901 l 1371 747 l 1314 747 q 1244 743 1264 747 q 1210 726 1224 739 q 1174 675 1197 713 l 1118 585 q 1072 525 1093 544 q 1017 493 1050 506 q 1109 431 1053 485 q 1221 294 1165 378 l 1418 0 l 1167 0 l 994 265 q 933 351 957 325 q 882 384 908 376 q 807 392 856 392 l 807 0 l 603 0 l 603 392 q 528 384 554 392 q 477 351 501 376 q 415 265 453 325 l 243 0 l -8 0 l 189 294 z "},"Ӌ":{"ha":929,"x_min":79,"x_max":832,"o":"m 482 154 l 615 154 l 615 344 q 350 282 504 282 q 158 341 236 282 q 79 542 79 400 l 79 901 l 293 901 l 293 558 q 326 469 293 492 q 411 446 358 446 q 525 464 469 446 q 615 510 581 482 l 615 901 l 832 901 l 832 0 l 676 0 l 676 -210 l 482 -210 l 482 154 z "},"Ӑ":{"ha":928,"x_min":3,"x_max":925,"o":"m 3 0 l 336 901 l 600 901 l 925 0 l 706 0 l 625 238 l 296 238 l 217 0 l 3 0 m 344 382 l 578 382 l 464 721 l 458 721 l 344 382 m 465 997 q 257 1058 328 997 q 186 1215 186 1118 l 360 1215 q 391 1131 367 1156 q 465 1106 415 1106 q 540 1131 515 1106 q 571 1215 564 1156 l 744 1215 q 674 1058 744 1118 q 465 997 603 997 z "},"Ӓ":{"ha":928,"x_min":3,"x_max":925,"o":"m 3 0 l 336 901 l 600 901 l 925 0 l 706 0 l 625 238 l 296 238 l 217 0 l 3 0 m 344 382 l 578 382 l 464 721 l 458 721 l 344 382 m 244 1021 l 244 1185 l 419 1185 l 419 1021 l 244 1021 m 508 1021 l 508 1185 l 683 1185 l 683 1021 l 508 1021 z "},"Ӗ":{"ha":847,"x_min":97,"x_max":799,"o":"m 97 0 l 97 901 l 785 901 l 785 747 l 314 747 l 314 540 l 739 540 l 739 386 l 314 386 l 314 154 l 799 154 l 799 0 l 97 0 m 467 997 q 258 1058 329 997 q 188 1215 188 1118 l 361 1215 q 392 1131 368 1156 q 467 1106 417 1106 q 541 1131 517 1106 q 572 1215 565 1156 l 746 1215 q 675 1058 746 1118 q 467 997 604 997 z "},"Ә":{"ha":1011,"x_min":78,"x_max":933,"o":"m 507 -14 q 191 50 304 -14 q 78 250 78 114 l 78 510 l 717 510 l 717 611 q 644 723 717 685 q 438 761 572 761 q 280 751 351 761 q 117 721 208 742 l 117 883 q 283 908 207 900 q 460 915 358 915 q 690 899 590 915 q 861 819 789 882 q 933 631 933 757 l 933 250 q 808 47 933 108 q 507 -14 683 -14 m 506 140 q 667 164 617 140 q 717 251 717 188 l 717 361 l 294 361 l 294 251 q 345 165 294 189 q 506 140 396 140 z "},"Ӝ":{"ha":1360,"x_min":7,"x_max":1353,"o":"m 167 294 q 258 419 211 376 q 374 479 304 463 l 374 482 q 288 534 319 503 q 214 631 256 565 l 42 901 l 282 901 l 431 657 q 501 565 472 589 q 574 542 529 542 l 574 901 l 786 901 l 786 542 q 859 565 831 542 q 929 657 888 589 l 1078 901 l 1318 901 l 1146 631 q 1072 534 1104 565 q 986 482 1040 503 l 986 479 q 1102 419 1056 463 q 1193 294 1149 376 l 1353 0 l 1113 0 l 965 265 q 913 349 933 324 q 864 385 892 375 q 786 396 836 396 l 786 0 l 574 0 l 574 396 q 496 385 524 396 q 447 349 468 375 q 394 265 426 324 l 247 0 l 7 0 l 167 294 m 461 1021 l 461 1185 l 636 1185 l 636 1021 l 461 1021 m 725 1021 l 725 1185 l 900 1185 l 900 1021 l 725 1021 z "},"Ӟ":{"ha":792,"x_min":42,"x_max":740,"o":"m 371 -14 q 42 17 185 -14 l 42 181 q 201 149 139 158 q 338 140 264 140 q 483 162 443 140 q 524 231 524 183 l 524 318 q 481 374 524 361 q 347 386 439 386 l 168 386 l 168 540 l 347 540 q 439 549 408 540 q 481 573 469 557 q 492 619 492 589 l 492 690 q 458 747 492 733 q 338 761 425 761 q 60 721 222 761 l 60 883 q 378 915 229 915 q 631 876 553 915 q 708 739 708 836 l 708 594 q 681 524 708 554 q 614 485 653 494 l 614 481 q 740 346 740 444 l 740 200 q 647 40 740 93 q 371 -14 553 -14 m 169 1021 l 169 1185 l 344 1185 l 344 1021 l 169 1021 m 433 1021 l 433 1185 l 608 1185 l 608 1021 l 433 1021 z "},"Ӣ":{"ha":1017,"x_min":97,"x_max":919,"o":"m 97 0 l 97 901 l 314 901 l 314 285 l 703 901 l 919 901 l 919 0 l 703 0 l 703 626 l 314 0 l 97 0 m 288 1000 l 288 1124 l 729 1124 l 729 1000 l 288 1000 z "},"Ӥ":{"ha":1017,"x_min":97,"x_max":919,"o":"m 97 0 l 97 901 l 314 901 l 314 285 l 703 901 l 919 901 l 919 0 l 703 0 l 703 626 l 314 0 l 97 0 m 289 1021 l 289 1185 l 464 1185 l 464 1021 l 289 1021 m 553 1021 l 553 1185 l 728 1185 l 728 1021 l 553 1021 z "},"Ӧ":{"ha":1011,"x_min":78,"x_max":933,"o":"m 504 -14 q 366 -4 429 -14 q 235 29 303 6 q 119 110 161 54 q 78 247 78 167 l 78 642 q 108 761 78 708 q 185 844 138 814 q 288 889 226 871 q 401 911 349 907 q 504 915 450 915 q 615 910 568 915 q 721 890 663 906 q 831 843 788 871 q 903 765 874 815 q 933 642 933 714 l 933 247 q 894 118 933 172 q 785 36 854 64 q 504 -14 660 -14 m 507 140 q 584 144 553 140 q 649 157 615 147 q 699 190 682 167 q 717 247 717 213 l 717 643 q 665 734 717 707 q 506 761 614 761 q 346 735 397 761 q 294 643 294 708 l 294 247 q 313 190 294 213 q 365 157 331 167 q 430 144 399 147 q 507 140 461 140 m 286 1021 l 286 1185 l 461 1185 l 461 1021 l 286 1021 m 550 1021 l 550 1185 l 725 1185 l 725 1021 l 550 1021 z "},"Ө":{"ha":1011,"x_min":78,"x_max":933,"o":"m 903 765 q 933 642 933 714 l 933 247 q 894 118 933 172 q 785 36 854 64 q 504 -14 660 -14 q 366 -4 429 -14 q 235 29 303 6 q 119 110 161 54 q 78 247 78 167 l 78 642 q 108 761 78 708 q 185 844 138 814 q 288 889 226 871 q 401 911 349 907 q 504 915 450 915 q 615 910 568 915 q 721 890 663 906 q 831 843 788 871 q 903 765 874 815 m 506 761 q 346 735 397 761 q 294 643 294 708 l 294 540 l 717 540 l 717 643 q 665 734 717 707 q 506 761 614 761 m 649 157 q 699 190 682 167 q 717 247 717 213 l 717 386 l 294 386 l 294 247 q 313 190 294 213 q 365 157 331 167 q 430 144 399 147 q 507 140 461 140 q 584 144 553 140 q 649 157 615 147 z "},"Ӯ":{"ha":844,"x_min":3,"x_max":858,"o":"m 228 -14 q 107 0 178 -14 l 107 158 q 165 146 136 151 q 219 140 193 140 q 285 159 258 140 q 332 217 313 178 l 351 257 l 3 901 l 229 901 l 456 449 l 461 449 l 640 901 l 858 901 l 532 178 q 419 32 488 78 q 228 -14 351 -14 m 222 1000 l 222 1124 l 664 1124 l 664 1000 l 222 1000 z "},"Ӱ":{"ha":844,"x_min":3,"x_max":858,"o":"m 228 -14 q 107 0 178 -14 l 107 158 q 165 146 136 151 q 219 140 193 140 q 285 159 258 140 q 332 217 313 178 l 351 257 l 3 901 l 229 901 l 456 449 l 461 449 l 640 901 l 858 901 l 532 178 q 419 32 488 78 q 228 -14 351 -14 m 224 1021 l 224 1185 l 399 1185 l 399 1021 l 224 1021 m 488 1021 l 488 1185 l 663 1185 l 663 1021 l 488 1021 z "},"Ӳ":{"ha":844,"x_min":3,"x_max":858,"o":"m 228 -14 q 107 0 178 -14 l 107 158 q 165 146 136 151 q 219 140 193 140 q 285 159 258 140 q 332 217 313 178 l 351 257 l 3 901 l 229 901 l 456 449 l 461 449 l 640 901 l 858 901 l 532 178 q 419 32 488 78 q 228 -14 351 -14 m 267 1003 l 364 1181 l 497 1181 l 400 1003 l 267 1003 m 471 1003 l 568 1181 l 701 1181 l 604 1003 l 471 1003 z "},"Ӵ":{"ha":929,"x_min":79,"x_max":832,"o":"m 615 344 q 350 282 504 282 q 158 341 236 282 q 79 542 79 400 l 79 901 l 293 901 l 293 558 q 326 469 293 492 q 411 446 358 446 q 525 464 469 446 q 615 510 581 482 l 615 901 l 832 901 l 832 0 l 615 0 l 615 344 m 246 1021 l 246 1185 l 421 1185 l 421 1021 l 246 1021 m 510 1021 l 510 1185 l 685 1185 l 685 1021 l 510 1021 z "},"Ӷ":{"ha":726,"x_min":97,"x_max":699,"o":"m 253 -210 l 253 0 l 97 0 l 97 901 l 699 901 l 699 747 l 314 747 l 314 154 l 447 154 l 447 -210 l 253 -210 z "},"Ӹ":{"ha":1244,"x_min":97,"x_max":1147,"o":"m 97 901 l 314 901 l 314 571 l 428 571 q 628 558 551 571 q 749 505 704 546 q 793 383 793 464 l 793 214 q 429 0 793 0 l 97 0 l 97 901 m 931 0 l 931 901 l 1147 901 l 1147 0 l 931 0 m 419 154 q 539 177 501 154 q 576 247 576 200 l 576 343 q 540 401 576 386 q 422 417 504 417 l 313 417 l 313 154 l 419 154 m 403 1021 l 403 1185 l 578 1185 l 578 1021 l 403 1021 m 667 1021 l 667 1185 l 842 1185 l 842 1021 l 667 1021 z "},"Ԛ":{"ha":1028,"x_min":78,"x_max":1017,"o":"m 504 -14 q 366 -4 429 -14 q 235 29 303 6 q 119 110 161 54 q 78 247 78 167 l 78 642 q 108 761 78 708 q 185 844 138 814 q 288 889 226 871 q 401 911 349 907 q 504 915 450 915 q 615 910 568 915 q 721 890 663 906 q 831 843 788 871 q 903 765 874 815 q 933 642 933 714 l 933 396 q 819 156 933 190 l 1017 156 l 1017 0 l 721 0 q 626 -7 706 0 q 504 -14 547 -14 m 507 140 q 584 144 553 140 q 649 157 615 147 q 699 190 682 167 q 717 247 717 213 l 717 643 q 665 734 717 707 q 506 761 614 761 q 346 735 397 761 q 294 643 294 708 l 294 247 q 313 190 294 213 q 365 157 331 167 q 430 144 399 147 q 507 140 461 140 z "},"Ԝ":{"ha":1368,"x_min":11,"x_max":1357,"o":"m 290 0 l 11 901 l 236 901 l 411 243 l 586 901 l 788 901 l 976 243 l 1138 901 l 1357 901 l 1068 0 l 854 0 l 682 654 l 504 0 l 290 0 z "},"а":{"ha":783,"x_min":54,"x_max":694,"o":"m 279 -14 q 138 3 185 -14 q 73 66 92 21 q 54 201 54 111 q 74 328 54 282 q 140 394 94 374 q 264 414 185 414 l 492 414 l 492 460 q 480 524 492 503 q 437 553 468 544 q 343 561 406 561 q 107 544 257 561 l 107 672 q 364 686 217 686 q 563 667 493 686 q 664 600 633 647 q 694 463 694 553 l 694 0 l 496 0 l 496 61 q 432 4 472 21 q 279 -14 392 -14 m 358 113 q 446 117 419 113 q 473 125 465 119 q 486 143 481 131 q 492 172 492 153 l 492 303 l 353 303 q 286 297 306 303 q 260 272 267 290 q 253 206 253 253 q 260 142 253 160 q 287 118 267 124 q 358 113 307 113 z "},"б":{"ha":826,"x_min":79,"x_max":757,"o":"m 418 -14 q 228 3 299 -14 q 119 78 158 19 q 79 257 79 138 l 79 539 q 119 742 79 663 q 226 865 158 821 q 393 939 293 910 l 463 957 q 588 990 519 971 q 704 1028 656 1008 l 704 856 q 435 775 625 817 q 305 733 353 757 q 233 667 257 708 q 210 557 210 625 l 210 482 l 211 482 q 292 601 231 564 q 483 639 353 639 q 656 608 597 639 q 736 517 715 578 q 757 349 757 456 l 757 257 q 729 101 757 158 q 628 15 701 43 q 418 -14 554 -14 m 421 113 q 510 124 482 113 q 546 157 538 135 q 554 224 554 179 l 554 396 q 546 470 554 447 q 511 503 538 493 q 425 513 485 513 q 333 501 363 513 q 292 463 303 489 q 282 389 282 438 l 282 224 q 292 158 282 181 q 333 124 303 135 q 421 113 363 113 z "},"в":{"ha":807,"x_min":89,"x_max":751,"o":"m 89 672 l 461 672 q 626 654 571 672 q 699 602 682 636 q 717 508 717 568 l 717 485 q 687 406 717 432 q 592 365 657 379 l 592 360 q 710 311 668 347 q 751 218 751 275 l 751 178 q 683 43 751 86 q 460 0 615 0 l 89 0 l 89 672 m 390 407 q 471 414 444 407 q 507 435 497 421 q 517 479 517 450 l 517 496 q 492 536 517 522 q 386 550 468 550 l 289 550 l 289 407 l 390 407 m 394 122 q 514 140 479 122 q 549 197 549 158 l 549 222 q 535 263 549 249 q 492 282 522 276 q 401 288 461 288 l 289 288 l 289 122 l 394 122 z "},"г":{"ha":607,"x_min":89,"x_max":579,"o":"m 89 0 l 89 672 l 579 672 l 579 539 l 292 539 l 292 0 l 89 0 z "},"ѓ":{"ha":607,"x_min":89,"x_max":610,"o":"m 89 0 l 89 672 l 579 672 l 579 539 l 292 539 l 292 0 l 89 0 m 264 768 l 389 944 l 610 944 l 436 768 l 264 768 z "},"ґ":{"ha":603,"x_min":89,"x_max":575,"o":"m 89 0 l 89 672 l 414 672 l 414 839 l 575 839 l 575 539 l 292 539 l 292 0 l 89 0 z "},"д":{"ha":849,"x_min":28,"x_max":815,"o":"m 28 133 l 68 133 q 123 172 96 133 q 169 308 150 210 q 189 571 189 406 l 189 672 l 711 672 l 711 133 l 815 133 l 815 -186 l 649 -186 l 649 0 l 213 0 l 213 -186 l 28 -186 l 28 133 m 508 129 l 508 544 l 356 544 l 356 526 q 335 285 356 386 q 275 129 314 183 l 508 129 z "},"е":{"ha":776,"x_min":69,"x_max":710,"o":"m 426 -14 q 69 204 69 -14 l 69 446 q 151 629 69 572 q 401 686 232 686 q 635 631 561 686 q 710 446 710 576 l 710 282 l 274 282 l 274 221 q 315 138 274 163 q 465 113 357 113 q 690 142 565 113 l 690 13 q 426 -14 567 -14 m 517 397 l 517 494 q 490 544 517 528 q 399 561 463 561 q 300 544 325 561 q 274 494 274 526 l 274 397 l 517 397 z "},"ѐ":{"ha":776,"x_min":69,"x_max":710,"o":"m 426 -14 q 69 204 69 -14 l 69 446 q 151 629 69 572 q 401 686 232 686 q 635 631 561 686 q 710 446 710 576 l 710 282 l 274 282 l 274 221 q 315 138 274 163 q 465 113 357 113 q 690 142 565 113 l 690 13 q 426 -14 567 -14 m 517 397 l 517 494 q 490 544 517 528 q 399 561 463 561 q 300 544 325 561 q 274 494 274 526 l 274 397 l 517 397 m 317 768 l 143 944 l 364 944 l 489 768 l 317 768 z "},"ё":{"ha":776,"x_min":69,"x_max":710,"o":"m 426 -14 q 69 204 69 -14 l 69 446 q 151 629 69 572 q 401 686 232 686 q 635 631 561 686 q 710 446 710 576 l 710 282 l 274 282 l 274 221 q 315 138 274 163 q 465 113 357 113 q 690 142 565 113 l 690 13 q 426 -14 567 -14 m 517 397 l 517 494 q 490 544 517 528 q 399 561 463 561 q 300 544 325 561 q 274 494 274 526 l 274 397 l 517 397 m 183 785 l 183 949 l 358 949 l 358 785 l 183 785 m 447 785 l 447 949 l 622 949 l 622 785 l 447 785 z "},"ж":{"ha":1133,"x_min":7,"x_max":1126,"o":"m 168 257 q 274 364 218 338 l 50 672 l 253 672 l 407 433 q 434 404 421 413 q 469 396 447 396 l 469 672 l 664 672 l 664 396 q 699 404 686 396 q 726 433 713 413 l 881 672 l 1083 672 l 860 364 q 965 257 915 338 l 1126 0 l 901 0 l 769 219 q 726 269 747 258 q 664 281 704 281 l 664 0 l 469 0 l 469 281 q 408 269 429 281 q 364 219 386 258 l 232 0 l 7 0 l 168 257 z "},"з":{"ha":694,"x_min":39,"x_max":636,"o":"m 288 -14 q 39 10 164 -14 l 39 143 q 172 119 121 125 q 274 113 224 113 q 372 118 339 113 q 419 140 406 124 q 433 186 433 156 l 433 214 q 402 269 433 254 q 290 283 371 283 l 154 283 l 154 410 l 290 410 q 376 426 354 410 q 397 481 397 443 l 397 493 q 388 535 397 521 q 353 555 379 549 q 274 561 328 561 q 177 553 222 561 q 57 528 132 546 l 57 661 q 318 686 193 686 q 494 672 435 686 q 577 626 554 658 q 600 531 600 593 l 600 472 q 576 403 600 431 q 514 365 553 375 l 514 358 q 604 312 572 346 q 636 233 636 278 l 636 176 q 599 61 636 103 q 487 3 563 19 q 288 -14 411 -14 z "},"и":{"ha":849,"x_min":89,"x_max":760,"o":"m 89 0 l 89 672 l 292 672 l 292 233 l 557 672 l 760 672 l 760 0 l 557 0 l 557 451 l 292 0 l 89 0 z "},"й":{"ha":849,"x_min":89,"x_max":760,"o":"m 89 0 l 89 672 l 292 672 l 292 233 l 557 672 l 760 672 l 760 0 l 557 0 l 557 451 l 292 0 l 89 0 m 425 754 q 249 810 314 754 q 185 958 183 865 l 328 958 q 356 876 332 903 q 425 850 379 850 q 495 876 472 850 q 522 958 518 901 l 665 958 q 602 810 668 867 q 425 754 536 754 z "},"ѝ":{"ha":849,"x_min":89,"x_max":760,"o":"m 89 0 l 89 672 l 292 672 l 292 233 l 557 672 l 760 672 l 760 0 l 557 0 l 557 451 l 292 0 l 89 0 m 339 768 l 165 944 l 386 944 l 511 768 l 339 768 z "},"к":{"ha":782,"x_min":89,"x_max":782,"o":"m 89 672 l 292 672 l 292 400 q 328 406 314 400 q 356 429 342 413 l 550 672 l 761 672 l 492 361 q 603 257 549 335 l 782 0 l 549 0 l 400 219 q 353 265 375 256 q 292 275 331 275 l 292 0 l 89 0 l 89 672 z "},"ќ":{"ha":782,"x_min":89,"x_max":782,"o":"m 89 672 l 292 672 l 292 400 q 328 406 314 400 q 356 429 342 413 l 550 672 l 761 672 l 492 361 q 603 257 549 335 l 782 0 l 549 0 l 400 219 q 353 265 375 256 q 292 275 331 275 l 292 0 l 89 0 l 89 672 m 315 768 l 440 944 l 661 944 l 488 768 l 315 768 z "},"л":{"ha":847,"x_min":47,"x_max":758,"o":"m 119 -11 q 47 -3 89 -11 l 47 147 q 82 144 64 144 q 165 176 133 144 q 215 301 197 208 q 232 571 232 394 l 232 672 l 758 672 l 758 0 l 556 0 l 556 543 l 401 543 l 401 526 q 364 193 401 311 q 265 32 326 75 q 119 -11 204 -11 z "},"м":{"ha":1018,"x_min":89,"x_max":929,"o":"m 89 0 l 89 672 l 347 672 l 511 208 l 685 672 l 929 672 l 929 0 l 746 0 l 746 433 l 738 433 l 575 0 l 432 0 l 275 433 l 267 433 l 267 0 l 89 0 z "},"н":{"ha":838,"x_min":89,"x_max":749,"o":"m 89 0 l 89 672 l 292 672 l 292 414 l 546 414 l 546 672 l 749 672 l 749 0 l 546 0 l 546 281 l 292 281 l 292 0 l 89 0 z "},"о":{"ha":822,"x_min":69,"x_max":753,"o":"m 411 -14 q 308 -10 349 -14 q 222 7 268 -6 q 142 47 172 21 q 90 119 111 72 q 69 231 69 165 l 69 429 q 90 546 69 496 q 144 624 111 596 q 222 663 174 647 q 315 683 269 679 q 411 686 368 686 q 513 683 475 686 q 597 665 551 679 q 678 624 647 650 q 732 549 710 597 q 753 429 753 499 l 753 231 q 733 121 753 168 q 681 47 713 74 q 605 9 653 24 q 511 -10 557 -6 q 411 -14 469 -14 m 411 113 q 497 122 468 113 q 538 150 526 131 q 550 207 550 169 l 550 461 q 521 539 550 517 q 411 561 492 561 q 301 539 331 561 q 272 461 272 517 l 272 207 q 284 150 272 169 q 325 122 296 131 q 411 113 354 113 z "},"п":{"ha":829,"x_min":89,"x_max":740,"o":"m 89 0 l 89 672 l 740 672 l 740 0 l 538 0 l 538 543 l 292 543 l 292 0 l 89 0 z "},"р":{"ha":846,"x_min":89,"x_max":776,"o":"m 89 672 l 281 672 l 281 606 q 351 668 299 650 q 508 686 404 686 q 649 672 596 686 q 731 628 703 658 q 767 560 757 597 q 776 460 776 524 l 776 239 q 747 85 776 139 q 658 8 718 31 q 493 -14 597 -14 q 349 3 393 -14 q 292 68 304 19 l 292 -289 l 89 -289 l 89 672 m 431 113 q 521 121 490 113 q 563 150 551 129 q 574 213 574 171 l 574 461 q 564 527 574 507 q 525 554 554 547 q 429 561 496 561 q 342 551 372 561 q 302 521 313 542 q 292 461 292 500 l 292 213 q 302 150 292 171 q 342 121 313 129 q 431 113 371 113 z "},"с":{"ha":669,"x_min":69,"x_max":644,"o":"m 417 -14 q 333 -12 364 -14 q 258 -4 303 -10 q 185 15 214 1 q 126 57 157 29 q 69 218 69 104 l 69 442 q 111 594 69 533 q 156 635 126 617 q 217 665 186 654 q 283 679 242 674 q 357 686 325 685 l 431 686 q 635 661 508 686 l 635 528 q 415 561 492 561 q 275 467 275 561 l 275 219 q 429 113 275 113 q 644 143 504 113 l 644 10 q 417 -14 518 -14 z "},"т":{"ha":703,"x_min":28,"x_max":675,"o":"m 250 0 l 250 539 l 28 539 l 28 672 l 675 672 l 675 539 l 453 539 l 453 0 l 250 0 z "},"у":{"ha":742,"x_min":11,"x_max":731,"o":"m 157 -289 l 279 6 l 11 672 l 232 672 l 383 197 l 521 672 l 731 672 l 363 -289 l 157 -289 z "},"ў":{"ha":742,"x_min":11,"x_max":731,"o":"m 157 -289 l 279 6 l 11 672 l 232 672 l 383 197 l 521 672 l 731 672 l 363 -289 l 157 -289 m 385 754 q 208 810 274 754 q 144 958 143 865 l 288 958 q 315 876 292 903 q 385 850 339 850 q 455 876 432 850 q 482 958 478 901 l 625 958 q 562 810 628 867 q 385 754 496 754 z "},"ф":{"ha":1058,"x_min":69,"x_max":989,"o":"m 432 -11 q 244 3 318 -11 q 119 70 169 17 q 69 233 69 124 l 69 426 q 115 590 69 535 q 238 664 161 646 q 432 683 314 682 l 432 972 l 626 972 l 626 683 q 821 664 744 682 q 943 590 897 646 q 989 426 989 535 l 989 233 q 939 70 989 124 q 815 3 889 17 q 626 -11 740 -11 l 626 -289 l 432 -289 l 432 -11 m 433 560 q 331 547 365 558 q 284 511 297 536 q 271 439 271 486 l 271 235 q 283 160 271 185 q 330 124 296 135 q 433 114 364 114 l 433 560 m 625 114 q 728 124 693 114 q 775 160 763 135 q 788 235 788 185 l 788 439 q 774 511 788 486 q 726 547 761 536 q 625 560 692 558 l 625 114 z "},"х":{"ha":789,"x_min":14,"x_max":776,"o":"m 14 0 l 278 344 l 28 672 l 263 672 l 394 479 l 528 672 l 763 672 l 511 344 l 776 0 l 542 0 l 394 211 l 249 0 l 14 0 z "},"ч":{"ha":778,"x_min":64,"x_max":689,"o":"m 486 297 q 281 200 458 200 q 113 251 161 200 q 64 404 64 301 l 64 672 l 261 672 l 261 435 q 267 371 261 393 q 292 338 272 349 q 356 326 313 326 q 443 338 415 326 q 478 372 471 350 q 486 439 486 394 l 486 672 l 689 672 l 689 0 l 486 0 l 486 297 z "},"ц":{"ha":844,"x_min":89,"x_max":811,"o":"m 644 -186 l 644 0 l 89 0 l 89 672 l 292 672 l 292 129 l 504 129 l 504 672 l 707 672 l 707 133 l 811 133 l 811 -186 l 644 -186 z "},"ш":{"ha":1156,"x_min":89,"x_max":1067,"o":"m 89 0 l 89 672 l 292 672 l 292 129 l 476 129 l 476 672 l 679 672 l 679 129 l 864 129 l 864 672 l 1067 672 l 1067 0 l 89 0 z "},"щ":{"ha":1204,"x_min":89,"x_max":1171,"o":"m 1004 -186 l 1004 0 l 89 0 l 89 672 l 292 672 l 292 129 l 476 129 l 476 672 l 679 672 l 679 129 l 864 129 l 864 672 l 1067 672 l 1067 133 l 1171 133 l 1171 -186 l 1004 -186 z "},"џ":{"ha":829,"x_min":89,"x_max":740,"o":"m 333 -200 l 333 0 l 89 0 l 89 672 l 292 672 l 292 129 l 538 129 l 538 672 l 740 672 l 740 0 l 500 0 l 500 -200 l 333 -200 z "},"ь":{"ha":763,"x_min":89,"x_max":699,"o":"m 89 672 l 292 672 l 292 447 l 369 447 q 578 432 510 447 q 673 378 647 417 q 699 258 699 339 l 699 179 q 619 42 699 83 q 374 0 540 0 l 89 0 l 89 672 m 364 126 q 446 134 419 126 q 481 158 472 142 q 489 208 489 175 l 489 246 q 478 292 489 276 q 442 314 468 308 q 367 319 417 319 l 289 319 l 289 126 l 364 126 z "},"ъ":{"ha":924,"x_min":28,"x_max":860,"o":"m 250 539 l 28 539 l 28 672 l 453 672 l 453 447 l 531 447 q 740 432 671 447 q 834 378 808 417 q 860 258 860 339 l 860 179 q 781 42 860 83 q 535 0 701 0 l 250 0 l 250 539 m 525 126 q 607 134 581 126 q 642 158 633 142 q 650 208 650 175 l 650 246 q 640 292 650 276 q 603 314 629 308 q 528 319 578 319 l 450 319 l 450 126 l 525 126 z "},"ы":{"ha":1083,"x_min":89,"x_max":994,"o":"m 89 672 l 292 672 l 292 447 l 361 447 q 567 432 501 447 q 658 378 633 417 q 682 258 682 340 l 682 179 q 606 41 682 82 q 365 0 531 0 l 89 0 l 89 672 m 792 0 l 792 672 l 994 672 l 994 0 l 792 0 m 356 126 q 438 134 411 126 q 472 158 464 142 q 481 208 481 175 l 481 246 q 470 292 481 276 q 434 314 460 308 q 358 319 408 319 l 289 319 l 289 126 l 356 126 z "}}}
